<mxfile host="65bd71144e">
    <diagram id="CQ9bilpFrPC3tOuGJlzu" name="Page-1">
        <mxGraphModel dx="700" dy="342" grid="1" gridSize="10" guides="1" tooltips="1" connect="1" arrows="1" fold="1" page="1" pageScale="1" pageWidth="1100" pageHeight="850" math="0" shadow="0">
            <root>
                <mxCell id="0"/>
                <mxCell id="1" parent="0"/>
                <mxCell id="2" value="" style="shape=image;verticalLabelPosition=bottom;labelBackgroundColor=default;verticalAlign=top;aspect=fixed;imageAspect=0;image=data:image/jpeg,/9j/4AAQSkZJRgABAQAAAQABAAD/2wBDAAMCAgICAgMCAgIDAwMDBAYEBAQEBAgGBgUGCQgKCgkICQkKDA8MCgsOCwkJDRENDg8QEBEQCgwSExIQEw8QEBD/2wBDAQMDAwQDBAgEBAgQCwkLEBAQEBAQEBAQEBAQEBAQEBAQEBAQEBAQEBAQEBAQEBAQEBAQEBAQEBAQEBAQEBAQEBD/wAARCAEuARUDASIAAhEBAxEB/8QAHAABAQADAQEBAQAAAAAAAAAAAAgFBgcEAwkC/8QAPRAAAQMDAwIEAwUGBgIDAQAAAQACAwQFBgcIERIhEyIxQQkUURYjMmFxFSQzQmKBF0NScoKRJaEYJ3NT/8QAFAEBAAAAAAAAAAAAAAAAAAAAAP/EABQRAQAAAAAAAAAAAAAAAAAAAAD/2gAMAwEAAhEDEQA/AP1TREQEREBERAREQEREBcg1/wBz2nm32nttuvUVxv8Al2QuMOPYnY6c1V0usvcARxN/CzkcGR3AHBA6j5T/AHue1+odvOmj8nhtRveTXerisuLWKM/e3a6znphhaB36QfM4j+VpA7kA6rti2zVmnVRW6y6zXGLK9acuZ4t9vkoD2W9jgOLfQj0ip4xw3y8dXT/pDWgNLo9P98m4Vv7V1M1QptB8XquHw4zh7GVl88IgcCpuL/LFIOT/AARx6ctBC9zfhp7bbkPFz6r1BzqsPd9ZkWZV0s0h+rjC+Mc/2VWIglJ/w3dDrMPH0tzLVHTitZ3iqcbzKrYWO9uRO6QOH1HuFj6uPfTtp/8AIxXSj3GYLTd6ikdSNtuVUsXI7xFnMVYWgk8EGR5AA6VXqIOc6G6/6Y7h8Tflumt7fUMpZjS3G31URgr7ZUjnmCpgd5o3gg/Vp4JaXDuujKVtymgmWYhlD92W2CjjotSbNF4mQWSIFlJmdtb3lpqhjexqA1vMcnHUS0D1DC3uGiWsGI69aX2DVXCagvtl9phL4T3Ay0swPTLTyAej43hzT+nI5BBQbyiIgIiICIiAiIgIiICIiAiIgIiICIiAiIgIiICIiAiIgIiIJIx6nG4DftkeRXIfM4rt7tcNos8Lu8MmRXCPxKmoAPYuihAiPbyuDHA9lW6lP4eLRc8E1SzmfzVuW6r5Lc6h59e0zI2s/JrRH2HoOSqsQFruZai6fac0cNx1CzvHsYpah/hxT3m6QUUcj/8AS10rmgnuOw+q2JQtvT236DWzIcl3dbpblkucYparbTWyhxGhc6lFFI+RkbHRSsqYi7l7iS0lvJcT5uAEFv2u62y92+C7WW40tfQ1TBJBU0szZYpWH0c17SQ4fmCvUoS+EZZ7jRaJ5Xd6a/0smLXjJZ6rHrHHdWV09npiP4c/Q4+FI7lpLDw7t1EAuV2oCkjRinGgW9PULQmlHy+I6n2wajY3TjtFS3ESCG5U8YHYdZ4m6QAGtY0frW6lPdI0WPddtYzSl8lT9oL5YJSP8yCsoA0td9QCzkfQnlBViIiAiIgIiICIiAiIgIiICIiAiIgIiICIiAiIgIiICIiAiIglLYO/7Of446SVfkrcP1UvMkcZ9TQVhZPSyEe3WPEP9lVqkPU6pbtk3m2PWyq/d8C1so6bD8pqj2ioL7T9rbVTO7BrZI+YeSeGhr3Ejsq8QFCet+8bWXaTuQvbtcsRveR6KXmiYcbq7BaacvpKk9PMckjywPfz1tLXyNPSWuDXK7EQQf8ADdw3NrpqDrJuLr8ErsGxDUi5xzY/YqyIwPcxr5HuqBF2AB6wOoDhxLukkDk3giIClLcM/wC1+9fbZp9R+c2H7QZjdAPWGCOlENM7j6OmLmqpq2to7bRVFxuNXDS0lLE+eeeZ4ZHFG0Eue5x7NaACST2AClDaFHVa5avajb0LnSSxWrIenDsCbPGWP+z9HITLUgHuG1FSOsDnsWP9iEFbIiICIiAiIgIiICIiAiIgIiICIiAiIgIiICIiAiIgIiICIiDQteMJ0z1C0gyvGNYoIXYfLbJqi6zSHpNLDC0ympY7g9D4ujxGu4PBaOx9FHWy/eVk+IYZhmCbqKa42Sy5PB06d5zd4wyC70LXuZFBXTBzmRVPQ1pa5/SHsLC48kPk6lvcu9z1QvWC7McRrZYa/VCsFdlFRAeH0GMUjxJUvJ/lMzmCNh54d0vYfxKhMk0o03zDAW6XZRhVqumKMpIqKO01NOHwRwxtDYwwHuwsAHS5pDm8AggoNqY9krGyRva9jwHNc08gg+hBX9KRoNqG4PQjy7RdwQix2IH5fBtQYZLna4B7R09Wz95p4x34Y3n1JLiV7W62b/8AHB8rkGyrHMrkb2dW47qHSUcLj9WxVbDJx+pQVYvNcrnbbNb6i7Xi4U1DQ0kbpqipqZWxRQxtHLnve4gNaB6knhS3Jq18Q/LgaTGNpmDYHJJ2ZW5XnMdzhZ/U6KhaH8fl6r4QbLs+1gr4LzvL1yr8+o4JmVEOF2GE2nHIntILfFYwiWr4I5DpC09yDyOyDim5PdA/cxkOK6W4X+2rbt7yHMqHD8tzumgdALxVSueRQ0kriOKYmPpkm6eO479B4k/Q3G8csWH4/bcVxi1U9stFopYqKho6dnTHBBG0NYxo+gAAXIN0GgVo1K2uZVo9hVjpbXJS2r5jGqW3QinZS11IRPSthbGB4fMkbWeUej3LPbXdXotd9AcJ1R8RprLxa4xcmt4+7r4uYqpvHtxNHJwPpwg6miIgIiICIiAiIgIiICIiAiIgIiICIiAiIgIiICIiAiIgLy3W6W+yWysvV3rIqShoIJKqqqJXcMhiY0ue9x9gGgk/ovUpS31ZHes3gw3aBgldLT5BrHXmnu1TB3fbscpyJK+oPYgdTR4bQ7gP5kb6oPjsmtlw1YyTPd6OV0csVVqRVm1YlBO0h9DjFG8sgAHbpM8jDI8ccEsY4HzKs1jMZxyy4djlrxLG6COhtNlo4bfQ00Y4ZDTxMDI2D8g1oH9lk0BERAREQFJW1YjRzcfrZtgqCIbdUVzNSMSh9v2fXkMrI2A9wyKpDWADkcucf1rVSVvKB0j1Z0X3X0pMNHjd8OH5W9vobLc/uxLIf9EEwDh3/FIPX2CtUREBERAREQEREBERAREQEREBERAREQEREBERAREQEREHyq6uloKWaurqmKnpqeN0s00rw1kbGjlznOPYAAEklSXs4oqnW/UvUDevkFNIKfKp3YvgUc7OHU2N0chb4rQRy01E7XSOHsWu47OWX31Zhf7zjmM7XNPK50GX613A2R00XJdb7GwB9yq3Adw0Q8s7juHv47tVEYXh9g0+xCzYNitC2js9goYLdQwN48kMTAxoPHqeByT7nk+6DNIiICIiAiIgLn24DSqh1v0VzPSivDAMktM9JA9/pFUgddPKf9kzY3/8V0FEHC9k2qtdq7tsxG+X7rZkdmgfjmQQy/xYrjQuMEvifRzwxsp//Qfou6KStGQNEd7uqmjMgFPYdVKKLUrHmccMFdz4FzjHHYve8CXj1DWj19VWqAiIgIiICIiAiIgIiICIiAiIgIiICIiAiIgIiIC/iWWKCJ888jI442l73vIDWtA5JJPoAv7Uxb78/wAip8Cse3zTer8LO9a7j9l7c5p81HbyAbhWkAg9EcBIJB5Hicj0QYLaayTcDrRqBvMu0bpLNUSPwnTtsg8rLNSSn5msYDzx8xUB3BHBHTI09iq6Wt6cYDjulmBY/pxiVL8vaMct8FupGH8RZGwN6nH3e4gucfUuJJ9VsiAiIgIiICIiAiIgk/ftTVOn1Npruus8EjqrR/KIZrt4LSZJbDXltLXRjjuezo+OxAHUePVVXSVVNXUsNdRTxz09RG2WKWNwc17HDlrgR6ggg8rAak4JZtUNPsk05yFnVbcmtdTa6k9PJYyaNzOtv9TeeoH2IBXEtgOdXnJtvdFg+YPIyzS241WCX2NziXNmoH+HETz3IMBh8x9SHIKRREQEREBERAREQEREBERAREQEREBEU9a8brnYNl9Loloph0mo+rdzYJGWOml6KS0QkDiquVR+GCMAghpIc7kd29TSQoRzmtaXOIAA5JPoAudZDuR284lUuoso120+tVSw8OgrMlo4pQf9jpA7/wBLhdHsoznWYMvm87W+/ZjJUDrfhmNVctoxul545iLYi2ap444Ejix3c88+q6pjmzLadilK2ktG3bAHNYOA+tsUFbLx/wDpUNe8/wDaDa8V160NzqpZRYVrLg9+qZDw2C25BSVMpP06I5C7n+y3tcNy7Y5tDzelkpL1t5wqFsgIdJa7ay2S/r4lJ4bwfz5XNKva5r9t9Bvu0XWm53a105D36eZ7Vur7dPGOOY6SrPEtIeB5RzwXHzPAQV6pB20A7jdx2e7ua7mfGLAZMB065PMb6WB5NdcGd+D40pLWv4B6Opp/CtK1Z3vVeqmkNZobhWMXbDNe8xu0GC1GKXRjm1NndVBwnrmydIbLTNgEhbM3jguY7gDgmxtJdNMd0c00xvS7FIui141b4qCAkcOlLR55Xf1veXPd/U4oNtREQEREBERAREQEREBSVYXf4GfEHvWOuIp8c3A46280QJ4Z9oLWOioYwHsC+md4riDyXFvI91Wqjb4kWUWLFLBpnkthuDJ9VcazSgvOHWGlY+avvLRII6uljija53hvjfy5xAHLGt55cAQslY675Fj+Pxtlv19t1tY78LqyqZCD+heQpSo9LN5e5Li860apVGiOI1Y6ocOwaZrryYXAcCrujgfDk45BbE0tPPdoI4WxWX4bmz+2vNZetMZ8pucnee5ZDea2uqJz9X9UvRz+jQgoaz5bimROLMfya03NzRyRR1scxA/4OKyymm9/Dg2ZXlgdHovSWmpjPVDV2m5VlFNC72c0xSgcj8wQtbq9uO6PQb/zG2PX+5ZjaabzPwfUmb56KZnIJjprgA2WAgdQY08N5I6ndkFdIuF7f912L6z3Ot09ybHrhgOqFjZ1XjDb15aqNo45mpn8BtTAeQRIwehBIALSe6ICIiAiIgIiICIiAiIg4Pu311yPSPErNiWl9DBc9UdRriLBh9BN3Y2ocB4tZKCCPCp2OD3E9uSzq8pJGb217dcd284S+2RVb73ll7l/aGVZNVcuq7zcH8ukle93LugOc4MZzw0fVxc48n0gg/xr3w6qau3ICe0aR00GnuMNPdsda9njXOYD0Egc4Rc9yWP4PHACrVARFM+474he3TbHk8eEZvcL1dsh6GS1FusVGyokpI392umdJJGxvI79PUXccHp7jkKYRc/0R130x3D4RDqBpXkTbpa5HmGZrmGKelmABdFNG7ux45H5EEEEjuugIJ93VbcK7VKktmquk1TT2DWXA3Guxa9hrW/MdIPXb6kns+nla57OHchpeT+Fzw7bdsuu1u3EaS23P4rebXd4pZbXkNofz12u7QENqKZwd3HBIc3nv0PYTweQuqqSsWg/wO+IJf8AEaICDGdd8bOSwQjs1mQW93RU9A9vEp3GV5Hq4jkdggrVERAREQEREBERAREQc53Ba3Y3t60pvOqGSwy1TaBjYaG3wd5rjXSnogpox3Jc95A5APDQ53HDSuX7Vtu1+sdwqtx+v723nWbM4RLVSTN5ixuieOY7XRtPIjaxp6XuHdx6hyRy52u6l0jNe992FaXVoFRimi1l+3V1p3AGKovdQ/wqBjx380TOZ2+nq4KuEBFr+dZ/hWmOM1eZ6g5RbsfslCAZ62vnEUbSfRoJ/E4nsGjkk9gCVz3R/d/ts17vM2OaUasWu93aFjpDQOhnpKh7G/idHHURxukaPcsBAHdB2JFyjWbdVt9291NHQ6wanW3H6yvaH09IYpqmpcwnjrMMDHvaznkdRaG9j37Fbzg+eYbqXjFFmeA5LQX6yXBpfTV1DMJIn8HgjkejgexaeCCOCAUHK90O2a367WWhyTF7q7FtUMRca3EMqpfJPR1LeSIJSB56eQ8tew8gBxIB7h3o2pa+1Wu+n1S7K7QbFn2IVz8fzKyvHSaO5xdnOYOf4Ug87D3HdzQT0krtSkfP6Rmg+/LBdRrYBT2DXW3TYhkcbABGbxSMEtvqXfWR7OYB39A7t3QVwiIgIiICIiAiIgIiIJU+HQ0VWleoORS96y/6pZPcqxx9XTOqGsJP58RtVVqUNj8gw7NtwmhtafDrMY1JrL9Swu7OFsu0bKilPHuOGP7+ncKr0Bfl5c9Tn7F98Grmd6x6T5Rkdj1TMLscutloY6l7+TyYG+K9jSTyGOYHdQ8NvlIK/UNRZr3iPxCMA13uGp22a52zPMUyGiZSnF8iufTTWebhofLHFJPA3jlvUHNeT5ngtI45Dkfwq8gu9Tr/ALhbVNi9TilBV1tNd2Y7UR+G+3SSzz8RuYAA1wY5oI47cAduF+l6mHZDtfzHQe15dnerl6orrqPqPczdb9LRd4Kfu5zIGO4HVwZHkkDgE8DkDk08gKVN2LRb9zO1XI6ftWQ5bd7a1w9fBqqDolH6EMHKqtShrRIM/wB++g+n9EfFZgVlv2c3hje/RHNG2jpCf9P33Pr68oKvREQEREBERAREQEREEqbVGi7bo91OWVPmq5MnstmDj6tgo7f0sA+g85VVqUdBpBhO+bcRp7WeT7V0Vgza1NPYyQiA01W/8wJ+kcqrkHAt1e063bqhhVtyPNam12HFby27VtqZRiaK7AFoMUjvEaWDoEjeQDx4hPspGzbCNHcu+IXpNiG03CLFaajTiaWuze44zQx0lDTxtI4ilMLWsfLwHxk8kky9J54PHc/iR6n7hMW03t+n+3bTnNb5dcsMsdzu2OWaqrH26iZwHMbJDG4RSydXAJ7hocR37jjGz7XLUTR843o7ifw1NR8Std4uFPBesnuD658r3vcGvrauR9sYH9PJPBe1rR2HSEHr276f4FuL367k77rHiFpy9mLzUtptVHeqOOsp6aLrkj5ZHIC0ENgHB45HU4jglbT8NClODambi9GLW5zMexjMTLbKbrLmUzXulaWM59B0xxj/AI/3WAzmxbkNmO6zUXWzSfQG6as4dqtHDLLSWeWQVFDWNPP3jYopXgB7pDz4fSWv/E0grrXw9dCtTdObLn2q+s9mZZsv1Sv771Nag4OfQU/L3MjfwSA7mR56fUDp578gBXalT4ibRQ6b6b5bD5azGNVcYudK8fiDxO6MgH8xIeyqtSjvukGU3jQTRmk89Zl+qFtr5oh3Jt1ua6ercB/SHRlBVyIiAiIgIiICIiAiIgkLcpJUbadw+J7wKSnldh17pY8I1IETeRS00koNDcnD6RSkMe7jno6Wju9VxS1VLXUsNdQ1MVRT1EbZYZonh7JGOHLXNcOxBBBBHYheDKMYx/NcduWJZXaKa6We700lHXUdSzqjnhe3hzHD8wf1HqO6jiw5Rnfw9LpHgmosd3yzbzUTFuP5XFE+qrcPa53aiuDGAufStJ4ZKB2HAA7iNoW2iw+JZhiue4/SZVhWRW6+WevYJKauoKhs8MjT9HNJHP1HqPQrMICItT1M1X040bxeozPU/Mbbjlnpx5qitl6TI7/RGwcvlefZjA5x9ggyeY5fjmAYrdc1y+7QWyy2Skkra6rmdwyKJg5J/M+wA7kkAckhTfsox7Ic+ueb7w89tU9vu2rVTEMeoKkDxLdjNMOmiYeOwdKPvXcdneR38y1GgsOffEFyagyPPscueH7d7HWMrbXYK9joLhm1RGeY6irj9YqIHzNjP4+x78h0dpwQQUsEdLSwxwwwsEcccbQ1rGgcBoA7AAduEH0REQEREBERAREQEREEmb0KC76RZxp7vQxignq49Ppn2TNKWnaXSVONVjg2STpAJcaeU+KAOBy4knhpVSWK+WfJ7JQZJj1xguFrulNFWUVXA/qjngkaHMe0+4LSCP1X2uVtt94t1VaLtRQ1lDXQvpqmnnYHxzRPaWvY5p7OaWkgg+oK/N3bvuMum2a85vb4MdyTINq1ozCtsNjylsZq5camYWOlBa3mSW3eLI9rJADxx6ucS0h+laLEYnl2L53j9FleGZBQXuz3GMS0tdQ1DZoZWn3Dmkj9R6g9j3WXQERea43K3WegqLpdq+noqKkjdNUVNTK2OKJjRyXPe4gNAHqSeEHoc5rGl73BrWjkkngAKP8AQqsO5/dfk+5uEmbAdOKSbB8Em/y6+reebjcY+R3b38FrgS1zD9WkDku77eTeNWcPr8d0NhvdPo3SXWhs2oep1HF4cTKSpqo6eamtzn8eJ5ZD1ygEcEN/C8OdfWnuDYlpphFlwLBLZDb7BY6OOkoKeI8tbEB+Iu/mc4kuc493OcSeSUGwoiICIiAiIgIiICIiAvlVUtNXU01FW08VRT1EbopoZWB7JGOHDmuaexBBIIPqvqiCXci2D4Par9V5ltz1DyvRK/Vr/FqGYxUh1oqX/Wa3SfcuA4HDWFje3ovK3CPiUY0PlbPrhozmUbOwqsixqrt8z/zcyiJYD+iqxEEpP01+IxmA+UyXcdpjg1PJ2klxPFJa+fp9w01zgGnj39R6rOafbEtJsfyin1F1TvORavZrTnqivOa1prmUruQf3elP3MQBALeWuLSB0kKkUQEREBERAREQEREBERAREQT5vd1cv+mujhxjT0ul1B1IrosPxOCMkSCsq/I+oHAJaIoy9/XxwHdHPquhaJaMYtopozjmjFnpYKm12S2ChqPEiaW1srwTUSyNI4PiyPkc4Ht5yPRcD0xaNzW8nJ9a5x8zg2iTZ8MxEnzRVV7kANzrWeoPQ3phDgeC3ocO4Kr1BLF+2I2rFr/V5ttV1VyHRO91shmqaC1MZWWCrk7eaW2SnwwewA6CGtHPDV8WVXxMMPHyk1p0N1Bpmdo6uOor7VWSD6yMIMIP+zsqtRBKbr78TDJR8pQYHoZhrX9n1dwulfcHxj6sZCA0u+nV2+q+MOx/JdU6+nvG7/XvIdT4oJGzx4vQRCzY8x7SC3rpoD1VBaQOHOc0nvyDyqyRBzzUTRPDM10OyDQm32S32fH7rY57PSUtJTthp6LqYRE+ONgAb4b+l4AHq1aBsR1Kumo223HqfKC9uUYVJPhmQxPPL4q+3u8Eh593OiELz+byqCUladc6Ib98903fzDj2ttlizazA8CNl4pOYa+JnuXyM+/d69g1BWqIiAiIgIiICIiAiIgIiICIiAiIgIiICIiAiIgIiICIiAuFby9Zrvo5otVnCmPqM7zGrhxTD6SI/ey3WsPhxvYOeeY2l0nPpyxoPqu6qQcOeNz29m9Z+8/M4Dt8ZLjtk79UNZlFQ0fOzjuQTTx8R9x2cY3NKDu+3bRm0bf8ARrF9KLQ9kxstGBXVYHesrnkvqZySOT1yueRz3Dekey6OiICIiAiIgKVfiA2u4YvhuE7mMdpJJrvork9NfJmxjl81onc2nuEA/J7HRknn8MZVVLC5piVmz7D75g+RU4nteQW6otlbHwPNDNG6N47+/DjwgyFqulvvdro71aauOqobhTx1VNPGeWyxPaHMePyLSD/depTH8PnLLzU6H1GkGY1HiZTo5eqzBbnyCC+OlfxSyNB5+7MBja08kHwyQqcQEREBERAREQEREBERAREQEREBERAREQEREBERAREQcU3g621mhOh13yTHYjU5depYsdxOiYA6SqvFWTHThrSR1dHmlI9xER7rLbX9EqTb5ohjWmbJhU3GkpzVXqtLi51bc5z4lVMXHku5kc4Akk9LWj2XGKQf/J3fDPcD+8YDtyjdSwe8VbltS37x3t1fKxgN7glkjeR2eq8QEREBERAREQEREElyf/RvxCmSfwMc3CY10H+WMZDaW9if5QX0juPYue73PrWimX4guHXm46FM1Ww6AvyrR+8Ued2kt5Bc2jfzUxuI79BpzK5w7g+GAQu/YNmFm1CwuxZ3js4mteQ22mulG/kHmGaNsjeePfhw5/PlBnEREBERAREQEREBERAREQEREBERAREQERY+75Fj+Pxtmv18t9tjd+F1XVMhB/QuIQZBFibPlmK5C4ssGS2q5uaOSKOtjmIH/AlZZAXIt1mtzdv+h+QZ9Rw/NX1zGWvHaIN631l2qD4dNG1vB6uHnrLfdrHLrqkG6E7nd8NHY2g1GA7c42XGsPHMVbllS37hnpw75aMF/IPLJAQRw5B1/ahoi7QHQ+w4NcZvmshnD7vktaX9b6u71J8Spkc/k9fDiIw73bG1dfREBERAREQEREBERB5rnbaG8W6qtF0pY6miroH01RDIOWyxPaWvaR9CCR/dS5sAudbiWLZ3tgyCrfLdtFsoqbRTGQ8yS2Wpc6ot8x9/Mx0gA9msb/arFJWpgOiG/HTzU+MmHH9aLRLgd747Rtu1ORNb5nfV8g+4b39GnsgrVERARYW65thlin+VvmXWW3TD/Lq6+KF3/TnAr3Wy72m9U/zdnulJXwc8eLTTtlZ/20kIPYiIgIiICIiAiIgIiICIiAuS7gNy+nW3i00TsldW3fJL44wY/i9ohNTdLxP6BkMLe/TyQC88NHPHckNOU3Ba241t60pvOqGTRS1TbexsNDb4P41xrpT0QU0Y7kue8gcgHhoc7jhpXLtq23a/2O4VW4/X94vOs2ZwiWqfM3mLG6J45jtdG08iNrGnpe4d3HqHJHLnhrFHpdvM3JcXnWbVKo0QxCrHVDh+DzNdenQuA4FXdHA+HJxyC2Jpb37tBHC2Gy/Db2f26Q1t70zqMpucnee5ZDeq2uqJz9X9UoZz+jQqdRBNF6+G/syvLA6LRiltNVGeqGrtNzrKKaF3s5pjlA5H5gha5V7ct0ug3/mNsmv9yzO0U3mfg+pM3z0czOQTHTXEBssBA6gxp4ZyR1OPCrpEEeXj4i2GWfSPNrhlOLXHDNXMQoeiTAby0/NzV8rmw0xpnAD5qndLJH95GOQwlxaAWk9V2daJV2hmh9rsmTSGpzHIJpcky2tfwZKm8VZEk5e4AdRZ5Y+fcR8+68O7Lanju47GqK7W2WCx6j4lKy44jkjYWukpKuJ4kjil5BEkDntHLXAhp8wHPIOS2pa+1Ou+n1S7K7QbFn2IVz8fzKyvHS6jucXZzmDn+FIPOw9x3c3k9JKDtSIiAiIgIiICIiAiIgLgG+rTK56mbbMk+zPW3J8RdDl+PSxjmSK4W93jN6P6nRiWMfnIu/qc93WtGZY2zHdA9EuiXVXVCSSjtUzmB8dkt7R+9XSYcHhsbCegEd3AkB3QWkNNk+IBb84xrEbBt1wabUnVHK7LSXOex0cvh0GPeNG1z3XKqPlhDHOI6Oep3A7t6mk/ak2ha1axtF33Z7k8jrW1HD3Yhgc7rNZKcEd4nyAeNVNHfzP6XfmQF2HbXtr042u6cUun2n1A0vIbLdbrKwCqulUBwZpSPbuQ1gPSxvYe5PV0E3Wj4c2yyzU4gg0HtFSf5pa6sq6qR59yXSyuPJWNu3w2dqsk5umEYzf9PryB93dsSyKsoamL6FodI+MEf7FUaII9rqLevtXDrvb7/JuK07pR1VNvrYW02WUEI45dDKwFtdwOokOHiOPAAaO4oPRTXXTPcDhzM20yv7a+kbJ8vWU0rPCq7fUgcup6mE+aKQfQ9j6tJBBO/qRNzGk+Q6HZhPvR29W2Vt6trRJqDi9IOmDKrQ08zTdA7CrhbzI2QDkgEnk8teFdote09z3GNUcHseomGXAVtkyGiir6KbjgmN454cP5XtPLXNPcOBB7hEGwoiICIiAiIgIiIJH1LpGa977sK0trQKjFNFrL9u7rTuAMVRe6h/hW+N47+aJnM7fT1cFXClTao0XbdHupyyp81XJk9lswcfVsFHb+lgH0HnKqtAXP8C180i1QzTK9PcBzOnvN+wiSOG+08FPMGUj3lwa0TOYIpDyx4PhudwWkHgrDbkdKtSNZcKpMG091YrdPoquub+27nQR9VZLb+hwfBCRwWPcS3zBzeBz6/hMa/DDwaz6Z7m9y2n+Py1Utux+toKCmkqpPEmexk9WA57uBy4+pPAQWBrbu+267c71b8e1l1Fbj9xulMaykgFqrasyQh3SXE00Mgb5gRw4gnhZbQ/cpopuPoLpdNGM0+0VNZpo6euf+zquk8KR7S5o4qYoy7kA92ghQVuc083M53viyHPcF2nUGptlsOOQ2W1RZpQw/sKR3Ae+oYKmSKOdzXvlADXh3J59AFRHw+dZ8E1GsuY4hRaD4xpJnmJXBlJlVjsNrhooJpPM1kwbG0Hjlj28OLiOOznA8oK6Uj5/SM0H35YNqNbAKfH9drdNiORRsAEZvFGwS2+pd9ZHs5gHf0Du3dVwpU+Im0UOm+m2XQ+WsxjVXGLnSvH4g8TujIB+hEh5CCq0REBERAREQEREBERAUj7QKRmsetGsO7S7AVDa+9S4JiDngEU9ktzg2SSI+zZ5+Xnv+JjvTlU5nN2nsOE5BfKU8TW61VdXGf6o4XOH/ALC4X8Oi0U9l2WaXU9OB+822eukd7uknq5pXEn3PLygpBERBMF3+JlsisV1rbJdda/ArbfUSUtTF9m7u7oljcWvby2lIPBBHIJH0XVdENx+jG461XO96MZl9oaKz1DKWtl/Z1XSeFK5vU1vFTFGXcjvy0EKX/iC2LQDRjSxtPhu3LTKt1J1HuQsdgccQt75/mpz95UlxhJL29XYn+d7eSu8bO9seN7WNGrbg1tijlvdYxlbkNeB3q64tHV+jGfgaPoPqSUHcl/MkbJWOilY17Hgtc1w5BB9QQv6RBD+3/UbDtoWo+ru2zOLuLZi1lvlPkeFdYHTHbbox8z6WMduGQzRvb+rndyilP419ubbtc8Ev9HI6Ge4YoaWYxuLS8Q1czmk8ev8AGcEQfsYiIgIiICIiAiIglHQaQYTvm3Eae1nk+1dHYM2tTT2MkPgGmqn8e4E/SOVVykvehQXfSHOdPd6OM0E9XHp/M+x5pS07S6SpxqscGySdIBLjTyu8UAcDlxJPDSqmsV8s+T2SgyPH7jBcLXdKaOso6uB/VHPBI0OY9p9wWkEfqg9yh7ZLp5n+KbudzmS5Tg2QWe0X+700tpuFwtk9PTXBgnqiXQSvaGygBzTywns4fVXCiCC9W8x3u7Y9x+T59i2nWVa4aYZdAwW2yUVZM91kn7csbHHHK6IB3V5vCLXMcB1AtW27BdDNWMZyHUzcXrlj8eOZZqrcmVLbEx4c6hpGOc5okAJ6XEv46T5gGjngkgWOiApR33SDKbxoJozSeesy/VC2V80Q7k263NdPVuA/pDoyqtc5rGl73BrWjkkngAKP9Cqw7n92GT7moSZsB03pJsHwSb/Lr6x55uVxj5HdvfwWuBLXMP1aQAsFERAREQEREBERAREQeO82unvlnrrLV8+BcKaWll4/0PaWn/0VNPw2rvPNtTseF3Pht5wC63bE7tH/APyqaaskIYR7ERSRf9qolHttrhtY3sXa03d3yunm4p7K+21Lu0NDlkLQyaBx44aaphDwSeXP6WgdjwFhIiIIh1l09z7U/wCJPpRV3HBsglwHAbHLdGXg22Z1sNweJXeGZ+jwg8ObAeOrnlo/vbyIgIi1PVbU7E9GtO79qdnFe2ks2P0b6uofz5nkdmRMHu97y1jR7ucAg/ML4mOmud7mN0T8S01oDXjTjGLbTXRrQXGKprZKmdoPHpzE2IorT2Laf5ZbMAv+t2plE6lzjWa8Pyy50z+eqho3jigo+4B4igIIBHLfELT3CIKWREQEREBERAREQea5W233m3VVou1FDWUNdA+mqaedgfHNE9pa9jmns5paSCD6gqK7TdMz+HZf5scySlu2TbbbnVPmtV3gjfVVmCySP5NNUtby+SiLnHpeAS3n3ceH26vlVUtNXU01FW08VRT1EbopoZWB7JGOHDmuaexBBIIPqgxuKZbi+dY/RZXhmQUF7s9xjE1LXUM7ZoZWH3a5pI/UeoPY91l1K9+2I2vFL/V5rtU1WyHRO9VrzNU2+1MZW4/VydvNLbZT4YPYAdBDWjnhq1bL9Ut/2h8EbM1/wNzKjcPua2L9qW+slA95GNY6Jp/JvZBaK89xuNvtFDUXS7V1PRUVLG6aeoqJWxxRMaOS573EBoA9STwosw7XrfdrPM62YBYdDcccWkyVVxqrtVvjb7ljGxtaXfQO7LaYdkGTap11PeN3+veQ6nRQSNnjxa3xCzY8x7SC3rp4D1VBaQOHOc0+vIPKDXc/1azbe9d6vQ/bJcK21aZCR1Jm+pjIjHHPB6S261Fw+9keOWulHlDT/pIL60wDA8V0vwuzafYRaYrbYrDSMo6Kmj9GRt9yfVznHlznHu5ziT3JXvx7HbBiNkosaxay0NotNuiEFJQ0NO2CCnjHo1jGANaPyAWRQEREBERAREQEREBERAXPtd9E8O3B6aXTTPNWSspa4Nmpa2nIbU26sj7w1UDv5ZGO7j6guaeziF0FEEi6S7mcv0TyKj2870KplrvrHilxjP5GlloyqnHZhkmPlgqwOA9ryAT35BLeuuGPZIxskbw5rgC1wPIIPuFr+f6d4Nqpi9VheouK23IbJW8eNRV8AljLh+F7ee7Xj1D2kOB7ggqa6fZ5rPovyNpm5a7WCyMPMOHZlTftu0wt9o4JXHx6aMcDs3qPc90FbIoayrc5vc0tr3WDOsM0Ru1bEegz2u43aCNx+vTJE4j/ALWexnJviE64W41WP5Rorp5aHnpdXUVHcLrcYifdsdQ1sDuPzCCm9TdVdPNG8Tqs41Oy234/ZaMeeoq5OC93syNg5dI8+zGAuPsFLWM4zn++vP7PqhqfjdwxXQrFaxlxxTFLjH4dZlNYz+Fca+L+WnbzzHEfxc+7SS7e9P8AYtgNtyym1M1wy+/6z5xSnrprllkgfR0LuQf3Sgb9zAOWhwB6+COQQVSyAiIg/9k=;" vertex="1" parent="1">
                    <mxGeometry x="120" y="70" width="277" height="302" as="geometry"/>
                </mxCell>
                <mxCell id="4" value="&lt;br&gt;&lt;pre style=&quot;border-color: var(--border-tertiary); color: var(--text-secondary); border-width: 0px 0px 0px 2px; border-style: solid; border-image: initial; box-sizing: border-box; overflow-wrap: break-word; --tw-border-spacing-x: 0; --tw-border-spacing-y: 0; --tw-translate-x: 0; --tw-translate-y: 0; --tw-rotate: 0; --tw-skew-x: 0; --tw-skew-y: 0; --tw-scale-x: 1; --tw-scale-y: 1; --tw-pan-x: ; --tw-pan-y: ; --tw-pinch-zoom: ; --tw-scroll-snap-strictness: proximity; --tw-gradient-from-position: ; --tw-gradient-via-position: ; --tw-gradient-to-position: ; --tw-ordinal: ; --tw-slashed-zero: ; --tw-numeric-figure: ; --tw-numeric-spacing: ; --tw-numeric-fraction: ; --tw-ring-inset: ; --tw-ring-offset-width: 0px; --tw-ring-offset-color: #fff; --tw-ring-color: #3b82f680; --tw-ring-offset-shadow: 0 0 #0000; --tw-ring-shadow: 0 0 #0000; --tw-shadow: 0 0 #0000; --tw-shadow-colored: 0 0 #0000; --tw-blur: ; --tw-brightness: ; --tw-contrast: ; --tw-grayscale: ; --tw-hue-rotate: ; --tw-invert: ; --tw-saturate: ; --tw-sepia: ; --tw-drop-shadow: ; --tw-backdrop-blur: ; --tw-backdrop-brightness: ; --tw-backdrop-contrast: ; --tw-backdrop-grayscale: ; --tw-backdrop-hue-rotate: ; --tw-backdrop-invert: ; --tw-backdrop-opacity: ; --tw-backdrop-saturate: ; --tw-backdrop-sepia: ; font-family: Menlo, sans-serif; font-size: 0.875rem; margin-top: 1rem; margin-bottom: 1rem; overflow: visible; line-height: 1.25rem; padding-left: 1rem; text-align: start; background-color: rgb(15, 15, 15);&quot;&gt;inorder = [9,3,15,20,7]&lt;/pre&gt;&lt;pre style=&quot;border-color: var(--border-tertiary); color: var(--text-secondary); border-width: 0px 0px 0px 2px; border-style: solid; border-image: initial; box-sizing: border-box; overflow-wrap: break-word; --tw-border-spacing-x: 0; --tw-border-spacing-y: 0; --tw-translate-x: 0; --tw-translate-y: 0; --tw-rotate: 0; --tw-skew-x: 0; --tw-skew-y: 0; --tw-scale-x: 1; --tw-scale-y: 1; --tw-pan-x: ; --tw-pan-y: ; --tw-pinch-zoom: ; --tw-scroll-snap-strictness: proximity; --tw-gradient-from-position: ; --tw-gradient-via-position: ; --tw-gradient-to-position: ; --tw-ordinal: ; --tw-slashed-zero: ; --tw-numeric-figure: ; --tw-numeric-spacing: ; --tw-numeric-fraction: ; --tw-ring-inset: ; --tw-ring-offset-width: 0px; --tw-ring-offset-color: #fff; --tw-ring-color: #3b82f680; --tw-ring-offset-shadow: 0 0 #0000; --tw-ring-shadow: 0 0 #0000; --tw-shadow: 0 0 #0000; --tw-shadow-colored: 0 0 #0000; --tw-blur: ; --tw-brightness: ; --tw-contrast: ; --tw-grayscale: ; --tw-hue-rotate: ; --tw-invert: ; --tw-saturate: ; --tw-sepia: ; --tw-drop-shadow: ; --tw-backdrop-blur: ; --tw-backdrop-brightness: ; --tw-backdrop-contrast: ; --tw-backdrop-grayscale: ; --tw-backdrop-hue-rotate: ; --tw-backdrop-invert: ; --tw-backdrop-opacity: ; --tw-backdrop-saturate: ; --tw-backdrop-sepia: ; font-family: Menlo, sans-serif; font-size: 0.875rem; margin-top: 1rem; margin-bottom: 1rem; overflow: visible; line-height: 1.25rem; padding-left: 1rem; text-align: start; background-color: rgb(15, 15, 15);&quot;&gt;preorder = [3,9,20,15,7]&lt;/pre&gt;" style="text;html=1;align=center;verticalAlign=middle;resizable=0;points=[];autosize=1;strokeColor=none;fillColor=none;" vertex="1" parent="1">
                    <mxGeometry x="630" width="190" height="120" as="geometry"/>
                </mxCell>
                <mxCell id="5" value="l n r" style="text;html=1;align=center;verticalAlign=middle;resizable=0;points=[];autosize=1;strokeColor=none;fillColor=none;" vertex="1" parent="1">
                    <mxGeometry x="820" y="35" width="40" height="30" as="geometry"/>
                </mxCell>
                <mxCell id="6" value="n l r" style="text;html=1;align=center;verticalAlign=middle;resizable=0;points=[];autosize=1;strokeColor=none;fillColor=none;" vertex="1" parent="1">
                    <mxGeometry x="820" y="70" width="40" height="30" as="geometry"/>
                </mxCell>
                <mxCell id="7" value="" style="shape=stencil(lVnLchs5DPwaXVEkAb7O2eQ/UhVnrYpjpxwnu/n79KyK4yEotTc3SQOIBNFoNDgnfff9/uO3u1MK31+en77c/XP+9HJ/0r9OKZ0f7++ezy/4dNL3J333+en57u/npx+Pny7fv33cLLdPX59+bv/w78UvZdG8eaXw6/JLkKT//fDhYv9wfjzYKx73yV5FG7FXsTTZY0Ej9kXKvJ9K/9+CRJvsu1Syf1Np835iklSIQ5U8LxBNar/tkKOPOCKEShzyeDwckINAzij3xSHRLRUkoc0OWTLZUqlS4uzQRMkp1Shl3pJGiZE4YANldlCpiTgg6PlYAZVEHFqSFmaHJplAo2Xp85YArkyOtTWpc9AGLBGw9jigtjsgaJLprj7TZtLJlnqR6lYo0jJxWI7VmhSS6RgAzvlcgfjOot4reHfIo2ivO+DxzDG5DDxed0hic43mRldoXaLODqANsgKw4SqoREobLXqeKWn8ch3fzRNZMVGS6mpic6pLkcBWCFJdDFVqoCwQXQx9HPQtnomOvKMoWQFpqnOmKxBPajSbbz8gEiP4tj5YZXeolPpsAR+Yp5BjBUmU+ViR+0KCBm+5FZpKJjGASotzyDQP6JllDrrVkZnrDibBxdAoNNCh+twgOhoxOVb0wDYzGciQ1TS6bHcOSuG99XGnBIz23S5tPlXwTiHYq9Jn3gPZNpZnSS6ATnGRPFJh3wivJonzfg7UfP2EPGFggU5gFMbyB3vWooNY9PZKUBeGQtjt2wDJDXvXeGDPtGTwB4RO1AjksP/FnpERzsedZ5FO4o2+S23dmpxn8kUJe9aa02hhx/9n2tyrEcQbGA95ooO9kXyp9OTtO7efuwfym0m+1Pcz4C2w2UVMvb3RAvP77xQ/SXTBPxNGi2Z+0z4s9cvxnPMSL1EUwfel7TxpfYWlfjPlh+DwX2m8YYjpI96ovWuTG55JvfypvS58mCWResE84fAG9cJE5sKHSmeoGEa/OvRURuhRh1Y6dO3CEFd8y2id9tS4t7iDkGCcshWZcygjLdcdyuCEgxhiWdB9iDvKLUaL2eO0Rbol7ZLnGCpvlLYwHUQpdWj+TgGyl4nSvHAXhDWTjLn6eyBId3YRVKLPNIYDVj0l+1PCfBFIHvB/0Q04eUi86wJtmfhfLz6uOxTfkREVy0NbKKwEKkpfoXaYTJVxQPGyd5t9+Sjrbi0wXbOKAwm5QRNgYbQNFeF4OO/K59YKbvzAFGZsfo8efFYlESWLoF09YGxjrRDzj0ucGV/BfDO3RMUgOMKNH8YnIpR8m9lbuTzFwO/6P5iKYQkDvxvHNfGBv3jFiSGJKTaUiyMyTEmRXY5WX6IYPY0RmY4z2R0ijQFQa+6+tlOaAXJcB0LXY/eEAIK7FonGdcN+d7o7RMreasuoOW7p/ucFQaXcDaXhlHymwmRT/u7CmV6vrUqb65JtEnE547cP6q/v4ljwpr1L8Vv7d52HE962/+7s6aSvQ4e/2jNVtU06/iVNZIPLwhSBAjTtN40He7Z/G+9YDvYMP/nKfpjG+8OXUm/b48PrG7DP54eHywu043P/xgw/Xd626fvf);lineShape=1;" vertex="1" parent="1">
                    <mxGeometry x="853.6871080354045" y="52.78349272449017" width="18.051783515329745" height="21.41728883503108" as="geometry"/>
                </mxCell>
                <mxCell id="8" value="" style="shape=stencil(rVfLbhsxDPwaXwlJlEjpnKb/ESBOYzSNAyd9/X25NbSxKO8EBXqzdzlLasghqR3fvD7evex3Kby+nY5f9z8P92+PO/60S+nw/Lg/Hd7s145vd3zzcDztv5yO35/vz/9f7hbL5de344/lC7/OOGaSsKBS+H1+UqjJ3wefz/ZPh+cL+1RJ42AfM2UEKFR1AKRAQQEgkcoIKKR1GxBbf90BHCkDD1GojB5YKWYAYCojSTkRo5ACtTQClBJgyQDCYxqYNABApZwHgATiAmgV4tGDFOK4DWArhDFxakECQBaqY2mofYK3AaVSGj1U4w14kOaLtRaYaW0Ux5BqJWnbAHsdxsS1SAIy3cSXRuNO9HWA9gAuAAWE1ExxY+JapggO3doUUqEAaskAzXmQTsMmYEycnSpiD+JorRQRS7UXwgpoOCT1ilt8Aj3YEbV4QEOZLlR4AiAPmVg9AGaaKU8sIT20NJ2h4kwnyg4gsN0boIxtxmioiCWeBJQ/AtSpvNF8WL43CwjVkhXzBPhAohw9ALUZYz1PgAYGihVCqv7QqN0bwLNUSNCMC6FXwkWqFcfkxqjxUHFM0QFqr8ctmtIkCMirdZVZo0gQxXeyCx7+E2IZOeJ5yoBYFRIHyD3918ecTBUe8CAtfblYx5zgUc2URg81Qg+2UdXRgyoFtG5EXxyaKIEGHqPfE8WyD7pl7uvOah/hIhqojBoteP+Z9JNrj/D6iTsfqz3DeLKfoVyJgf06MFd762JoQ4yeoKQwx7bIu15vZ4ogx1F7Q1m1I3C7Mk51LDsLEhXFTJINMHAEuymU0T72B5tL8RhQ6HV+3V772v9uz0D6lrSszh6qZtqTcC/i4DMQoGZMxurPK4B/Tn35feczgfiXkhztTRWAT7OvruSoofhtNXAigDubfb85UeLv/+Nt+GN7+/F+9X44PD2db+6X7/1V3R6dr/l8+wc=);lineShape=1;" vertex="1" parent="1">
                    <mxGeometry x="852.6057698816437" y="69.89511271727375" width="7.499717566810087" height="8.486053051507348" as="geometry"/>
                </mxCell>
                <mxCell id="9" value="" style="shape=stencil(7VjLbhsxDPwaXwmK1POcpv8RIE5t1LUDx+nj70vX0NbieqfIITn1tl5rJHL4Gu1K7142D8/rlfDL6Xj4uv6xfTxtVvppJbLdb9bH7cmeVnq/0runw3H95Xh43T9efj8/nFeen74dvp93+HnB5UghnlHCvy5vRIj5z5vPF8Buu78GVNI2ALRSCsuAohTLAIiFGgBUpZIGQE5UAKApSR4ANdD55yKg9f0mQKOYlgGBuZPSES1QBohmpIw2mZWlAUCiOPJqb0oBAKY20tRKZ/o2r4lk9NqMRCaVStkBGnS6BEo6AK6Iu51NkbT6IyoIXSqUigcEBYDQs/OKppaXATFTGiuiZVLAa5S+3wSIFCsA8Awg8AQNxKNJxWgAgZDs0zWb0yAOwr0kOyCZ04ClkCi7qo5UwAkW1nG9CmVwgOWNy25qgCL21VOIQQiUmozW9zxcML6NuwsFRE4lHp1lWDdmrLJbj6pGMxVx6wUUckykY/4EmKBJSFywKAJ/LVfKWMUZ2p+qr/pKFfBj+zfXVwKcCOaA674hkqCStF7rGMqQUi0URopC6c1vKcZlBqg4iRJ7gCAAk44lY0WK+nvsSTytV8ogbExprAI7sYFePZuZVhaIoZ5jUwsiicvLi5/hQhXsHmbTz5oqYPPMzsgmUwApp8adr0lG5Mt8fQPrE3v7pTeB2+sTperoRPZbTQbfQSuy543rbQCVMbzWVZG+KZHq6EAMXfHc1jeh58vkMc7nam13bCsmRyqSXNLb5uSzTfoPEJqgDP4LzfcTmjPABwhNNKTeX2i2rsmu8jUhHTWbIcW8ArSaMshj5BKuCGtzLvusE6IxElp3ceob3O+4twHBS1OZbqBLAGeSzZIKeqvNVRdpM7IhH3KX9xOgkqDZyd2AK/1SkeDPXqIGfMk2uc7qAQxY0uq7q2mwCuJgFwjXBeyEgGQk+4ozAIqDzcRcPUsoDpabVX0cFE056ZegKTUs+UA9vP37y78B9vD3c8/Tdre7fC26/t9/HrJXl09Lev8b);lineShape=1;" vertex="1" parent="1">
                    <mxGeometry x="856.7565431541194" y="51.997283751748824" width="1.3892633667060652" height="4.545642973232079" as="geometry"/>
                </mxCell>
                <mxCell id="10" value="" style="shape=stencil(lVbZbhsxDPyafSUkUQf5nOM/AsSpF3XswHF6/H3pLuRYdHeKvGm1HIkcDilOfPe+fXrbTCm8n46H75uf8/NpO/H9lNK8326O88lWEz9MfPdyOG6+HQ8f++fl++3pbHlevR5+nE/4teCEcjmDUvi9bARq/HfjcTHfzfsrc85UwmCfEuW6Dijcf3cAC4W8DmiRdLzBjqiyDtBKzAOgMYUCAI10dKkVyiBoVYo6AoQ0QYDIABCmiFxS75I0HLR2jztAE6RVxbOkhVqDtMqYBzsiI0AmbSPAaEAAS1O9ASBaI6XiXWIAEKWWfdAFsCTSWb8AIjUgbwM4aVjiGCTOABxHQCIB0rAYwhiDia8ClzQQj4kzeSckb6u4kdaWSJGWmIQ9IEQAKL2pXAEKLlHXNdql8azJ27vUMEsmDZeHSFXXATEECiOvUikifStVVxCBKq7R5vSdqaKCMK05QKOGaCpUXVErFUQTd1I64IqHNTW5TFhYilrZVwHV+lC6yTVIXb7prpUpgRs4eL3myxPw7xuIR5aS0QousPpy9gILyJqQsy8w4kAyBmw3ojYWfGON2iNasXelEPFjEiiOGYup76zYV1ecsHAi5bFF4i6fuuQvIwlUNPuBJMKyL73/f05U6OmvpOzMkTNfnNf+a26Lz9HwZd7tlsny+r8fJW1rGUP54Q8=);lineShape=1;" vertex="1" parent="1">
                    <mxGeometry x="858.9770487922292" y="51.25440426024157" width="4.577403684011658" height="1.933514640173669" as="geometry"/>
                </mxCell>
                <mxCell id="11" value="" style="shape=stencil(lVfZchpBDPwaXlWjufXsOP/hKuNAhYALk+vvow01ayTYpnhbD2rravVoVunpY/Pyvl7F8HE6Hr6vf29fT5tV+rKKcbvfrI/bk36t0vMqPb0djutvx8PP/ev57/eXyXL6+nH4Nf2HP2ccUwkTKIa/54NAQf4ffD2b77b7C3OhaM2FGi+bc6NejD0LlbgMiJlSN4BYKeZlQIqUowGkTBlkkJkyG0BOI8ibgBKoJQMokSrwUITEAmqglJYBtVO1VaoV5tAqFTGApn0EVeqJsvXQClUAEKVBtQChBBonhaJtXA/UGwB0as0DagUAIXYAhtRQQLF96JFah4Bu2d0LcYAAsVXqjQR44KB1dQPEeODUhQNkYkAmBVTbCKmj0kuAZJOYWoPq2keOM0ALh0LqVJoHCCJTJ77yEIDOiOpMtoBGjMraqLIvawUqoIDsQmJM1zZGeOZGH3xcDMnRtYwxX0zaeUjEKIdO0XngoQtLAB9SgNI3tSl7gOAZdWqsM8qYrc3qfc8UsWyIA9SHZ1RPUJnUhVVXudMITcKNXBlKslgmx75+r0zs+C1jCBfl2CZ9UYdFBD+GKGMmL7LIIKgunuGqZQI86ADE5juB7gi9SbOTfIGF1bs6u5HIsNflSo9bpwB0QPeNbGeoBTileb5B5vWB4VamOxPbpHWjQeuDbmVuG8gZapnufW6tTH0Q8nbj/M0bO14sfQY868JNe93hxNsH0OYwttTZXsUWiIYueC4eXVthPGxZxKpiIN8wKDPbM9TVawmjAig069tMuXEBL0VvpyyTwGK6BSNBOdUrxtUSci2Mxny+YNDuzF6DsGY9+D66a64fn0+xt+1ud37JXf7un256dH72ped/);lineShape=1;" vertex="1" parent="1">
                    <mxGeometry x="871.9372510221084" y="62.89052934555876" width="18.78117671435089" height="2.454614158440473" as="geometry"/>
                </mxCell>
                <mxCell id="12" value="" style="shape=stencil(lVfLjtswDPwaXwmJelHn7fY/FthsEzRNFtn09fdlGsgN6XiC3mxZY3FIDklN6elj+/K+mTh8nE/Hr5ufu9fzdkqfJubdYbs57c76NKXnKT29HU+bL6fj98Pr9f395bLz8vTt+OPyh19XXKcaLyAOv68LgVr6u/D5un2/O9xs50YxmP0xUi7rgCQUxAIalbAOyEKSDIATZVkHlE65WoCuAA61U7EmpUIBcGhCtRtADsTghM4UswXIOPMuIIZAwfq1qOM6OKJSt6xbogIAUqlav0ogaYB1pmJJSCMGgBKpW0Dvww/3Q92JrV9v/HAfUak0f0SrAJApOJtkpMt9gJKwNqmnOQJAoMoWkKCbFBAsB+nDcWuAbDUqsxvWOBTLQTQ3EIf58wyIw8j7gOJD3VRUQBGa/3UBCACgyZSSB1QESKNw3XCA6Vp8LqmXGio0qiDxcRAgOQV4QQRsUqVk46C5hOpGySS2Cmi2ZnQCUyteD9CtarEtTKo4QZFuvhwroGOJyqJswCLAvmf1Buu3CshrOg9HrwGi4/BADwsvaa2sWKLRKS7DwClpcSfEsbIm0WBJq4A6ClzxnfoBoCoHd4Ku8DpAO4rrozWPsnC/Z2lqRA+AnZpHS5vbaKEEvKT/i7ZqaFMSkBqqODcAafHsgPSltlqTUqMGIp3Yd/YUYRFg9rnEShqZNCrv3HYrHGfYd7hYKKJpZkyE8/4Eh0rtoIuZsoP/h8UMGmAvWcxW7cHv3VSizQ7EK4yvc0IM81ac063KGE638ywxcyWGoW12e6AEbNd+0912VHnFD1MB6v0/7xYPt+vDv2vM226/v96Cbr/7a48uXa9M6fkP);lineShape=1;" vertex="1" parent="1">
                    <mxGeometry x="888.2182419134147" y="62.619148062948426" width="5.120395073163466" height="4.115971913507655" as="geometry"/>
                </mxCell>
                <mxCell id="13" value="&lt;font style=&quot;font-size: 6px;&quot;&gt;so root node sabse pehle&amp;nbsp;&lt;br&gt;preorder me dikhega&amp;nbsp;&lt;br&gt;&lt;br&gt;&lt;/font&gt;" style="text;html=1;align=center;verticalAlign=middle;resizable=0;points=[];autosize=1;strokeColor=none;fillColor=none;" vertex="1" parent="1">
                    <mxGeometry x="888.22" y="40" width="90" height="60" as="geometry"/>
                </mxCell>
                <mxCell id="16" value="" style="shape=stencil(lZ3Z0tzGDYWfRres3pdrx3kPV1mOVFEsl6xsbx90/uLM8ID8qP9OS4PT7EajD4AD8EP+6c9Pv/zx8UMKf37/9vXvH//9+dfvnz7kv3xI6fPvnz5++/zd/vQh//wh//Tb128f//bt6z9///Xt73/8skauP/3j67/WE/7zJpfLlvOSSuG/b/8Swxb7///lr28CXz7//iqQtjkOAnObBcbHbXQZP2h82GqV8X1ej7f/Dkmfn2F833LU+VcYX7cy3QLRD+StBxXIsKIpbaGqQCMBt0Qx7otwKhDnPoEXgdJAYGx5qgDtcuxbPWpFTFuJINC2OVVgwEubQD3uc8xbpndoWwwqMAYI1K3JO5St0JTqltpRoO6/eS5QdlV+ERi0SmVLImDLAMq3XrEcBfr+iCsB3emB6m3bNKsKTFrWtNXjgTN1xJ2283DUVlP4TgJxa8eXTnHrtKxxS8cp2RlsJGATOKqGnfJKJ86O/HGVEuvSVCtpdifDqs6tHM12alsCM2ZW8ngYzA6Sqg49zzZ+gB4Nt6L2BBhvTzseHZthhgXtqkR2T0TYsa6H38aTmW9bP1qXdW/BfJrur92LdJKr3po57ytwMb4d9cEu6onjkzy/7cbpdLw9TdbTVhj0s+iVk8c2YD3NcB31s4QtgD7kXbse4yPqgx2/45Evdt8QrHDzyXgek5tP2TXwYnyT51e8/9J+dz3GN7TTaYvyvp3NtNqTMrZAF7ib/0B9M/xwPF/FYBRdfVs86me184jzD0f9rBHnE3ZtfIxPO8C4GN+P61nLjsIuxrfjftWK62/jj/ak2v7C+tv443rWjqDRjx+on2G3xo/xc9/xHxvfbMXeNT7ifRFU31pGe/749cf4gvdj2LXxMb7uIOFK32T+jQGvuk1t7H7F1fk66lszt4bcDtX/HvF+N+t31LeedjR7MV6QaC/oQtjuyPMrzifvu/MYbzcm2ud2PL+978D0Yvw8rn8fu0W6uo9kPRlvmLU/6s8I+xMuxo/j+oyI+myrF3T8hPNed3z6GJ/QjW5bONqrkfH8NsV7o+wW5gpfyfvWXQMvxsv+DraH5oQ0HU/ncSheGh3x59yizGfgfKaeXxtP+PAZRXkITFTo5WJEFZj0C2YQJLAS+BceLvyLAP5C0inNyF5PVpQ+E56C5WAHFWj0DlXd1WmWhnBHU0NkAghUuiKzaZMES7diJVUF0CGeGjaYdffmruI94hCbAIHvhYbkFxpaL389mUClX0hu4xre9/4CmWZCWEAQnQmQ8i2TPVWAXLKnh/0QGOgTLxc7q0CmVepbcL9AVskEZlKBTtf42FHEiwDhajNkukoTga/5zbpKE5GvOc660xN32gS6mxJpa3YRpSVA4CW7mO+NQFF3615Ao+JzV5ZzgbpHqV9XieLubY+BvW4cLWvXkMZkly4PDXIt5aNfmO4dBgcRgkYnJ6PmEk9+IZBActmGvntu5wIuYDo7T6moJ2KWj5a1OOhmAuSKlKbRehPIoEulu/uh4Zk2AX2Hijtdxg7eXwRwpx+q9nrHET6fCuDmI6R1DoiDRkBNgMxMjXtA5lUA9qEmjTHdCWRnjOsOY88FqkZllwC9dHOY7+alu2avlgD5GcMhgbpr17nA1EjKgj9gKltQV8MEKFrfort2C2avTKA7CEfL2tLuC76ARIz+pt1Ze4WhNKXspnTjvxWnfAmNQKvOakSEDq3tN9qLALn0zZuZsKc6rwR0lTgI3MynEq947n74uYBDM8sto7RD0LjN8vtAvXvURII5lpQq6i7yap4rpR37w+N5EQgkkJ2vXtF37UWNwODgWXe6NDKmHbvTpZHwjut9j0a/xD86CwgSGAHz/H1oBLYzUWEFhJoKUMjcJiDovrP/YALdBbkinDhbk+KiaHSx26pLWKmzMTYBcThMu8hqmCJI4LZz6nSp2nGn7YSQ8pkySyi2B7yBhsutmR2ptHFN7dIK9tLGDY3GNo5+mtkSq9E4X2yGUWICLWJ83mx1kYTHxBM3k7IbFjYggawh9JXyoBRzUUrHTQ7GkIUEpAzUkfU2WCsHyHAm3aKG5YtLs3Xah6FcnJX3o7z9eGci0gQ0MxdYNaaeh+WowYl7ep4PAfZQTEAuxczqbQICpc3DpmjxEpB0fMI7bjpjnAPapemCaivSQRvnjmjiDMLaOPmFjmGKpRpH27pYAHSmh+50KvsldqXekpVfeW4+QJL2X4kmeum2uxcPgYD+9HLzhIA0Ebc+wf9DwJaBBLJjjjVEAguaH/chVhZI6gPFB13iyhjLDWQCgVbJpQ9jxnCR3Q+SP1n8OviFMR1NKyJYX1eWvENAq2GXohxRE8BL0fuiaPiGz0kxNKkuR4M2xpCJEDU7UjaGI3Y2hKwLAsudjt6PoT0JFFVMPIyg9qUgpag7q10w0mVoVs4NQ0MDs0k4QqgPhmVF4xLS/J4Z5+d42i+DvuLFJMQvy6+SI4OUMQO+Xcfj/JMyleN+qK88ySRmCG80g8niLUSEweY8i77F/YBeeed+PLv/ygnGiJ6B8KLrSfvVql8fojAYBBeTyGizJQ1JMg21uYRsQERugF04A3agKVo4FEQxcKxN4XXAYIrB+6rPJ32oRXPoN+OThtpvxkc9jzfjg+aGeXyZ6pkGDHIUZw8DJvNKV/0MSMkx1yTqeMpfFpdz4gu7ZIe08HwVl+ONGOM0P0aBGaLX7JwCpoythJbQvO8yZtHdF5TpLMqpS+hnmc8ThYON98ViFItPg1Hp7DhvN5TV6ccPSmcP1Z+C6/mER098QvZkVdpkHQ/6s9ypJOPJqVwcJJ0PRaJWNj685/nNBUCYE9HUntf9Qr4aL/nWivyd5DLAFakvaz46fySBNNVPpriu9ZEQFOLttf76fApmrv3V9aF4bOpaLMOZq6Wf+nx8366u7YPEdzlen0/O+Rrv9vdmvJ4vtA+O2VQRH671dON5PlH14e486vxxfFPOJ+eglz7rfqG9aspDYUrj6Xnk8+KeT2mbs/lTNvnd44fGFDJGCNJUfJiZ0uvKFDNyNxYPSO/Tm/tXovIJ7a3d70X9TaToNO+vEa/P8EnT8cRlNPwj/kJEf7a4GoeI9srwm/NHqO7O8GFV/Ez+qeHPoc8nfFWaxtYD+oPF2f+A9AvD50nHUxBu4f+o4+G8n/kXFDs9819wfNL9vRl/4n/h+BP/Dse7+z3g+V3+aXrPerqax4B4oLmgKRdim//e1Z+i896K3kcB7dtiXOj7UuanNU0Vsb/ZumbsAvpTbah/F5hX4yhXAUlgPfj5Ewu5R8UbAbOsPWmNBsdzuiPhRORCPTPbPxa/6uXEntP7Vlehjv54b4r3ErKJu8/2YPJzMSDUH6SSsj5dDSxnxd19xLSsZ4XLj+HzkT0+JH0eRfkYDd/3hGjA5IqmnJWOueTh/M2B9sHGS3KOedPDsaUmphfHVH2IfMFPR7FcbSPgjWfUiEhMGOKYjt8bE5ZBzeRi3BzkmFmDarFwAtN3UOAwwSzu2DfO2ro8Ruycj3QEl8gU/MWTECQduPuA40kkLn9flRKCvTNPyRVoPUvszgV8fv4mazs1fbAcUmJiTL1fE5dzmIAYvOUS8S8IgloxPWZiSAj1hicRQ1Ajs6gYtHNTGV+L7MFECQlr5ca0Hreui7DCb60snQdH+FI3jlMyX4eg1HRkQHNeKBY/h9495r0Q2JmurdCiwDMVQ9C4+Qt0/cyq8KtmjNc+69YeAhUBrZm+dFyl2plT5ngPdfIqBQ2BrDJxuhPdnbWY1CTg+FgG0xGVdN2H9qhtvYIBUn3UBpZyL17CcVkNSdOJG86xNihN58EEpFrWsDGZb4NWEspc5d+E9ZLeKJ1rIUZSu7Q4wvQOUaONNxXgw9UR9IH5qe7Md59MgJh6ya0icFhWz5i4qQLvXbHDWjcmWgsHZTF4yQmoCmdGZq+haOXO4PKMXlypOed5zA8TTpkdKXTEkqOjd96HqJm8ha3ZtVV2+UCU2F1JrlkqCu43x0+8Ke82o6L1TZzub849XHCc+ApOlyZz8M2SDqncSWjITEBU477qJfnybq6rkQM08x2pQysKC/9CUtu6GIscpqquMI3iZi24ys6KvZuqM2RP1uVVZE5LQTmVU51dmux7nxamEearVYP3S4BK33wFVUXPb5XvvatqvsaTWjkKgFTfqrJihqBMV2zaMKVpGFJqgya3eSvDVZw37C1QXFJ/VadS1Ly5phBcPFGqC2tw5X+pGmeZnYk8RcMOq/KfljVr5NzwPqVyzb0QZ3QORGQlnlT+4yoF99KT2SG+wnYyvaU76z2xzWhuJwKEKs2R1O4FHJHyVfMv/uyVhIZz7iQe/UF+WCI5OzARPfjE5RKglY2uZ+3NQrnyoMmO1uoP6X4B+02NHbO9agdsdnLZiacbfy7g6CirZoM77063rLRxK57sugUQoFldodyxxk4s2YGygQA/Ob/JTBM29HB+0+QyreTbAHWm4QSn3o27pU6HExv3OhvODlTuvDtO6uCxe7ALrRsou+ntK4G1WZCsEX1Dj4wHKGZnjzPSK6OjL8yEfJbokWhEuxRdAm5yxiu6LoeTU3wxaAplBq720eiMeUEYGnQplMkVs4q9x8DAoKu4Gp2LtU8cSwIOrg3taBiIb66evWKKpqnFW7EjbDunbe0yeqEOig3m8BQN143EnA2lSI+InKisWHKwvmUtCVpFMPh86eXVB2YpsoYBOkPVpHdgZ3juWpCs0nxsA5mOlrcXDGZGdUh6Qg5A1PtvJfnJQGgAoHF3flchv9pqYptPH7wliBA0Sr/agmKbUoGbreDF5FB8y7j+Lntz2zZVx9+1ZVXK813bVx1/11ZW2/Teta3VlH7DSF5wlOGKNXTBUVAL2qugqdhVso7roxT4u/2SGHXlCzWofVghA2wrG1zWCS9sfV/z/7kNs+Q6Vq8pnI8EaVZRC7bZ1nL7G460BtjN90eOtFJcC8cTk4K4km7akGvWL3LrOke5vXEtdT6Zc03FlWx2dMqKS9U2xFcuoGsOOcbUNHKfuQ1tdRSkhDGKpmGWzBytpnmvHDiYq/fj4tjgZwfEoUwTW8J0xXuLgkAcLXVjnm74Bb71n4lATpf7DEVDjpaj0CbuRzY11L00lj0SXdDMgMM1Xl+scLJwUa/sm7LZ56dzHgLMVjABiaNFDryZo5fcN1nIS/KNes1Bxia3nhXV+QtCjhseG5JpVwMEIWdWRMbRNTx7fi3nBz30WPiTCNXVF998xKW6HgrMTnt+nOdFAL+z5Ere4o1L7+L78aYls6PK3HwrKrl+r5HLkhfLNanATWdfcaIntw6uLpaJrBRft8SBcR9k4I4lq65Fv2iWKFLv+24zpshKO5jIusxFecS8Ptm3FsSMz6qL1flgXUtxrTwxCptdB5iJib3sO7Bi34uz8TdZCc2WMkZzICpyIUN2UZJ1YviNReMil8Jk1/Hv7qt+RR2bJcDFVO/8buC9gP3h+ZnC3z5/+fL2lcPX/9fPGto/vX0SMf/8Pw==);lineShape=1;fontSize=6;" vertex="1" parent="1">
                    <mxGeometry x="733.2465111300468" y="77.94948922396073" width="10.757727531718569" height="13.291317167614945" as="geometry"/>
                </mxCell>
                <mxCell id="17" value="root&lt;br&gt;" style="text;html=1;align=center;verticalAlign=middle;resizable=0;points=[];autosize=1;strokeColor=none;fillColor=none;fontSize=6;" vertex="1" parent="1">
                    <mxGeometry x="723.63" y="110" width="30" height="20" as="geometry"/>
                </mxCell>
                <mxCell id="18" value="&lt;br&gt;&lt;pre style=&quot;border-color: var(--border-tertiary); color: var(--text-secondary); border-width: 0px 0px 0px 2px; border-style: solid; border-image: initial; box-sizing: border-box; overflow-wrap: break-word; --tw-border-spacing-x: 0; --tw-border-spacing-y: 0; --tw-translate-x: 0; --tw-translate-y: 0; --tw-rotate: 0; --tw-skew-x: 0; --tw-skew-y: 0; --tw-scale-x: 1; --tw-scale-y: 1; --tw-pan-x: ; --tw-pan-y: ; --tw-pinch-zoom: ; --tw-scroll-snap-strictness: proximity; --tw-gradient-from-position: ; --tw-gradient-via-position: ; --tw-gradient-to-position: ; --tw-ordinal: ; --tw-slashed-zero: ; --tw-numeric-figure: ; --tw-numeric-spacing: ; --tw-numeric-fraction: ; --tw-ring-inset: ; --tw-ring-offset-width: 0px; --tw-ring-offset-color: #fff; --tw-ring-color: #3b82f680; --tw-ring-offset-shadow: 0 0 #0000; --tw-ring-shadow: 0 0 #0000; --tw-shadow: 0 0 #0000; --tw-shadow-colored: 0 0 #0000; --tw-blur: ; --tw-brightness: ; --tw-contrast: ; --tw-grayscale: ; --tw-hue-rotate: ; --tw-invert: ; --tw-saturate: ; --tw-sepia: ; --tw-drop-shadow: ; --tw-backdrop-blur: ; --tw-backdrop-brightness: ; --tw-backdrop-contrast: ; --tw-backdrop-grayscale: ; --tw-backdrop-hue-rotate: ; --tw-backdrop-invert: ; --tw-backdrop-opacity: ; --tw-backdrop-saturate: ; --tw-backdrop-sepia: ; font-family: Menlo, sans-serif; font-size: 0.875rem; margin-top: 1rem; margin-bottom: 1rem; overflow: visible; line-height: 1.25rem; padding-left: 1rem; text-align: start; background-color: rgb(15, 15, 15);&quot;&gt;inorder = [9,3,15,20,7]&lt;/pre&gt;&lt;pre style=&quot;border-color: var(--border-tertiary); color: var(--text-secondary); border-width: 0px 0px 0px 2px; border-style: solid; border-image: initial; box-sizing: border-box; overflow-wrap: break-word; --tw-border-spacing-x: 0; --tw-border-spacing-y: 0; --tw-translate-x: 0; --tw-translate-y: 0; --tw-rotate: 0; --tw-skew-x: 0; --tw-skew-y: 0; --tw-scale-x: 1; --tw-scale-y: 1; --tw-pan-x: ; --tw-pan-y: ; --tw-pinch-zoom: ; --tw-scroll-snap-strictness: proximity; --tw-gradient-from-position: ; --tw-gradient-via-position: ; --tw-gradient-to-position: ; --tw-ordinal: ; --tw-slashed-zero: ; --tw-numeric-figure: ; --tw-numeric-spacing: ; --tw-numeric-fraction: ; --tw-ring-inset: ; --tw-ring-offset-width: 0px; --tw-ring-offset-color: #fff; --tw-ring-color: #3b82f680; --tw-ring-offset-shadow: 0 0 #0000; --tw-ring-shadow: 0 0 #0000; --tw-shadow: 0 0 #0000; --tw-shadow-colored: 0 0 #0000; --tw-blur: ; --tw-brightness: ; --tw-contrast: ; --tw-grayscale: ; --tw-hue-rotate: ; --tw-invert: ; --tw-saturate: ; --tw-sepia: ; --tw-drop-shadow: ; --tw-backdrop-blur: ; --tw-backdrop-brightness: ; --tw-backdrop-contrast: ; --tw-backdrop-grayscale: ; --tw-backdrop-hue-rotate: ; --tw-backdrop-invert: ; --tw-backdrop-opacity: ; --tw-backdrop-saturate: ; --tw-backdrop-sepia: ; font-family: Menlo, sans-serif; font-size: 0.875rem; margin-top: 1rem; margin-bottom: 1rem; overflow: visible; line-height: 1.25rem; padding-left: 1rem; text-align: start; background-color: rgb(15, 15, 15);&quot;&gt;preorder = [3,9,20,15,7]&lt;/pre&gt;" style="text;html=1;align=center;verticalAlign=middle;resizable=0;points=[];autosize=1;strokeColor=none;fillColor=none;" vertex="1" parent="1">
                    <mxGeometry x="1000" y="4.68" width="190" height="120" as="geometry"/>
                </mxCell>
                <mxCell id="19" value="" style="shape=stencil(lVvJch03DPwaXVkkwfXsOP/hKsuRKorkkuUsfx8wKs4bNmZ6ops9YnMBsTQAvjv59OPhy/f7u+h/vL2+/H7/1+PXt4c7+eUuxsfnh/vXxzf91518vpNP315e7397ffn5/PX9/9+/jJHjX3+8/Dlm+Psd17zrZaCi/+f9S+8u1P++/PoOeHp83gOia2EFNJciASQX2wqoLhQCyC76FVD4lorzcQUk1xsFFFkB4koigGq2FF3wFFD6CvAusS01F9Yz6JcmFJABUJ1nYm2urhengpZMAW09dFMp8RVaXgHReX7oDCt4J2yFiluqzRWmfMXVVb1rcY1tyShfzVO7jgHi4qpLVVxgK4Qpkw0QnJAVxhHrAijdJSIl3XFf76HUKehjgJ5h1daSXWUA7wqsIK6Hc0Bpzq/KV7hq6AbyenHFu0icgG4gritk1S5i0zpfXW86q7IQgM4nAEiudQLI6FuzOM8Am31tgEDtYfx5vYfUqYnqn/26QtKbIW4mFdQl/ZIZQF3vKiX90tiWogFwA0oaslbPl4LLRPlEI9pqovqlEYuTOiPaBmhUW0VvGlYoNChKchVW0C9ENWQLUBtA5qmOAXHOtwECdZUKiLAlT2OczldXRxbV4tgZAoo1asgiFqeAuHq+mF3iWwInEIXatALCKqUYptGeAuDQnt+DAYQ2I8b/BRQapw8AySXiKg8AkXqNA4Da4IdW6C5eXAPExCtNgvGFerExHlwGt4Uwp9tsgYZotRQwZzUmdmWqM6s1q2kQD6Zqn0GvXSLz65+BJwmf36OHVA0i8gx1EpAtULlM9qMKCTRsY+DH4+OMMTt9IPqj6liBeToh/ro7gRyGZyRIXnQ9T9xQQaZ9YS55bnZnjzQoozYEuRgvHcdT4oLp0bg/Iv4+vfhuvGfqECZZ3G1IiEBDnpFoJyEhElUfix6LM6loNEjvTJjJRCRGfZLoMxMGJdIwwDZUMamtNGyMS1hFVLjLNYl/5i4rGtbFw9jGjW8uiM5fTWClJjwoHKjE9DFnNLNVGM+CpNJcNHrqgpRZQx7IiUSOmPtGykk1mYDxiab7mq1ABSLTkDfyMciUqYUVE5I65UGaAXZwQp4y3hqnwe5snnFqTXsT3LBMnT1NrOGKM9VpTd3bagODmrHAkUwkqLw4UDHHVABTi9bxmtX1CTlDj9M17wCN+N7esTigvpJ5OgUgGfKUTSgAXJECCvG9A2C2dHEGcBYKYBVCBWCqEiZlOwa0WVbaAZi/U0DMCGABpysFMitQgEndx5bYGcrRodnFFdSlyIlOz0ZK3AkooBtdKuymy0F+xryGAopZITLVqCZl9NSmFdCMlC50Cdm+pwXwUbI3AKp8faZXOwAlzB2LNAqgjN975CPjqtmp+4FuMPc9DgFuI9DymgJ8RUBkKzRMc4bJMe0z9enIa7tDmayNsqsuB16A6sZHASOiAHXeYsxpzMoIYPqtUbFDvtBoTbFFdEyhUn9fO+aPgZf9a8HiV7iogBs6rDkPq9IUjYqwpY2RHgMK9s0CVw1lcGDUnUZRZYhwDZXKSBmoYBLPrCcHUzqmvt4yaOHjC7IAoVl8EmRvcV7JWZ05NZyfZTxt1mRu4xvLwDTc9g/IR0zan2cr9ixjy5gR0qq3x/nrLPAeZ5wN5dPo/Lq8rO63UwMYCY6tOrKUeSui7UwsEAkNqmwyBqbSow4BOUmiZEFNFrPOrcF4UmrCpCfz7slsEu8cHStNRYzKgVfuPEbAUQoiBzZRPwhVCo+VOL2yym5ghtOdU2RpbcRGpeoQbV8hRei0bZ8xg9RARlS6YipVac3ClCl5EFNRZFMVZ+qfkHxsgfl4fMEamcwPx+P7bNbcHG7hVWus8tFXGdFk156Kc1Q0CoxnTEgdYsT5mW2JUTaeeoyeHpakWIDXAOCxCxBZADDKfNHFkJkT3/SBdkkEOdBFF8aMv+jymPEXXSQz/qpNZQEXjTALuGi1CTaGr5p5FnDRLhRkcVcNSTHVlouWp5hqi1DiJAlLibcOxxkAmF/cuN0ZoIBn4RmEZIxLatzsWY8C4HnV6F6zLZVZdtsAkZ+honccp+L8Ety7rslUQwkslGd0Tca4UpgZ+gbo1EKVUgNl1ClYVyNlw3njVPhjQEWSmRItAGkWgSvwRoimKaBLuiZ9ByTYvdI1mXrnYp4mBfqcJDdMXzNvDhSPNDNz1z1eS603rZtkHeXxIAzaRbx/VcyDxtypPdStoLRFk0Cp5nhnB+/ihCa8NWMCWPhzkmreJ5ZKI24LKFZN+wOrnQiW72uYQfsYYCqodWtEnlVnoHJXE01LW8dDV/4urnv0S5U74x7QVTbea1UAPl3lrwcPABvXOgNA0Ws8juUAKLaooNlrqW4yl9Yom1cARNEhaH4PoN7jkTJbwc9kZQMIz0fMM5GeuXp3ZNy90CiqMgEpjbYHfyyOHLFzAxLsS49+FTdRUO9bpfoMAO5+VM+ZiZqnep27SgVgxdXz1EQdkxUTfSIfTHu300CtACiNDDGxm/PoycZFcAC+qe80n2wes/PRMiBRcQCMlFiAaB4J0+iWMrF++OcW1wD9x+3XHd8en57efxyy/zv+GkQ/vf+SRD7/Cw==);lineShape=1;fontSize=6;" vertex="1" parent="1">
                    <mxGeometry x="733.9668722979541" y="94.44731122019434" width="6.198855437384844" height="21.80055839443296" as="geometry"/>
                </mxCell>
                <mxCell id="20" value="" style="shape=stencil(lVvJkt02EvyaviKwL2eP/R+OsDzqGI3kkOXt7ycxHeB7yCKT6puWKpIAaslM1HtJP/z+8effPrxE//u3r1/+8+Gv11++fXxJ/3qJ8fXzxw9fX7/hTy/px5f0w69fvn7499cvf3z+5e3vv/08Leef/vvlz/mEv9/8SnOjTq/o/3n7l+hS/P8//PRm/+n187N9diGy/bi2z8PVsNkn55Owby6xfWnCPrvhN/vsohf20ZVE9kOsN3uX+mZfXBPfk7oLY7OvronnJzxu3/+m7bEd+3q7a0HYBxfbZj/k8/G4sdsH72oXDs35/cBCWEd+7oANJ4eo3xBdLrtDkmcQcWb7HgV9yKG7tB9CqC6KNeC/2aHJMMUH8BqG80U4RNf2OI36HLDrdA5z3/K1A+Jg3yQcTBCZ012h59f1xlN7JHLe7bvz4vmVEw1f2EVlKWs7jkIRXBfPLy7uRzZTSZwAQmY/AKRqVJXI1f2EU12pdGGf9kKB0lG1/V54UZqC2H/YU6GLrr/ne3JxRQRcXtF12PeVdlf2VEiDjB/Y799TEM/1PfZptbbvtC8uy/1he5yv6nxmvUcGfZ999c6L/EW87fFQw8159T1/a9Kd3jQyZITIF+Tjnl+1ri+8yPewN5raV+u/sKd61bysJ83FPT5bWE+4sKe21JKsnzhNen6RyGNw/WlYkeoAx/EfDt1F1QG8G3sENdR4sQL0GL+HUA+rr507pLXCwwE1Rb3BBGlHmAv4h8Ya9irai8xi9N2+b2tvq9WeOwyO095dF58UAze+gZNR8CNxpR5BVkaEdieMliQ4SH4FwpODqkUJxZ3ekGWzRO9q5IDoVm9AeCd2kO0smEVXXe8QS54dsmo4QCCFHVTGFc/cZjQJidCRhnFIYg2zxVR2UPkAetaTeYPYVjQNSqC5BpFANS7g+rRLCifUsgjck0NRbwA0HuwQxDk0w7lmLIlW0o4q9BTeqlfNUm0cgnoDWBmtAbVQvKF75rEjymjthuWgasj+Y/PByxTthrR0cBDl0Bgy9GMbzh0Gb+vjnec9EZyGHFCXRI/DnvAnJblo7DoVMvS4ohzSKltPXVR+UmaiM/u0Il5HbD4hgazeUMwbDjB35cBrSC6IMgMHCu8WJFiFA9WlOmTGnTh0mQ/TgfCtrksnbyiyzJw4aMR34hAkwJoO+0mX+13aDw6kQZG86UAsoy6ceeVAelnJd+dAuBhdr9wsmoiSvz24fQ15LO5xGa1EbZukbjOB9m3NxyMuU3RfdE7rX64cMsmQUYJElBk6adB5JTnBgfh86gvfXFU+K0jIgwsLHR0OWeKl4XkNKS4KcuXg911KYbX6q4YSSEQaksQByxOrjF3GEjpaMLKW0tnQ0Yg0TaYsMq6bWAJBqKqxJy7GMUpwAuhA5X5qhWqXwlK+ntVIEa1AMyT2TL1TAazB8Cdo3Rw9MxjNViKyyosGnVVYA5gv7AkEwlxEEXjw/4fUrgS92TKpTUukgY5JZAClW6wYSD1TuknugOY0MtlHbU/fH9cDruzpjKMUoGBPrDVKwQT2tD9BEvVqsCEWpPeTeHqQUBL2fHGxis25feL9hL3an2wCVMoG1YgrQdb3qd813k+Rw9UkTNTxWRabeNirKoTvIXQUpdRTjeKcJM7G/hPU0fCuHkziYX8TP9Xko4qHyCUuacEzmAYuBZKZj9QGZK+s5mowLohx+fw9f4MEs/P72V4KwpGbvVYjYd84H2U9MQgqaGUkcf0MkvK/175FVoSR0Kof2RsC50U9mR2Sr5aVIocWzEqQywp2+FUOjvUGyT36cUF3OCR95ZhMRcxL7r3CWqRChipzuBcTE11Kr4B/jISG7HoAmNxVg6R0gLCkicw6qvDiofIfDlk2monbqbDf0KHAlXTe7optHUYYndhJqy7MPfyqfleEi0RFcA8pBBnpFezGK6ZcjUOVF06j8e1IanLsAA40+5GG1NdGN3fAQe9S59sR8FiFecc4YcpZ0VJ8MZH3JrvIGKx+3bH9wWX1Tk8YHHx3ioV9w40mYtZwp7oMhl53us5Y6fKdylHwhlvfiFNnHhognXloie3Mo2o11ezU1Alv4mk/7Zt7YThQ9QNxU/V1mBvDponXMOR3ck8VsSZN0bulkNK5zzV9iTmvmfY0RfdWYOxxp3M4RCnVoL7SNelsxiqvjyZ1OFTJ+KeUv580emtVWRdYDJoXFApvDHPx5KUChg8gyoCPVAnxuN44HJKcaumGpD4635XyQix4dj4FQxtPy+HsVXMHDiX1aHY+LYwQEUD8qtaLlLcOSpSrRqRGDqpYmlygsoMkh55B1ux8+uaWpjFmpRKLLmbg5ql6nntEc8GtR+bQaaP5JlX6cuWhp0dtO3dIzMmGFs2y5zG7edRiX+eAbWEHFX3JiP8IVzW0kiKPRI8mlfZoEPvEjmqkpJq73iKlmJhNnSmSpkwqT0md9dCKN3PCWv0DTypUmIKcRJ5MjE7a62mjzHx0TuqoIVvwpH2XZn1Wbwg8ygA+KKEAK7BgqAqVmVjtmqS0Reifu7SSHFYZPWDAkNP1Zga26fETM/MIIKMwpbnUQq9QklXiy5emJeFoFHa/xuHPD5hrMDqLGnsKazcO+yYlFs9tpxY5/+M576umY97MYGpM73kG/GaG1NjfzKgaNH8zA2vt9YyttdczvNZezwh7zvf58xSRX57zEQ1RFUXPCmbOUjL3RgHUMz+eUUsaN/tPJRfdU0l6nhX5OQeoarpRPLLkLYFHllK6yXcayEtBwo/I6DoOeUVg6lXUSLac3P2q861GYdeCZ2P0FIMc+R0nYqQ632Cu7OY9rjqwxBAzFA0LDNoKWd4U4wOqEYUltDFFK+iiGI3OHrx2MEL70L9oMlfRXV584b8pzW5+8xVYBq/yYiclhil6FBcImVVCybZQRCL/Rq8q2uFZ3I2SOoFEvOuiKRcG7EES2Gzwumb5xWSNBq7FXAR5edEEqkga6g3v6zxm6VddurKn+NS/HCqDYaWXMBr29NMhL7sw7Oni2st4hj3Fj5ecctrzRbe6iJvfw/GmLo1gT7A4rAO8sqc2Ge/Ol+9npHwI+8yDGKprvPs3v7f2+MPjB8a/vn769Pb75Of/5x8k45/efsycfvwf);lineShape=1;fontSize=6;" vertex="1" parent="1">
                    <mxGeometry x="1103.936371931843" y="83.0144568639609" width="8.62943207605531" height="14.159464607418613" as="geometry"/>
                </mxCell>
                <mxCell id="21" value="" style="shape=stencil(lVrJch03DPwaXVlcQBI8O85/uMpyrIpjuWRl+/uAUXHeY3Omad/kZ2C4YGs0+JDeff/84dvjQ/TfX1+ef3/8++nj6+eH9MtDjE9fPz++PL3aXw/p/UN69+n55fG3l+c/v358+/e3D12y//XH81/9C/+86amrpStF/+/bD625HP//5dc3+S9PX+/kq0tpllcn/lq+OF9nefuCXMuL0zbLFxfytXxyGmZ5cbVey0dXdZZPdD/BNZnlg1Oyn+Ai7Me7RPbjXZnvR9W1xORl3o9WJ1Q+gbxZJFB5P8uLy3T/cfYfTS6S+zH5OMvbDSuTD7M/qHeV2Mvk5/1U82finyY/+3NVF+l5w3w/tbpA4sU7D/vJrjUqP99PFdfofXrYj0UEPW8E+egy/X4F+TAsfuH/eT5vaa6R/djqs38WHV/4sXgvdv/En7OT+T5Lpv5s2WnOD0WcJ/HVRvQd8nYiYt8QnMwOXcJw2XOF5PK8o9yGTc4VMqaUbC7NUpyiD+VCV+hJCBTyCKNzheh0vqWcXCFWM7P52cw5Ok/ShNktzH6UPa1jZrg4b0mUBmYKGMlS6QopoqtKGcnjXEFcnC0tMj5xrrBYWhIN5lSw+kkca54r6Lj1Q8E7ZYe2eMiTgv3CVrDvlTlAU3WFKQRXYQVe0eyIZXaN20WfKyQns6XNlEJcw8wE3prsVFwBkoDhMGZpUwBLm8N7BqMEcZ2FVCQh2hVmS1uqFZIou2/OhrPcX4h7d4XZDqHRUt4V5jOESmvJyQqF5qVbfB0K4hI3XJ0NF8y7SPY2BaiHVgA2hosAOCm+M2ctAMB20QBmK9xqAQFApknM4jnOnproBSXFC4qj3l0lyYTynqftFEA+8ULSIDQp/rKGBQBMognSameLcJ/MH8IBL2/2ysS+HS4AgKf2Ch6zY6O5TrE/C572TwVrWqOJrmF86cgB57s348zWrbSbsHygAO+csm4xYCnI47qucEuFikyj187bMFoC2Y95P8CcQO+n1+/Zezw9r0U73I+n0FHyaIZv8p5lhwUue47eE0JTQ3XkPjtwhYTOvdOPZvUW7YVEbzlg682+DEqUgmAl0wpWFn+w7p7cjzV74A86kPa5fMH7D0eDfa6wBKTVLwYxrf0PsweFSCNey/jeoZCGE54rNIyxwGFya6ODu8MRrOXqFNiikPgKK1JhrEPwS99uGpX1mW3QQvdgiB8CgIH1eSy3mAJQV6bAgqepKwkVhPhGW2prVyDe17nC/FMrLA3O7gwF+czdLRVsA3d2yMuhN5YuSEltnMkUZNkSddcydvyjAVEXFFsHr3vlGuhLddzblQJCd86rmbcCUWMKjHhsa9rgzGmPuGWFwldYFZS597olpeWwH3pRiGyF9Vp1EGI/ajhTINn4xDWU9o0nzqcUkf+0gi4zipApZ68yWoj7isIU/OD47moWa/jrQk9ZVWSNphX2OgO33jcSw1W/DGZGdj5HGgdtekMOkbheRz6z6xV6YkNWAgwenePkilkvDSh3Li9rX1eI2+WAg5NA6T4pOAgJFIlZHx4bynPeyyNSbYzrK8i5xsHwXLGPSCbS1BIV/SHTSmvmgc6r0KoWGiJn5X1vHp+7+TNL7xZPWAQ9LeSKPEsPMGKwjLzGpvGtmNuVkl32NQj4I4udywvuJ9POpZP8GF/M/7s7AuNIcX8f9ELxo/6flkGjp3OrtBCanoKitIB+/n2JS99CS4AsNeNofK465TKfV2i8yNI5WkIi9u3DCBhkjtJ/JQ+wtA2sfS6/xounVIsoJqwdVaoLuNmQsbp0Bxu6VxdgsCGUV4UNZa04bt+R4rrQmYnXDR1ucE/sbwwHK1Sa6GSZ+VjqYqXJXAlSlwU3YyFMAWZvVq3ovKSMSduhIHT2ZtEGrLXVT/rsRAa0PxR4fZKFZ7WMQwN6STASdpMxBS5xU/IbQnE7Feuh+hHnQ9u9MWTdQchsB+Eo0MyEWU85XR/H8O9QaDSA+qQN5hNhB3QE5umRT7vLUmll1K5LaASz6ExrT88RwDJXagfLQrKM+Bur/hXHsobPWW4NeVHgTHNIuCXrGBgJEQIargj1pYaDk8KzvSKvaC0PQ0jrFTXKZReMtuqpW2R8A1EDzWEZy2Hl9TMPuHvI85dARz92yPOXRhkbhM1Lpowv/+rupY6fo2bzEmt5IrJ56SUIePpLMpawkXbYvFQTJGj7Szj60hHlhSJsQUCuefxydT+zfZW/vFwaHFXegS8vRz3lBAsC1BboJLOi/7dIYYjiaKMJZ0GxYWyZVhrDu5DhGn8m1Scly9tX2iMv08zO35ErtaSLr2sbpVm7QkOFTVuNbUIbRMqVwvqgmDamETHFjRa9utZ1S4xmXZ/ctUYjp3c20Fh4PtcMC9vVl6DFDJ85N/rst51cEntm0DCZdiswzvQnn4Hv5e2P25vzT09fvrw9Wb//f3yjbj+9vW9P7/8D);lineShape=1;fontSize=6;" vertex="1" parent="1">
                    <mxGeometry x="1108.557643024197" y="63.19171739758664" width="6.980476252196968" height="19.569037612976196" as="geometry"/>
                </mxCell>
                <mxCell id="22" value="" style="shape=stencil(lZzbkhy5DUS/Rq8M3i/P6/V/bMRqLYVlaUOr9eXvDXqiqrsS3ac9b6MRWMUiQWQiAc6H8tMfn375/eOHHP/48f3b3z/+6/OvPz59KH/5kPPnr58+fv/8w376UH7+UH767dv3j3/7/u3Pr7++/fv3X7bl/ukf3/65n/Dvt3Flhrr2qBz/8/abHGL53y/++mb/5fPXe/sW6hT7MsE+h9Yu9iVkeH5eal9DTWDfQ80X+x5SB/sa5rjYj5Bg/jbd2i/2M2R6fgrzOv+F65NjyFf7FEOtzwekGfp1w1IKjQbYB8brgBw6TCnZFl+XKJUwFgyoIdbrAFtl2OQ9AfmGFhbssn1ikjeMEOEb1jHh036GAjOaoYn9Ch22eYQmpyDhselhiH1Gt+4hp6s9b0E7XOC0b6GAU7QQ5fk9TFjPeqzGaT9x/vVw+tN+hZXJXva3JHx+Cevq0xZnFuxXCf3q0qWGhva1XO05rJTDu077EQaF0ZCv/lYsTMD6mP11/jWGxc+/7lc94/Aze4m69cX36vNbGPE98x8hv8t+hjHeYd9iKDx/sbe4DefL25cjSP6f9nbi2P66/q2/+t6rvzWLYHheJJ70iDBWDm887VNYBPOhi31BjDHEuJ7f3g4cf2IvrKD3sDC+pWv86ROf38K8+nNfYYJ/dp3POBHqCV7I/o6M/jPCEvtyQOYTvKtif37RY0CNBzycAwbyMkNgiXDDiAhBtn3gdYtnDBFCkJGMJgMS+rSRjHF16pnRKW4k4xxQmWuZk12P8WwIM8nt2xyh0EfPI+ycAyYG0nTi6DnAfgOeYcRE6N9KhzM+HpDVlxZzlQ3G18O2Tvh8PMB88+p8q+Lp3MdB3tCQzhVz7+vGLcNvGpDdlDoDWlMEX8azKQIP5byLXcMQPjUdQER/Q3zWAfQNhvG9uAH0hnNN7gfQN8x3vqHlY03uB8CyGk4Kk7UBhDxtKRXcA+AbDMn8lArE7t40VG7XAPfuFnq988E3GDglN4DOw4gHu787QLRxBk+axjZMuEY98PLuTBOjHV3xYUcNesMM8YrRFpcaRL6xNEmzyNfhPBjeJNm4eGT/jwfkMFwwzuCthjdFEGgcesTjAc29oaOeYM+TqGHvpMzR8KYJxhXEh4038oZ0nPLH3CQ5rrEwedn7et042/tM7Kdo+j44ei/HJ40vRXpDU0JshKyBe9sAAfbBGcZy58EOLSlTO0ZcvdU4LuW0NmB6Es1TWo6llxcDrqtkwRP3oR+OcA7ISBL3R1+XtfMR9ctqmRLhww6M1zCzUzF6Q9WdbpXfUNyAfKRPz86DkBPLbiutUjqC+136TFzD4ly77oNBPeXnFgSKEwwIHyzMlOtHG12hhMMCWROJIeKJs8Aoy1omak47kl6DsXE0cu8djEVFaniAbIAE41IZgaqq66UcqPd4QFHY3cIZAUrRzHsrcwRZWVPXrYDTG5JqZ5YtU+46oyYcO30nNrPUl7ZeR1xjKlm3rIgIliXD6brTOSLnM/hYIlAvDGTGl5pTtCnMGCOTUGnZKfKlpB9t+S9pFMYqhd1bSk44bXgTpXaRUUU2vNEppSO0PR5wFn/OARErCwYfcoBYdzb06JI+IFW/gcdJfpCOGXaIcD5Q12suAAzUYXe+JIh7pDeP7aM69hkEnyVwEsE68iSDjXSdT2Pdvx6y6M2e1sdAI+rziXuWdeg1N/tKOu9QiaghcFq0Ldczw9hfokLIizpE1FyyYl3H7GV9KtalzN0lMWTdNjv5qXDdImqmmllHjqphZEz/bf0Vzg4m88xeWEVG+liy+nNmnT2rEJ6xjrjhXe3pvJh91v3K5A9OvChIQIorRBSuq2VV5uoxwWf2yuqQ1Jm9lJYrxrfNfnQ+KONFxe2KqnaJ2g7AyuX2f40PhME3MnZbf6pD7PMrpBcV7RIVsgvG8x1/tN2D1IRywvPdeSF/SCrUcl3E7Jc+n0jQu+0dUyyo6lpO4s4XkeOaldCwVG74WHU+dH4Nf5vaE9HdZVUpvGNG05LKrRW/d5dJ1Z5ygda0UaJhfGtOFGzMQM+y8B1fojqf26/BfRtV/YGTJWPEkiwttp9qnyISlBG1Um+Um7QDyzOEke1uHRpQHqUNsEbDaWmJN9myMdlkS32I9Q2naaZ54MizjFJokKVvjaXiKHHlPBnP0mjNKLkLazqk39SP0uiqVHFzddIOXJF8JycAZrv46bQDyh6mkyg33tKUhmb2hftW5tR4VOqBuE/lbnlDwyrCXO4Ng3d6KUUo3JuxBXXhLBE3bkU9cTWxRJlcU2VhqTirCFob8th1qn/ngIGJ+mpa86oLi/dbyJXMLHML4FCFxZJrFNSda1j2TsnWWkqO2mR93IWZzm1KKUbXKPNCIHfOtCV4ONTLlXN2Kw5/tXTQ9oFHbjldyVBs8pS02BKx8m07J1WBkTEtXU7WGBw2dslXeAALFcuJy4ZilCnsAyENNgup53JtFzNirmCHWorxk4PrrVHkHFCxa2y6bGRL5i+Kj9LzM5APG6LoR69jK59hlhC+XeugKRWtndgyLEIUR5hsZxLr3eLeq3L1fqqosF4QJqc6mjsSrRyuHvqiZWE86jWheG8nWML3DrfwBosR0rK4WFE3Ki2UzAZQIOtFc8NbpHo8wJXVFqvLvtfkLqA/04u1nWUdPWhPBeDqBlAPzzwSnrsBVJiu3fXwrKOQ/DRnHW4AJa1ZiejeCFJhlmaJNgBlv7Pb+G4A6pbV+ffiezEpTO/fpKROVabtBFG1Zd8JqDqAeop36u+a4OgE5eRco/K1jOWafrhNNU3NRlfm/kjXgbk4g0hNKZYBRINVSlX3wUApg2vs2y7Sw9P5tktxAxqKCLsodnU+AyUKAik6GGVZeykozoRhaarr7d4qbHeWZHc3b4FfdEf4uAGuqSpmbIw2ueqCGuBVikiOHhaEw+Lmk5AdZlVJDR4pcXAB0tARO51du/zAMmXUU9b5OkdUFb+z5BPd9QPO3aIKPi+uK0StEry4DuGqZC+uW0Q9wS+uc7is7cV1EW/PzWJ+PpxHuue/uE7jnv/iuo6vOr7yH6FqL64befuM8cfbRyRqviqysOEwHtHsThPqOB85v7txCNdfqwT1xf52UfEzCkJRU3ijLySNuOuXeWEZzrcATcxlHXnKnW8QKH7tMh9eT9LrjgUxvmiXx6ZGiC96HTRyG4mTzCe3Muv52tdfKcV0zUUs3yV3YBLXZfedYyf6o5LltiBlrBTvCUjulPiGUlfSkVhG3Q1Xola8YrtS2+He7X3KtHeGmp12aVJQCascm6VoLwnVNm+tOOepR5DMQ+9XZe5VSUcMPzeAcyzXOxCPMPAsJ5OoxTfly/D2keYzVe7iXL24yy0Ri0y7HVW/l3oBbhh0sydQKkubeCPXupfeSIrcK7E0n4yHdPzUXtoDURfb85GohSBQ3KXHhIVKsxcUTihD235N9Wf83vf+KY2X9vbD7e92/Pb5y5e3P/tx///6dz7sV29/I6T8/F8=);lineShape=1;fontSize=6;" vertex="1" parent="1">
                    <mxGeometry x="1104.9180636029628" y="45.187900595887456" width="10.50853726197638" height="16.294396820909242" as="geometry"/>
                </mxCell>
                <mxCell id="23" value="l&amp;nbsp; n&amp;nbsp; r" style="text;html=1;align=center;verticalAlign=middle;resizable=0;points=[];autosize=1;strokeColor=none;fillColor=none;fontSize=6;" vertex="1" parent="1">
                    <mxGeometry x="1170" y="42.62" width="40" height="20" as="geometry"/>
                </mxCell>
                <mxCell id="24" value="" style="shape=stencil(lVjZUhtBDPwav6rmlvRMkv+gChNcIZgy5Pr7aOOawaP1NuFtMeodSd06Znf55uXh9nm/S+Hl9XT8tv91uHt92OVPu5QOTw/70+HVnnb58y7f3B9P+6+n44+nu/Pfz7eL5fL0/fhzecPvM06FalpQKfw5/5JJ9N8PX872j4enS/tATSf7RjFv20siLpO9Um7b9tyotsk+JnhAE2KZAZUaOKEFCnMEUYlByDVQmU9IhQpwqUQKeQYoJeBSjqRhJqFQBC4ZSXnOUrY0xG2A5STPQZdMIQGeKcTZvpGCECrFmWbLWhNk71irpiMGOiKps72lNICAM/EMaAkGkCKl2aPGmDQLcK4cjlBHJZDOHJjYMxJepDonVQIxSFKLVGZZSKUAWOD1CVaeQEfCpLO01QoWxCDSS+UCoAUCeM6SMhXkkpCyByiSknQHBkB609l0ycWgFIH4DJBXgFphWiV4gCCXuKt/NLFgfQ35ZDyJP0KRT823AAOgHmNaq9UDMugxBkjVEyH4hLhiLiEx2QmOCIbDYYkhekDEJ6iLoXW1bPIQPaAguXKff5cAxDSvRm7rQ35Lrq71GQDyIH4JsCxBHmTVNrgPgP8taoF7gwEkeYAiHsRPdVNrQVli376XekAxjL51WXEI0PxQXACouba+JVy2DUTcRwFN+9AcgEQNdI063jcmiiUaAIqdMBMnpbeF63NXu9TGGFU4UWx3aLOWuEKmo/igOcBWGceuM3aH1gfr9aC7Di6WkwSItt1kzlG18gHVMEbBsE/QPvn3F6GAdmg/QUuhAOK1bcw1PWMRzWiL2ANsqwflnFch21IdgbKz+gn6zk2mjA17AAYt10tB+io1ZrSpAl1l2N8b7O6DBigXkhkwGvP18o+rLR33SO2lO0LuC+b1SwP70hx3rS17XtmDybZM++rtgf9mv3o/umQsa504e7R6vm11b/YM+oSumqMRgvKpfgrGfufY6EOrKkhwUV0OcJqmihPErsr6krhl766dGd54lpnt7ZGgP/z14l17e3j7VHJ/eHw8f2m5/L//tGI/nT/L5M9/AQ==);lineShape=1;fontSize=6;" vertex="1" parent="1">
                    <mxGeometry x="1092.6055786792986" y="39.322717792101045" width="3.3793119295658003" height="3.605278493990358" as="geometry"/>
                </mxCell>
                <mxCell id="25" value="" style="shape=stencil(lVjbUlsxDPyavGosy9dnSv+DGULJlBImQC9/X7kZn8byOUt4C0Eb67peeSc3r493L/udd69vp+P3/a/D/dvjTr7svD88P+5Phzf9tJPbndw8HE/7b6fj+/P9+e+Xu2bZPv04/my/8PuMY+LaQN79OX9RKfp/X3w9mz8dni/MhUIazH2hWrbtE/k42Acmx9v2hWIY7ROFuG3PTCIDIAoVBAgUeQTUHtM6oJDLAyAF4rAN0JSmMaVJs5ABIHaPF0AmD5IqjlywgFwBIJA3gCWqdUAhmQBetgHBk7AFCGgkresKAMQQXXfgAhCAS1HL5CcAqHTMFMoEQM3tKM4ugRiSTDFkqiCGFHtdLwCMXFIHpm4tAJCXeVwADNOaxZ4QI0V0grb3WIewTPk6oNjCNdIA3VochTEGEViH4u2I6gxW0K1FkzjyntKCRzyWbNDse1TrAM3JeELqR67aV0c82gtV4FBVVjLM3X9g3b5QHklJSccB+0o82iszAx5We8vD/arYsjeT0KgfO1SnkhXQReyWCJcUZZyj2lO+1CB2VtsMYjxBeRNRkgKCAWTcFpXc2HfKmxXltVAyAO5nbgEMhwUtPchrVY/HyoUAp1MBaWwlyfBOV0AcY1AVA4OeAToeqHCTSyyUMcAEnSGFzVnVCxWQ6lw21+fvyr5wlPD0mMaTTplXdrYeiO3N6HCCAmNtOgNO0UQAorSPajBRTHBdN13JYapqPI7akGRTNXjYDAvrdEY8zp8ECLFYgAOF0IvHVxsDImK92QpbQEXXee6tswAC7I0SuyZaAFga6v1fjdKLPQ1bCsMIBtVNBVRaNYyMJ2SsJXMiNxauaQ4gGFSHGUqqDo6oesxmRCOcB9WSRt5qd6HNZ1arF1N7pSDWEUEyYJbcjQnR2jCJ+jYiwKV5bWgAUIh5MWkAkKZ59WkA0BvzcqUA1Bvz+lax9pGwEgOSk20F/RSgLblzltBWzFN/F7hGc7ZDXRPMEgc7o0qG6NJSxWm4suBeKrZuSjwCOmNZQhbSCJApfc/gQmMevpY4K3u0s9BrjLNtJBW2kbOPSZLgWqVNNBZA9zakn50VMaoyUEvMkiH2X9iyNyLM9btrK97RHxUxFfSDs88wqiIjtDcijD/yJ47515kE/ewsXReoIdlms/S3tw1zbxUheln88CFSP/x/xHw4PD2d30Av/28fPfWr84Op3P4F);lineShape=1;fontSize=6;" vertex="1" parent="1">
                    <mxGeometry x="1093.4243874513836" y="40.61502488629483" width="8.605151285580332" height="0.41766846090064613" as="geometry"/>
                </mxCell>
                <mxCell id="26" value="" style="shape=stencil(lVjLUhwxDPyavarkt3wmyX9QxRK2QlgKyOvvo8mWJyN5pxNuy9CyLanVkn1IN68Pt8/HQ+TXt5fzl+OP093bwyF9OMR4eno4vpze9NchfTykm/vzy/Hzy/nb093l7+fbBbn8+nr+vqzw82IXCrWyWEX+dfnCFMOfD58u+MfT0wYfM/Vo8HF8uIpPmTgbfCVJAN+pN4PvJLyPz5VSN/iQKNd9g5KIkzVoVMGJSqdsTxQD9b5vUAsFeyT1OeZ9g8bj38MgMTFIQstU7Q5JnUYG3WchVQpl30DW9VYDoQyclkatGoPMlGXfoAdqlkg5UgGZ7vMOmnvgdGCNIhuLEiihM7XBzdUgU0JnSlQsN0qjAMikYRLrRMH8Fg2T2PqJlEDBLdxwBlqywOnaKFmn9YuAuC4ntgZKYKQBJVK1ZNJDMmCfJjZbUWoaVlBByrVuC0KYAvAhFU8miSSA31qRTieljEBfF8o6VGU1EIpgBxVSV9Rd9wROB6HmDOIQz+vUoGhd6CptYINKLB4vIM/ZV/SmAq8HdTB5s0EHvIheuhWPcsCD+Bs8am6qww4vVMH5J31RAelw/SAej8/jE1ypAH9VK5rHMyCEtkIX/7UsdhLsmoLiK8hXmc5fhprtEJSDP39AWke9enwFhBYqcYo/amrDu21+Id7zWVeABVlmfgJ8HS14g29IeCe+dSgQyfeaBY8ka8jH9jwAH0a0N3jUj9lPXhpPJEDspxzFo7bBozo2+UWCyFTc+hXyOUz1ooMgOP+78doyXAEwLJhQfQVoU0LzirpcnUGBKVbORauJOkrCTsy+12vrRjPX0rptFnQ4QFWfNazWh2VGAk7naQxsOjeiO0UmsUSqAoVXZ7hoM61DWgU71D4NaYEKMGhlGjQFXrx00Mxu9q3QadHeYqtZw4C4pBN/cuM4jwnj+g6TXmtmoEEcV47VIA06Xo+S+IlCJ0lBip0G1Tb3ooAug33cUVaDAutBb4/ROp0CpgZ7emtfQT4sbLXUWIQfjeMy3bE7FWQQRttbDQpkq8bE7xDhDTjNoxTWsTDd7GBQdXvXahNcP+j6lhf4OqF4NypEPNmxfxaJuDPwuFWuAYXVv+Ddq8hg1d75XasNo5L28E5dGE7uinejOw+G/GcnVIKAGgjT+8Y6O1zHZy/Y+GajfOcJj/j2zme4f+P1x983v/vT4+PlyXD7f/9GqJ8u74vp428=);lineShape=1;fontSize=6;" vertex="1" parent="1">
                    <mxGeometry x="1100.7670458461519" y="38.348510967054935" width="2.398934489706249" height="4.771033325005692" as="geometry"/>
                </mxCell>
                <mxCell id="27" value="" style="shape=stencil(lVjJbhsxDP0aXwlt1HJO0/8IEKc26saB425/X6qGnCHleUZuYw/fiMvjpk18eN89vW03wb2fT8fv29/75/NuE79sQti/7ran/VmeNvFxEx9ejqftt9Px5+vz5ffbU5fsTz+Ov/oX/lxwxVOpHRXc38s/gZr7/8fXi/xh/7qQ50a+KPlKAcinTLUpeR/hAbFS0Qf4QrmtA0KzgOCpRQDw5JMGZIppHSAaRw2IjnJeBxSKWcsnKh44ibyOgTgBKRSpOiWfPMUCgkas9U+JGMRAYqz1TxJk4FEvn9MGcKACDpAQpKgBhRICNMpBAXKgCFghHkxeAwpxADEo5LRTSxhuu+1UJscaIHEHJ3SNNaCKGxgAJBW00ZVH9t3mXRo+uQKESIB4pVHSJzQPI13jiOsVECkjQKGgudcY5k5zNtlagTbI96KzABRpAbAuGC1TA26V1y5ZACOV8qhYCwCqkqKxyYd+JqBGu1bdBcCjE+qougtABIFrQo3JSwW5tVFlGwdYNZyzKSeIioxokxHC7woBnC0AdR8BOJMQDSZ1VyBaACOViq2VAoAJIR10UokRN4QJbAEB8VsyMlkvVcQNnnK0jiRcAwRDpgI7ogDSRCYPqrEAqom0JCH2UpoAAQfOdOmeoxjQeAKgSFfK0wkogzo3p6RmFGmZlSa3wjojGVctIN9J0SnjPGjUnwZIR8lmQPwoJLcRaTBhcYRDR/gxjCyaFiobvfNPbRFVV5ktzHgifQ8NQDlbq3tnRdOGs4VJejecZ4Klq0wHaMSSIbJpG2T+QLNAFDbrtpjbqDy3p74yDXEJNl4/lW++trHbAG/LBidYNrId+hhzT9YrHYXEsHhPLVFGe5SgfpDgujrkEZWVVcBpGsUwFsA1B0UdAln4GHX1NrL3CpD1Bq1jxTZ1+cQdGlVTABiuS52oul2JVQkYLctIMPvMWD9uk0LKqrbZwXGvyGs28ijIIm9YhElXJla4McGuyZvG48YGuFa9nLU3Yvlk9Ud5L/I5G/mGv2/87+HQJvLVG3m0rpZgt54AG3m31+QALO4iby5VwgjIWrw+dWlzX14ePm6IXvaHw+WCafne3ijJX5fbqPj4Dw==);lineShape=1;fontSize=6;" vertex="1" parent="1">
                    <mxGeometry x="1118.9735572706993" y="38.593498690037606" width="3.7584731702340632" height="4.923142132138481" as="geometry"/>
                </mxCell>
                <mxCell id="28" value="" style="shape=stencil(lZrZcls3DIafRrcc7st1mr5HZuLUnrp2xnG3ty9Y5Rzr4Jd+iHe2xE9cAGIjTunTj8cv3x9O0f94f3v9/eHvp6/vj6f0yynGp5fHh7end/nrlD6f0qdvr28Pv729/vny9fz/9y9z5Pzrj9e/5i/8c+a8C3VC0f+7feD9/x/8eh7+/PRyMTy45NXwVG4Pj65FNbyG28Ozy3oxnSymuB7U8JFuD2+uHH89OE+GD1fyYXh0mWw1BFfLYXxxrZHxyfV2XE5wMROgOt+PQHeDzdBdPApLjqAyaYkyHLeQqmvkiOQEfx74BuTixiBAckUdUnEpEiC7cQRq4kB18agUdbhMdE7OJB1naDIDkUPsLh+VuhV6Z1CTBGhkScm7dpR0E9mTTafogtdAIJJOaTuTCyCSPaS8KcIlwJYkKy4AEF1KIgecgcghdVdh0xQYri/NkMWegBwoIHLIS4Co2toMedOcewFRhDWgbSb6XmC4sLSHck29KRBdaktAcmNpD2KF8pIulbq6h+78WAKGi0tAFVe8BgSXl+5DjatAAlNpAHlR0rWszlDBGBtA0zGMBexe+U6geRfXgODKkqRbdGNJvVvevr4XEDks3Qf5ui7pUhO7tLZp8Q91CRA/vSTp7hevaA9boHA/sHZKPYIxloiM+GkBVNgqwM+fuA4kiDXydgdvAUUZ40TDUAFUVCmArwRAqxFpgCVAjxooJPzpEqUGDVS2pAIeyNh01dmJHGtiM7QtnLoAOhNcc11pa3GRLalfiVsLk/SA8KdsxvMW0LwGWII4/BZ0Xu6BJXGScGY4VrLpEbZI+0JwmWRZAmi3GzdLdQtoWQMsfxgRQjhJ1NgMURtjcWLMCAjQj8pXd3t+HUha+eruYm4BRS1pN563gHFcUmlbyHUd2K/LRWqZyQUSoB/lIGEju9Oj6GC97KbtFjCOqlHy9hPXAXCKsgeWx42mPZAAje2h6Xy68DxuiBftGijsPkCWJUvq7IqOzWxdzMAcigDKP0hwHdimh47IRPk6O9ahBSeBKUuPg/fas8uVY9YYp5hRHbtBQ18IsWSVC2IoS9acNySn3Gh3mQQbEwgaqBxoVS+JecUJqBmKpX1KXac15sqkosQqXmwNKLTAhEuSxGtwQG1a9Htw/VbHKjfIUD4luHlHmTUG1ZAZPAeU8on5ptYY1FsS4G4A6o4mWs+9dkerpX36jvqtSHWnoZlRn3FMEN8n444q/e5bdHCnORagcTuzCICHkEs9mPaBD5IZaEwGXk4Aqt+YXA5umMBTS27HqvczFlCABF1M0lnfoJm1MF3KuiQ1I34m6azVW8Lrwo416VOaoSmbIelChXxCAag7yLnRECvqFFxkT/cgsbHag2G+Ifq+sAt3BvgyBXuCwBRCrkhZSlKG4RYhDRqVBseYaAmQiLpiKidAZDNAsigASyEwHZ17YOkoJLxySoEcK6bU81hZ8QSSdhEczcGhLDBVg80AhQcBaOEBShtj0LwJiyeyh8GrLWVt01AAmneULQlKTCJplhFgEWvsb593lskGT4OwEGcBUOozACwmWgCUKy0ACqIWAF7RAqCoawFQNraAaw6CAlD6tgAorhsAlu8tAB4ILACeICwAHjksAK2GAcBDjQXAU5AFwGOTBcBzlgHgg5kFwJOcBcCjnwXAs6IFwMOlBcDTqAXA46sB4POuBcADsgXAE7UFwCO4BcAzuwXAQ74FQKuAAWAzggVAu4MFQEOFBUDLxgRYFwk0hVgAtJ0M/kCAjS0zgSB5GbbOCFBYNw805wjAXthm+4/aQ6bR/WwwUjNEWn2Mdavu74lcp8X12SR1lINEUKxxbrZh4dsRa5IK2k+LT2Kl79lKpmq0PH8IXZuZ3OjLzmyHO1q+jxtyHUjbqe+AXFrWcBd0WhYLT0b1qcZIswFoSJwdiUS5od9RxrO6N7RTfrRvXheaDmRkPKtpQDNo3JPrq+Oh1zTu1/vWeFgPy3K99uezf5SokNf2LvDE3m/1xX18s8Yf5RUybdiE+mSI9LkIxg9qTGE5PH2G3WZaEYPDjGuyClucfp8qeOPkl7qazeHyx0cD9ben5+dz//Xl97rhWj46N2unz/8B);lineShape=1;fontSize=6;" vertex="1" parent="1">
                    <mxGeometry x="1120.476518000501" y="40.77219866398099" width="42.92834597545335" height="0.6444283897488979" as="geometry"/>
                </mxCell>
                <mxCell id="29" value="" style="shape=stencil(lVjbcloxDPwaXjW25etzmv5HZkIKUwoZQm9/X50yPj2SD0t5I2SFbWm1WnvDTx+7l/ftJriPy/n0dftz/3rZbfjTJoT9cbc97y/yacPPG356O523X86n78fX69/vLxNy+vTt9GP6hV/XuBAppSkquN/Xbxxx+PvF5yv+sD8u8ZVyVXimFm/jORJrfCXOAF+pZoX3vq+4GhBlgagDEgxIjpJeQY7swRFSIaePIEnLIEeZKZmASo1BQKPadFIDVbBCkSPqqnEm324HVDeUrZFzICBR0GmNnhit0IidDmCK/nZAkyOaFRI5QI2WqLIOyMQFBFQKJqBQRltqnctzQKMMsuSd61nsESmQR3sq1LwOiFQA+xpT0ZVLmQrgRq3kNb9TxQHe8jv7nrh19oX+e3NAhKIhDWG4kUtv8/WWE+oUFVA8lQRUQLKkO0hapCGdkRbWWap3hC9T1IeuUjiQJd96R84BtTN+PWBmTg+QFmmg5TxVTSXhL1INTzFZfANcFV6UAQ/2IxrThv0AJXa9exf4DIo8y/QCz6AC0psmPxXOqjV8gr9v91PhIBnPW3oF/zOfpQ+WW/XKFh9hfS0fBP8Q3wqsl/DZWXwD5w1WJSYBBz0crLUQfMb4gT8O5Ef2Xy0+ogamFiweSbu3NmHqL6QoVlAW4+cGgUaBQAs4q7p3DuAoDL8fYQO7hwowDNepwBg/ECJAfDB4TFA3FAw3gOCHhkd4sbr2wI4K6uBKTrdwzVAiQupDbg4Ifa6tz0mmrGtWSqf5+iQO1qUVGebIjwd7AxE77EFAlh0bN5FgwOQddB3E4CBhFytglCthJarFSm9KcIU2aFGaPdJ6QLaeS+4xqNfaYHDEy3q0gu+9vnDLCaxQ55wsDDxyRGKYjIDFmV3rhWu24eQSEgD5itxmdeHkPoluLVmssQlIUFKFfKaBeLbP6/RO1r+LkyyAS1Imo6oyiJCKScc1TW9foA9kGfPmjs29adcDZAWdJS/SBlYIxepShlc7OWHVRxBRQE4hWFXCKZJ/R10ED53vZBXMqIVEHa2Ih9087Ufv393bj2kEh51OsKRzXTPX8Wwns4PPCYJnNnhYX7bvFdi4TI9KxeIBQUO0k1z2j/GPvXrdxcuHf09sb/vD4fpCt/y/fZKTr67Pefz8Bw==);lineShape=1;fontSize=6;" vertex="1" parent="1">
                    <mxGeometry x="1159.9745892411743" y="39.44396357712637" width="5.344094441805843" height="5.034184050589159" as="geometry"/>
                </mxCell>
                <mxCell id="30" value="" style="shape=stencil(lVrZbhs5EPwavRIkm1c/Z5P/CBBnLazXDhzn+vstrsDJsDlTQt7s0ZRI9lld1EXefX38+OXhEv3Xt9eXfx5+XD+9PV7kr0uM1+fHh9frG/66yPuLvPv88vrw9+vLt+dPt/+/fOxv9r/+ffnev+HnDRdcSB0U/a/bA/VO/P9PPtzef7o+794vrubp/aYuyPn7wbsSZkBzMRFAcrXMgOpiJQB1UWdAcYkcIYprdQZklzIBNJcMIDkJ5wCJTs2h8SQSQHHNHBqOIYDkXY4ToMIPZEtJXDWAOlx/DCguthmQXSBmTc3JbKUaXSGOy95FmQBFnTJAcG02a6nOE8dlGbG5AeD7RgDJhdkPxbtKzAqAzmbN1SVi1oxQm8+ATSo7Q3ZtPgPsFhigOD8DuiuZWfHxvKUUxppnAJkPLfADCY2+wrwlZIhnVirj4wFA4VHmuOyKAWAF7mmdwztUWpcAMFsK0WUlgGijFQnC/BbG+pujh5mP801tZRWXyIkTfDTXyTjq4PH72flq9kMLRhoFaGslo4KcVqQ51wLCjhUYsT5GrwjsBAD4GVBcLhSQZxOFRivSugIaqpCgWFeIiRd6AGYv9EzgK9TZDfBD451Bl+RkNa87ek4dQfaRyAbAWEmay2yFrdPsKlIiFQmAOlupr8m7m+mfaF+erVAtB/idr2ftMJt0TuMrzvK5zmZFK6FlOIyyvjUrPCGxhIpU5y2VNHx/VvPENNxGzYoyrHN4V+Q0A+CIM5+sicZS1vF9Ox5TiVlhE7NC8xwAimD4pAzSewzINoHaFl3HgGYrKzgxq3zVW4oLll5JEajRlhmF79kKyTYr3ajQMUBtO9Q86vkhAEYM86G1UA4A2p+bXaGRQ+NjrfbQzA/YgElR5aRBq23RysMbAJMPGmgx1jbctN8SA6hNUQDY9AOAabsAMAIKgGFKKoN5nAKMHxKdKfuWogUoMyuYhTlDptwHZi1iAY1Ea3ecMWuh/QGAsGyJMVZ8X1rCu7JozcuW8jDDGcCGd6IDGQBiolUo1+hWXwBsMO5WX6KV1SVYScQCIlthm0T2GcfOUG1TVE5DdVEDAGDDvaqdQvsZeMbZaI20tvaMk8UPJPiC94uZ0mhKZ0uYMRSAynM0LSnH5pk/B/il9CllJ20hGzs7HCPikAt2S7CMALeQYgGVeALsxfpaabGsGMvMCpgryak7FzCu5hME2Mba2hmvLHVpWkIlCjAmWVRHZaqj2C2BMVGZ0tum1TU+RnXb6Dg7yS4xMl3GjncKnJAk7YrDHK610Pqdt768AWRMXqcDwbylcmf0U1vKSqEECFOQkbtK5JNcsZ26G5qtkGzGYabIbDADOTf6WKTRmqKVETCqNQYIljFh3GQUKyH4DCCOpD0DGFFQlAqb+Nj4QTjbkKWliFBeCYBRcwVlgVgJAKMK3BEqOmC20h0p5AAQxiZPAaucQ2IJAMPvA1gacVy3kgHIvRWyaUGBqmSykOk2BKHTiwGr2jERAcG9qIiRKy1mFOUdFCXG5IIfjO6s6Pl5P3cEhOVeg88aqCbGxZUO93kRikKkg3GuC6DQYSY3u6N+ZFbm26LwFark9pI7+0zC8MqZyGJuBLrAz65BloGsXyGwLW0kZwMUyljzUl6y5xctW1Hf6W+0Pze7JTxhV2r9pmfO5RK4OlZs7oAIUbMuqkxptB51yrDob3RLfpHTEpfIl2gFg41Mj87WrJ0nMUCwva0FftvaRq/cCXbM02h91Sh8fJLuNxlmS4UOPyhCpgi0SpthUMsmm1K9ISyjd1PaeXqfWTRExrnroL+7MbewI9jhCkMA6wzhQDtgemBYpmj+/d46WSMtq37ZD4gifT9m+z6bMLy9fsP77D5tndC5dHj0PtPE1v0EOrT5RXPzVELzy9jpqWzoh+qye58NYH/6y5X77+OP3z+T+Xx9err9ymb/uf1ZDR7dfpIj7/8D);lineShape=1;fontSize=6;" vertex="1" parent="1">
                    <mxGeometry x="1096.0776065613109" y="29.79467263194863" width="5.148459748007273" height="5.599270831351492" as="geometry"/>
                </mxCell>
                <mxCell id="31" value="" style="shape=stencil(lVnZbhw3EPyafW3wPp4d5z8MWI6EKJIhK9ffp5gFR8OanVr4bTViDck+qqt7LvHTj8cv3x8uwf14f3v9/eHvp6/vj5f4yyWEp5fHh7end/y6xM+X+Onb69vDb2+vf758vf79/ctYOX798frXeMM/V1y02AYouH+vD5zl8P+DX6/Ln59edsur1XV5suLPl3u8Pi3ru0Un1lfLcVnvg9VyDgjBvF8B1VwUgGItL4DgrbdzQPSW1iPBCL4LQLYYFkCM5qsAtPnvDdCtCCckZ3G9dCrmFAB3KAsgw27CDwD01Uq5mVMAvG8FlGhZWAmAsF66NCsaQJFaEVwaQLFUEV3CDwCQlZo3J4Jv3GE9UkvzkGdmrX0F4EhZerqvnu7IT5FwiJy8mrVHCyIfIjJ6tVLP0g8jvAlQrakECuaIA0ACKqeb1fUO3jkZfWChHniLJBICOV88XyKJS/hugXbAniKYQENpTYgOO6gdioX1SK1ZE2by+RCuebLtKcBxfBfFxpnNigyqaofC4YocbSL6fLNItNHnK878QEcqoD4RrvB0W6OvBJnUiKW07pB1fH+Ugw0QZ5W8nRBuVqiNvvs85FkGNaq6xbxK6mx1vQOoqgpPowSFYwnSBcKtno5FkysCgXbAE0XfZbppA3jLilzboVAjaYVZs7ew5gNcqWgmpxlqGyCbE/SNyCGzQm+pIxVE62rWD6a6DShW6NLOkgBUz7yElFI1q2IHYuMmQ6OFqUV2ACU2QL1+DW+QpwQ0Dg2vJRkAJPoGPStAn9VgB1AqEQBKUVxa6Z9dSds5ItzZIjGgCyYbl6BggnhQABTegzZWYhqe64kBSt8DQJ4bAEEb/VAVw5a1twGHqohLqxI06rhjgLxDmo7d+aEIFhgACtemHZesHTJIHumgyfwm687MSpoMgKgBrTPAC4UFT7OIq7Jm9Y1V9kdSoYF0ORypKSv1w5GapD4A+sHTiu/7QZ0AoAQTAHmljRF86tKNjzTCW1NfoALhZQmC4+LPpejPAlAgKuU0Gilh1nqIJQCquHQNU5vv6q4so42l8RhsiBQtiUUfpIAaVBTHHUco05W3tUM2T/rHyYxDS18Ogkm1KNlZIECae95WWAc/DNEncjpBHhGgSS09mvwVMFpmcWnIVCpZKc0ntwFl1vEN0GROwyaBRiFe0n30TGRwpbISZCrNsHKXWnpEzkozJVpSgMyeLppbkS4kZ6AbZZt1yOmapm4868tIOtQ2ZeAZgMouuldp1s1Nu+mMmm3iDpH6462JP7MShUbrMqcHR6xm7XEK/rPQyDRFyJK9x6gx8w5JdX6FexrcQcVSrBytrUiaAYDUDPyg5P1oRulIusYBUChaq2wVAaA5XI2yaxq0tVZRVAzJS409jRRV+QAADe5yuzs1JpoJsqeBH9xhaiwnfVDGNKdA/6AcF2Zs7gqKGtGGxsp4zP5EeKMq0+hkFHaRoqO5pc7vzlQtsafxRM68HDOf1wIrTe2/RYY0qjv0MzI93aFfklHkZu3bDi+bpWPPeucw3KdP7jg7+2p6N/XGyfLsaLka4brp94/lyk2eRzdOj2954nZnYs0jDzeT82R5YctIBuXuzs3LnCz/qW+Ad5fjx8fnxm9Pz8/Xr5X7//PnSTy6ftqMn/8D);lineShape=1;fontSize=6;" vertex="1" parent="1">
                    <mxGeometry x="1108.641386956433" y="32.31903199531487" width="3.7448314510102536" height="4.78593288516292" as="geometry"/>
                </mxCell>
                <mxCell id="32" value="" style="shape=stencil(lVjJUhtBDP0aX1VqqdczSf6DKkxwhWDKkO3vo4mr7WnNzHO4GaPn1vK07vTu7en+db8Tfns/Hb/tfx0e3p92+mkncnh52p8O7/Zpp593evd4PO2/no4/Xh7Of7/eT5LTp+/Hn9Mv/D7jKtU2gYT/nL8IpPnfF1/O4s+Hl5l4sH+nQT6SBiCvVEb5SpmBfCQpoz6BAgZkGQGJmkJAGQHC3QebAB4B2r/ZVElHQKaCX0ijk6RRwwDOA0CVksAwxFElLcQVAIRKHOPMlBMEsCOGhRLFIVAc3RoLfoG7EzsgWeAiBMgY6XRh4yqgUR5tThkGulEcTU6NFDi1eYuz9DhuyYdRPt7Q3wU5F4rAQc07tDAFlPxMyQGUAsr+QHm0oGQS9IJ6FpVGAfE0URpjVgMmhdWf0YZ6KQirABGqdQSYV4FKVuF4pF3Dbp1yd3yhSY/kOqCRjF5qkQIgRkxURma0BMt2EkrsAQ3YkCo1Z3TuoVwFZFNgoVIEL5RAXBZGAy8Z1Rw1zK0K0rkamR2AicEL9nvVNbfYY78OUMqjDfZmKgAQfRk2AEqga5hmgIBqQCHhxQuAGq36wBkABa613gdmgIrKZKMavFsjKjNscXJGpP7N1hOu9BkggY5rgOAAGZY+c5NUD0At2gLh2GeAgrhhoWYPqIiuNpcsVIL9Tf1sZQDY4CwhxLu1IaMtI4sHKDJaet2al28MyIscDSjS2gfgGV2hl+IKQFHKJT/uTTmKMsjiushRCCjU6kIlBKgrZQN1RcuHnL1bBQO8SrFbtQlY5HTEADf+TORD49JHAdb420g+IwtqQTaLiANcYr/es2KvERdAgXHI2bcgs0qBStao/b50rZ7rCJuys3+igtIXpZehGQC9oJcUnlmdgBE2YsliPIkgqW2r9W4SGGqbK31rv7GS8aJTW3FF88yioVyq7bpX/fhTGSac9NF/Nno3UCiD71cFlz3uNW62PKChddGip+UE6M/e3mn5AayzGdvJh15x/k//hDcN9nuDLYcC/ekOJbZ8KowXj0ljeYeWN/EF2NZnAQS1qc4t9ArPHtrZOzsAIP2jX7bV+A/8Gf1qaGsQms6jT8gbN5Lo9b9xhIk+vjeuPNH73xjSPiJvm6iinc0Pa+GyPGzIR9c5KAJx8e049d62wX7XlwSug+zJJnBFWBxqLHUB9bn/2FUcV542Moeh7sEPjAxXNPFbJsOyoEtxhlF13fpGr/anSsZLuD8LMDzZFX/XZLjRVD/b4wT54CX6prh9uB69Hw/Pz+eb+fz//khuX50P7Pr5Lw==);lineShape=1;fontSize=6;" vertex="1" parent="1">
                    <mxGeometry x="1111.7392422410978" y="32.8853574753697" width="2.4177280178445235" height="5.048888472790923" as="geometry"/>
                </mxCell>
                <mxCell id="33" value="" style="shape=stencil(lVrJblw3EPwaXQmSzfXsOP9hwHIkRJEMWdn+PsUIfBoW39TAN3k8NWTv1d28s08/Hr58v7+L/sfb68vv938/fn17uLNf7mJ8fH64f318w1939vnOPn17eb3/7fXlz+ev7//+/mV8c/z1x8tf4xf+eccFc8UPVPT/vn/SsvPl/09+fQc8PT5fAqpLjQExXwdE7/x2QhAnxOha2gAmANnVvAKS61EAmiudAUnIYMHVsALMNQXA75HQ0fUmAMU1AgTXggA0V8sK8M7ElVJgO1ScKewAANmhwjJCBgD66hqlOV8lINcVEF3sWoZV6Nxd8ALgXSJAnqY8V2t3ddVSji4IXxp2WJ0vtXnmOaC6smopJVcUoLCWIFUTQlt2KS4A/EQXAQRvjesJZs7UCTa1PgEReksygPp6pVhcVCd4VivSQhcn4AJltXTAJyprNJfXEwIUrbJGdbbKgORZVeZLUycT0GfeuZb4wpplqgsi3iBgXL+fXRfhFuD6kb6vYgHikYayK0LeEFzqfB8hb3d5vX6R6inspH26+XnoO7/++hBHBTIbKzTpcFvMwHxeaDNPfz++r6sanHH156iTaXO2phXEnFfe410mQJr+dA5AAK43QioLyh/yVPgBQJZQV2pTI0emi7KmgVvU1eNGLhUywMpGgDKd/Bq3aHSlpslI4xKVujOVGr2LVKK8DHuLLlUGqMCBXcsGUIV8kJENINP7nom8LCAo5MVYS8oOsKtvbAdVZj/segCq8+qExkKn7EwFdJi+eQBMBlA2TnijkIuUBK5CNQ1sIwhLZ3ALijjEoLAD6FNa7YDSrrRUggtrmkSaUd5aNucbVVCdUFhLiBDF5kt1rbMMWbhG2Sx9gx8V+OYqNAynKm31MzFe+JJyDQBIhpE1FAAdyWq44V3C0uDuXPyrpP/VmKcOci7sUBPH9DClulLmE6CGotQKM1ELk2YBOAe0eeMD0CQlqbA0dYZH1TuvuiiyBNAFBb9XqLvt0lvRmsb1hH40ZueAzHW6m+xucYG4Gq5nSc57ZPfuSXKNXllL3d8CEPvBJYtwvt6YOwOQRAABQHlpAITz9T5T7wVAtWEAlMBCKzYDQNssrSncNlsBous7dTJ1nInkqhBrjA5nUqS+b+6apvGvGaI2BqjKDgC7a5pU9pozkanHCUroo++6lEF53za9GVpSdihMvvuRF64CSOigva8wd4D3yW6sbGkDzFSr1baAUP0wADQEGCGnAG2bNeqeD87ntxPUbAUAOqF72dOMGN2CWnG4EXF0QtCZrE9qceEaMh76FkAmJ7J9I30AdJUrfxpgbIeRPZV7+8lFLgCqRWmNne8iGZ4jCjfgcK+uymKaY+oDUCUna3tZzHI62fy004Wpo0hMYC9MT9rsT88BdRu+Jyk0OBklJlyyKU6WuCyCpakWfAyRV6Hxicozg+quzgTGrzgZWCRx42KyyIHf03h/9EW6g6CRbE5yvF+2xuxGRw3qTFdCQ6tSXzlmbRezEzVLB4BbP2RPpaXEQ1/Tg2v0itSCo89SqS93nsGZDtHR71KfpasiOmqe/2jukOO8wMUYQU02xuCDesUu4wG/R0LnIK+EVpKSK1o/tVAbQzRy7+RMxLRtzDXr9tU27vAxurg2kiLnu7WX2RYIw5RChrjVrKy9Ne4ymLRD3PrdsSpSV4o8w4KzKB4aujOaJR5l7xywzU6QNdQ4Jxjv+NIxpLo24/fbDKvKsTQtQq3OxeWVMXnfkowaIhivcsfYW+mUrRx1Ufe8Zh0jZPH7njvdsaURiX7r4EKSgeB5djXm+GoezWuBKrlh4kGuHrAUbvaiHPA3nn2EuUS56myr8m/Ey/aYQVPCkJl14vvCVqEyNfc64P1+f7lhjFxhgyzhcEXeqsoRxtjfUfWTK6XhK9uCUd2n8fK8SWZn25h0WFwoCLFN+S3onZVFJgjj/YralRgDYLMblYwy6FCqehpSZn66yEBFZbjKQ0yoQQrdtv2/fg9jfVsbNBnHY29BaUKPL/anIanItIUydFIr1VsSY6KWk35LkjZKrgfiadvgDoIr1AoAzWyKflsFAC3Q0ftEfULcBuIq4gbbpROqHDFCrUQFa5fTZzgCD8SjHPLAlzwNYtMcylyLB369VWTatrw1wVW22bblYbTZqpEH2SRWBIDqOMdaeZudqSudPIrrshaePLvrciR58rBPr6BOng52SdUAiLsMqt5GJoNDS4rORvbWph9xAGCVAVkD4uYaqoaG7VEPnE8tiE4B6mHJyZWKrHEnQhdZdk/UmmUjf2I4vUs/cY0sn939/LvV2wD88fFM9tvj09P7K9vL/+dntfjo/Umuff4P);lineShape=1;fontSize=6;" vertex="1" parent="1">
                    <mxGeometry x="1126.9246386684822" y="32.39168476854792" width="6.384012647747725" height="4.287676936878954" as="geometry"/>
                </mxCell>
                <mxCell id="34" value="middler=3" style="text;html=1;align=center;verticalAlign=middle;resizable=0;points=[];autosize=1;strokeColor=none;fillColor=none;fontSize=6;" vertex="1" parent="1">
                    <mxGeometry x="1083.25" y="100" width="50" height="20" as="geometry"/>
                </mxCell>
                <mxCell id="35" value="" style="shape=stencil(lVfZchMxEPyafZ3SfTyH8B+pioO3MHbKMZD8PSOMjGeE2uZtve6WZnrOXfzD2/bpdbM483Y6Hr5ufq7Pp+3iPy3Orfvt5rie+Gnxj4t/eDkcN1+Oh+/75/Pv16eGbE/fDj/aCe9nnqESG8mZj/7CmN8vPp/hu3V/BU/kjIKXModbR7kKvKVoAb6QCQpf8xzvAqUk8I48MN87slnhY5zjgyFXFD47gC8UnMIXcH5MFPT5NQD5AxmJ92SAntlQlfhEHsQrZzIyHawlm+aEwoJ6SUgUPSCwATIj2GV4Q6WiQpZhzlWWXMbAe/JApFq7AZ0QOK3QDZWCdDpwHEHaMSHJMESuG6ASE4o0KWZYOEzQgY6UQSZZcyn0zsjsNai1doX0urCuILmZkKVNFXcLJkTpdWVdsUlOJlM7Auv6p1yuCBn5ULqKFwKXSIWEqG6wsAUwwcuSK6HLMCM4WRA5UsUmqSaWcm+zU5NUuhZK2IcofYiWEjZJzQWuoIIIHLihRmHgKnkZuBBvVVCS9RD4Tpx8RUY6xluEKlVKDk/Pf9SovdWZqpSpGDjgmhNSplJw9rFMqiBCb9DTQKguUHqDnrZj6fSVDlOG/T8Gj3HVyy6bwXQKqUgk2AfanJM38CwOIP/YADXaedgXUKVtVqv8w82vLQOqSgOcQuO2wWWNkmNcZ1ofADeM+xIT4II1LGRMQCqNG19kocEN40rJBAecHndWJiSQfONSHH3vbvct3YxH3XXY6TnOESS36c396vwM8WHo9gHEYIhZyJSBQIasPD+4vklM8Gpp9am3wRle6unNDX0UnrduNHAHe2ymBEp/8JeXbuyvnud9W7wvXJ4sKIAhG0xP1/uSDXfem3B++Put+rLududP3ev/9bctvzp/F/vHXw==);lineShape=1;fontSize=6;" vertex="1" parent="1">
                    <mxGeometry x="1205.8095724604334" y="68.71491178122895" width="22.39276988045014" height="0.7032885662139914" as="geometry"/>
                </mxCell>
                <mxCell id="36" value="" style="shape=stencil(rVfZbttADPwavRLce/c5Tf8jQJzaqGsHjtPj70tVWEWkpCkK9E3HjJbH8NAQHt6OT6+HwfPb/Xb9evhxer4fh/Bp8P50OR5up7tcDeFxCA8v19vhy+36fnme7l+fRuR49e36ffzCz4lXqLiR5PnX9MBRyn8efJ7g59NlAfeeUlV4JuZ9fIiUi8GPd3v4WMg1hfcUAT41alnhM8W4jy+eWNvvmFrdJ1RPTRvkcndpk9AkgMaDQLEBQqGgQxQcxbBPcDzHfGY0qiBKrVIOihArFeB1C5SiIqRMBeiiJnLaiRyooURE8ppQmArwOnsqXhNmrWxLgyknRaiBPHDaFao6ShK3Ak5widgQGmVEcNRMtTGunzlNyxOAD8mqteFEB6raoA81btd/l/KMT5QdwjudA1EWipBfpcBRBfGJFLWKGvcTt1VEVdtfKzXw/WbtETwSnVu1CyEwEl0mjpaQgUVOXuuOV7HopOOali0x9aDSxhFgCIEYiWJNSFDVo0nah5Z7oHed1lESXSOdjmHV3UIKJwJhjInLltBQn++6XOAr6JC5v13gHWiQsZu7qMyKK8fbkMIsryozUgD2rCsfT+awqmTuwt2JD+tOJLL2/xEfqm3WMoIcSHBsxGa1qDBCsouYKSszi4FJYkDWGkqur2PbBJGkTnJ0fSpuE1LP0bwpzFNxO6ryPd1Qpbg9KOVxymqCjFEGJ4jFpuG5AFcLmWmm4ckYRYkbNzpD8HCI1NUOLHhwQLalIPiMllpbyoJnWGq5rhxGQ4eClpFEwAF/mYKZUVSBOatts8B9lm1jyeSAprmfPUsa5srbsg+96Ha6UNb697AJJUomU11K2+X1bz9Pf4XLxcd/2svpfJ5+85bv7X+dPJr+CcPjbw==);lineShape=1;fontSize=6;" vertex="1" parent="1">
                    <mxGeometry x="1226.2148310836642" y="67.24359656696146" width="3.073805524676634" height="5.034723325865713" as="geometry"/>
                </mxCell>
                <mxCell id="37" value="ab 3 ka ek naya node banao&lt;br&gt;and do the typical left and right calls&lt;br&gt;left call ko uska khudka inorder aur preorder do&lt;br&gt;right call ko uska khudka inorder aur preorder do&amp;nbsp;" style="text;html=1;align=left;verticalAlign=middle;resizable=0;points=[];autosize=1;strokeColor=none;fillColor=none;fontSize=6;" vertex="1" parent="1">
                    <mxGeometry x="1229.29" y="47" width="150" height="40" as="geometry"/>
                </mxCell>
                <mxCell id="38" value="" style="shape=stencil(lVlJchsxDHyNrihwJ8+O8w9XWY5VcSyX7Gy/DxgVx0NAakk3LeghsTcwm3D3/vzwtt14fv847L9vf+8eP5434cvG+93r8/aw+5BPm3C/CXdP+8P222H/8/Xx+P3toUv2Tz/2v/oT/hxxTLF2kOe/xx9coZr+//L1KP+ye13Je3I8yVcq/rx4oBAm8UAZiEcqZRJnYj4vninVG8QrxTzrShmo6njcdcgnquDxLpCb5Z2jCrR1iUqcAXW44zSgUmoTQEyQC/CWo6Lsnyg6AEjEbgLESAGdUMnPRk2eGOgQxCaz01IbjzgNkBvPOuRIDegQKtU5inLFUefJz1cqjhLwdEwUZqWLH4Y+Dajk5iuVQB6YNTG1oAHoSilQSRqQgZVSJu8NAPgh1fG8NQB4OosObAANAAKxsVJB+Z/INWMldEIhb3QI6IRKTV3JUwaAwrrISCwV4Af5uyk/iN1AWeqR0zTAg+ArUTsuN6xD0sEnAEZXKuMCq4xDfijytwF4ZKVGdS6V4soKgq86cgaA8qF6ndMCQKFRJdQMALafOPJrAWTYgGqmagAOnVCNHyTLIwC00b1XgARiqbnxvBUA8YUmhbFpKzkEkH5jHBeB0q2NfrMCoFgSQFCASgysJIA8X6lnOQaoaJUcdKC2CkCXGWliQAfHC9VZiFiAXbEfMd9JouUCoMxmalIrMUAlRMuw7wpA9d0mdQEB5MYGgCiZ/F1mK7Uy2MQ5QJzbqMRjQuFaRx9fABIboLMLwM061AQL0wkAQ5ZoryQFPd+kdOc/WGll1s6wsNLN5CgqrjY0BJCQ0ib4pGdBK5nwls4OY8kkkLQ9B5rcqRwVpnnhiNlztYxmf2WhkQLdbiplLUHWZ4ul+JIxgG2OYh1uBJgO8RmPV/agHo8ovk2X6/GIOrXpoz0eQULYTt1dCcxqucAqvK6kG3IE6lqW0AgA0g1DmS6UY0vKeulBPNHGdx1jy5XEUgo+CiZLXQWABi1LjgWA2IOl39IW4QmG4EuOVhBMdoQQAOJYdkjpOYXmJjMGNTyO2kGr4epqRzkBJNAW7bAoAMQT7Th6AWAH3kuAfEJpZNY+tEcDAI7rawGvAWiP0BcPSQMYAZIprg423r48UfnAUOmwMNtVk0MnhKSXiJ3qAisFmbjVDC5lBlQNL1ZSawGHAdGMo3IlUL79QqiWrVeCRLRvAudojWVQonPLRLUMDW2QrtMAP268ACIsxo5Hyi8AHhvPc/vWWV5+uWmd6wtcO0StgDyhocjT+1zfIAn1upcEvNo0BSYy5N2ssz86OCXyoBQreWRPHqve1X1QW2A9NwTM6lnXlpAHuzwjzybgEIFmvYuWxEYExtBtibcE7cmzf32CW1zW7z4kohA/4kH2F3mG7wNY1znXILO49d3NZXn58Pmi6Gn38nJ8z7T+X79Ykp+OL6XC/T8=);lineShape=1;fontSize=6;" vertex="1" parent="1">
                    <mxGeometry x="1337.905602332413" y="64.47118315986444" width="31.28050582800285" height="1.8143217459306715" as="geometry"/>
                </mxCell>
                <mxCell id="39" value="" style="shape=stencil(lVjZctswDPwav2JAErye0/Q/MhOn8dSNM056/X2heqgYkLRu3xxpV8SNZXbp7u354XW/i/z2fj593f88PL4/79KnXYyHl+f9+fCuv3bpfpfunk7n/Zfz6fvL4+Xv14cJOf36dvoxfeHXhReEappYkX9fnjCl/PfB5wv+eHi5wsdIpRl8ota28SlQDAZfqQWAr1SsPYGpyTZBhLo1aHKpbBNypFotoZMAF4oaEA0hCjEDQqPOltAoAx9qoWSdTom4bhPa/HomVMrA6dYpFEOQQAwIXUjEEvRJ3yYE5hGUwchqZQJHNIrW69yoREAIVK1NJVEHhClM2RL0TBDXGn0i9ElBxdR9O9Q6nqyXa6FgTWp6AjBJG0hs5ppGCSRCKFmLeof9kEhs2q4yuT4CVg5AWVAHssejbuDh3oxv1IDDTGGBZzDCFnXaKzH+vq26rjkEdc2UnT2ZIkhAoOTsEcqgIqKfqIoPIJ6JYvR4lF9ZwQcQn0xhYT/sGarNxyeB75dFfgtFNK9Hi1/lN4J6KMTO33bDX1nUP4OVJot67nDMJb+Rp/4C8dR9Fhd4EB+doot+rKAeeHT3FR7Xv5uhGs8E+50dvpKA+LAf6loPAr/vBpzWWwb262J0/S5DMWzg+6L+Ub2FMc3+Ea/iodkDdGV0QJA05uu8lAplENFcvOiqYaypLYVTrQ9FYwpqrs6bfSbomAQntDxk5SwOCsyaKhyxYzGHMZjWCTKE6KxwKuwD9cFtYg10BT6odghO1vXRG+thzb4VksDVqjHpjqBhRbOojdezNC14eLGX11q/KNOqXJuT13XItvXyrr4fVMCjE0L3A+bGFSHohrWJq3Ag6eeyPaBQQ1qZmlOZcH90bw1ef7pcbAIEZrgvSggGs3sxgdVo920cxt1oK5LR41FPKr7bWmA8qoOfEjzuOev4OArlA4+kUEh+RjC8Nf3vbfo2Xn98XN2fDsfj5eZ//d5f9fXR5d8E6f4P);lineShape=1;fontSize=6;" vertex="1" parent="1">
                    <mxGeometry x="1366.2874629075845" y="62.80333349120417" width="6.111856225993121" height="6.389812364409023" as="geometry"/>
                </mxCell>
                <mxCell id="40" value="&lt;pre style=&quot;border-color: var(--border-tertiary); color: var(--text-secondary); font-style: normal; font-variant-ligatures: normal; font-variant-caps: normal; font-weight: 400; letter-spacing: normal; orphans: 2; text-indent: 0px; text-transform: none; widows: 2; word-spacing: 0px; -webkit-text-stroke-width: 0px; text-decoration-thickness: initial; text-decoration-style: initial; text-decoration-color: initial; border-width: 0px 0px 0px 2px; border-style: solid; border-image: initial; box-sizing: border-box; overflow-wrap: break-word; --tw-border-spacing-x: 0; --tw-border-spacing-y: 0; --tw-translate-x: 0; --tw-translate-y: 0; --tw-rotate: 0; --tw-skew-x: 0; --tw-skew-y: 0; --tw-scale-x: 1; --tw-scale-y: 1; --tw-pan-x: ; --tw-pan-y: ; --tw-pinch-zoom: ; --tw-scroll-snap-strictness: proximity; --tw-gradient-from-position: ; --tw-gradient-via-position: ; --tw-gradient-to-position: ; --tw-ordinal: ; --tw-slashed-zero: ; --tw-numeric-figure: ; --tw-numeric-spacing: ; --tw-numeric-fraction: ; --tw-ring-inset: ; --tw-ring-offset-width: 0px; --tw-ring-offset-color: #fff; --tw-ring-color: #3b82f680; --tw-ring-offset-shadow: 0 0 #0000; --tw-ring-shadow: 0 0 #0000; --tw-shadow: 0 0 #0000; --tw-shadow-colored: 0 0 #0000; --tw-blur: ; --tw-brightness: ; --tw-contrast: ; --tw-grayscale: ; --tw-hue-rotate: ; --tw-invert: ; --tw-saturate: ; --tw-sepia: ; --tw-drop-shadow: ; --tw-backdrop-blur: ; --tw-backdrop-brightness: ; --tw-backdrop-contrast: ; --tw-backdrop-grayscale: ; --tw-backdrop-hue-rotate: ; --tw-backdrop-invert: ; --tw-backdrop-opacity: ; --tw-backdrop-saturate: ; --tw-backdrop-sepia: ; font-family: Menlo, sans-serif; font-size: 0.875rem; margin-top: 1rem; margin-bottom: 1rem; overflow: visible; line-height: 1.25rem; padding-left: 1rem; text-align: start; background-color: rgb(15, 15, 15);&quot;&gt;&lt;br class=&quot;Apple-interchange-newline&quot;&gt;inorder = [9,3,15,20,7]&lt;/pre&gt;&lt;pre style=&quot;border-color: var(--border-tertiary); color: var(--text-secondary); font-style: normal; font-variant-ligatures: normal; font-variant-caps: normal; font-weight: 400; letter-spacing: normal; orphans: 2; text-indent: 0px; text-transform: none; widows: 2; word-spacing: 0px; -webkit-text-stroke-width: 0px; text-decoration-thickness: initial; text-decoration-style: initial; text-decoration-color: initial; border-width: 0px 0px 0px 2px; border-style: solid; border-image: initial; box-sizing: border-box; overflow-wrap: break-word; --tw-border-spacing-x: 0; --tw-border-spacing-y: 0; --tw-translate-x: 0; --tw-translate-y: 0; --tw-rotate: 0; --tw-skew-x: 0; --tw-skew-y: 0; --tw-scale-x: 1; --tw-scale-y: 1; --tw-pan-x: ; --tw-pan-y: ; --tw-pinch-zoom: ; --tw-scroll-snap-strictness: proximity; --tw-gradient-from-position: ; --tw-gradient-via-position: ; --tw-gradient-to-position: ; --tw-ordinal: ; --tw-slashed-zero: ; --tw-numeric-figure: ; --tw-numeric-spacing: ; --tw-numeric-fraction: ; --tw-ring-inset: ; --tw-ring-offset-width: 0px; --tw-ring-offset-color: #fff; --tw-ring-color: #3b82f680; --tw-ring-offset-shadow: 0 0 #0000; --tw-ring-shadow: 0 0 #0000; --tw-shadow: 0 0 #0000; --tw-shadow-colored: 0 0 #0000; --tw-blur: ; --tw-brightness: ; --tw-contrast: ; --tw-grayscale: ; --tw-hue-rotate: ; --tw-invert: ; --tw-saturate: ; --tw-sepia: ; --tw-drop-shadow: ; --tw-backdrop-blur: ; --tw-backdrop-brightness: ; --tw-backdrop-contrast: ; --tw-backdrop-grayscale: ; --tw-backdrop-hue-rotate: ; --tw-backdrop-invert: ; --tw-backdrop-opacity: ; --tw-backdrop-saturate: ; --tw-backdrop-sepia: ; font-family: Menlo, sans-serif; font-size: 0.875rem; margin-top: 1rem; margin-bottom: 1rem; overflow: visible; line-height: 1.25rem; padding-left: 1rem; text-align: start; background-color: rgb(15, 15, 15);&quot;&gt;preorder = [3,9,20,15,7]&lt;/pre&gt;" style="text;whiteSpace=wrap;html=1;fontSize=6;" vertex="1" parent="1">
                    <mxGeometry x="1380" y="9.14" width="200" height="130" as="geometry"/>
                </mxCell>
                <mxCell id="41" value="" style="shape=stencil(lZzZkhzHDUW/Zl4rcl+eZfk/FCHKZJgWFRS9/b2Rnqhi10X3SemNGgFdWZlYLi6Q9ZZ/+P3jT799eEvh929fv/z9w78//fzt41v+y1tKn379+OHrp2/2r7f841v+4ZcvXz/87euXf/768/t///bTklz/+seXf61f+M+73shHL0srhf++/6UdNf7/D399l//86ddH+XjUfpOvR2+v5fs8UhP5WEC+H+W+nnL0DPL1SEPk4wD5dMz7evLR6PeDricfAX6/9WPmm3w66gT5euQk8jGBfDrGff3x6CQfjqryBc63jqMGkY+w/trUHuIROsiXo93XE44J+1ltu5P+Pq0/Hnno+uF8yzz6FPkcQH4cUfengv2XduQs8hPOq5Sj3NefTgN5Lp+OVkS+w3mVoPaZjwznlecR1F8m/H7u3h8bnFeuR9N4kmA/c/HxZND6zV+qxLcC9pbj6a6nfEf7yeHIUeRp/9M4j/+UH2eAeS7f1V/maYDP5e31ksgPWL9tn5xvDEeroJCdw9iW0RPSaQCXQsIQtDxQlpTRByyERHmCWQm8QxyaBGLFKBctqt+tKDZMM/a/9Qkd8976PXmHgYHOVpycwqQnFPXMaKZBL227LqHFggctKWnuWMEOTMMsR2wpXen5lYJkAwsvgV46uHeo6M9T06U5FNneOPo9fJnDVvDPcaKHS95+AeQNDsmWzmNCvGsnGrjCdcT1VzXsFTBRPop8ORPu83xzZJFv5xE+j6eaziyhEL7JJ9q45OdRwILMRO/rKfF0ixfyUeBoRnzjLNoSOlr0UeX37QQpsDh4bIAN9ieq/dRwJHJJhU8GqAY52IkeLnmLGhRUNLYbIKT87X+f/dG/75VAX+3/PYoaACY8aucrcCIgXrzQ/CUfEQ9ZshT5hOvJZxq65AviiazlQ2P8ZOhNfr+fEfVFfBC40gbaczuj3wWfwhlhXsTDfl9PZ/w9jiHyvJ9XdL3krwj2KiNJQLSKtJHDGPiRJ3RO9FkRex+nkb9CBuV+BlaEU0w3aCJZdXARZEij3U9tWNYgL7BDvb/0KCdufoUBxc9GZRybtc4aVokQEL94hUthIBOwUuXdlMY8F/kKustLz4C+YMYqXMCMGLzMWvM920yzrk21IkvKnI6j5m9TqFxv6TsULFhyVn8whUoR70oYl0LFkGGIQzCgKTSuYSVozIZJc2GOrgqE6hbokCWZtcI5LNRRVYHeYcEOeYJBT1JoZzHwoFBoSUMra1OgytGQhx7cOLPRK+5HkpspEPitVbPVUiD2arhz4CW1oEFgvTQp5DNsPShksKXWzij0cNKEwNrUyGcKVMxaBpRS06yVEoqlwCo+XRF0drN+eUJBFtQymu4S07IjKA6wyEdxyRKUAEOLrfQOixiXJwSu7OrpXw/5gYiRcQWVhwxEkW9ltLu12l/I4+z3suTphlHDVhxd2qVAZgqCJwfz9SsFykvnE/I+V4jnKz5gjQIvPR0LYWiG2CAzNWFSzLqI458XBfqAyAagGbP+Jgodjc/8S8okc6lET7CqWkBiQayxXF6WlBE6mIJEb4sjRL18z2gP0B5PumttbqEtgfFNVww0DpWmINHboi1Vqxaro5QzlldpSQ7CWQKgqLGSrCwpsfENt0vhpNBfKkgJPdkfHLqvzMEshftLW5FOmG8OzXG1YKh8omCAaPOEe6isEdGMVyhcND1RMDDB5yCBbFE9ZK1eoSJIfKKQMdw/UUhIaz9RCEhneIU8kEN+otCQQHuiUE5O848qJMR8TxQC9ni8QmIS5IlCw3p6+bTQ1IUj33A8eEJq3odKK8nR+Fz0jhOZmXnRHpfCYJ92ra3YdllUyPC4If9daRnzWeS8UtDudGKPcyXN6oGQPyT30gGJkIWXpKRh/wkOemP+GVM7WwMJ9AUpBZmc6eUVKu7aECZsNZoWJ1cR+EpeGWgeeGmKoSs3hJoyJmxzoykDzQ2DtT8SgtEerESQBm9B1mq4jhMDepMXQF/OA3xVk4jLFIy+w5XoFenSVfOo/VA1vOSnyFNDy9dUlQnoodV2RTBl+znUfiiyj+7tnxDquMiBPyjftMLbrKfpAEVl+2muY8OFfNOBi4oQfjRF5BWLirUe3X9iSFdFrf5FDRWTn+q/6C9PBmo2/ihgfOvvU/13E0/+lPzKL/fzbdyAibr+zoRC0kJ2cJWZHeXHICK7SY6AHbZZ3LxLxBbSKvYFdSSuSpuyNAZTiDgyBSEsYtmhP2nLxcbv4KJi7DtQPRxcRFpnnu2cB0CKYG46UJ1w3sUUhPZfpk2m4ZqFO9juFTaFgVPYlR5eYVPceIVN+eQVNgWaV9iUgE5hV2R6hU0Z6xU2hbJX2JTiXmFT7HuFDZ3gFTaExdSKbkeJeIUN6TI1zOxoHa/AxFEM4VzBIzdF8yxPNCZOmPqNXQTbxjgkw6VdZNKZ+3wWz68UhMJrWyct9xzU2ja6ypI6zimbgmzr6kNtiB2ZxAg7+ksKqdW4YkJB7LVn7DotykJK07pjIGR4t2+2tSl46zwevDrTMg8z8T7ALK4BE7CZt9rx0oDhiaQFmARgJSZFklZUo5zd61eQT85hbHga30RqOALwfVLjUujYTxmO3R0DjW84W7JnUr99df/cdAhNFo6iYcb2jax1ZDcKnriUiYr6Fl0FCmabMrxv1kVpsbtidXI11quO+y/wS/eNkprG4hnpAs50cw8d4UlzhMoKbaTgPM6CJ82Ct6gl+koAfGlHwv1KMTRZUd1JT0woK/NrFRTQ+mrQydb1CLqJM3Rsbb0EKTimbaU9mkV2d0fmxLBhMFI6w3bUlLOKuw1iCnidZWj1ukovHmbqTRUSDXxWZ0w8A5CzG0C57iY8V0huTKdiz9NqGJ2vKliZLQq7qAKODzp0MhngJ8dKWqykyaHUteFuChHC96LZRCHiUNkqPuUdAoa+lJV5WymIdimdsfchKxJ3noJSGyuLEV6f54jAAxSgc4hdg8DIfNGmavhecIYUihsUDQgFYtKR/j4Qw8WoXIilPbpj52eOK9re0BDQC86gdSVCesbR2KadvB55Ts/NGwdExUXxoeVgwodZ+TFLwUR3Je2oWPFDLa3oxkgKUohR53qtfKM0EhRLWoKnLBK0aGgB7SfoHZjKfv+shib7CRrqNncwgjr95o6Hl+c7JEFnYdcdFYikfn8ColR3nbAMzGdBUcLienA90mEwYDLAPh2DXvgOg4OPJWLicLA/T75vqTAqd6QvkmZvwyREk2a3noLrL+fg2gPnSXV/1fPNEeODGyOwiE1JzHWY00B77mr/ie+KdndrsuJY9NCia9NymmrPaTOiqR2SFYHJ3oKOB69rW3QJLJ7x/lIIfMss6SsbEsFrPFlzWOQziy6JLehCT6hKo6zpFb5CLGkgbm4Wda2HbJHUSrVXlBItMmEW/ccSEt+ZiZpq1rgLXxbXW80Bxz9SVrAykZxa0xVSoTFGbm7mmlF7dwQe344f2g5uyLta7ZRUPvH3DKQ9XfGIrfrT5Mf3D4tS0wXpR6tfxQ0yDpjnoVP1fP82T//9FerWlqjjT5G/n5EVfEfE0sV93yLwfUtnP+FkCJ7LTyUQuJqpDhzwrLv//sqG9rnmEB/kwf4NSnZdD5XRdSgYChjY14UdladcZlBe/Ctgd7NV7eVcN5yfy7txo4hdOyulJD4kvJq5Wh5q/4SNu6MlMq7fal//PRiwt+7o1cLjOsmPzyFnXTSHVR53cVcxKu6/yQ8dN8JxqaLcVmOSvmhLiTugw+Uvvhiy1qP5gpizdX1HbjxgPB/FXVhHDtbki/5+pXEy99WSxuNhRfPFRj77/cRxvj/7vbStvP3j+8fZfvn0+fP7t90e/79+zM3+9P4huPzj/wA=);lineShape=1;fontSize=6;" vertex="1" parent="1">
                    <mxGeometry x="1474.6239190814192" y="54.24858075107224" width="8.299057691200105" height="14.684810101664139" as="geometry"/>
                </mxCell>
                <mxCell id="42" value="" style="shape=stencil(lZzbstzGDUW/5ryy+n55dpz/cJXlSBVFcsnK7e+DzilyhhvDRetNmoPmsNG4bGyg5y3/9MfHX37/8JbCH9+/ff37h39/+vX7x7f8l7eUPn35+OHbp+/2r7f881v+6bev3z787dvXf3759f3/v/+yJNe//vH1X+sJ/3lf19KWylqVwn/fP8lbqv//4K/v8p8/fXmSr3ObTeUjyPetZpHPHeTbllS+kHzx79PofY4/P+RHAvm0xbN82WIA+bDVKvIF9FnGNprIjwnybZvjJF+33EC+bqGLPD4/q/7bVuj5catn/fQtwH6z2U8V+Qbvk4c+f2wZziv3LXWRn2A/ual+Jr9P2fr5/WNABWWz9/MGYtwSfUPcxvkEotkgbSFsMZ0X5C3CGZhKkiwwo4Y9mA2ks9HFupvJ6wVm9LLp4xGvF6Stnd0gdl4QtyALbFewh2jnKmqduIf1vPNJp7AlcH174xDOCyKq1ZQ4zmpNR7R5vcCC3fngLHoF+obiXsk+AfdZluMWTLBWs80kCyoviFuWBZ33ELY8zwsG+sPcqmh17jnupfxQpZpDsXw8v09mh+57Ajjk05bB8NrWzwqyEFJQPsjzzfvAder+tEO+bhX264zOYial2LIH6EO+7xHtdfxy+50YvvLuVEfGDJhiXWixnDXg/ZP6/cqJ5DN7Qj3ky9ZA/3Fr8nw7QfKYHQAd8h33aw52tv8y9xx3JX+2B8MwneXPsd0wUv2R9zHMViiObvVsDwsTonw/21sdHFAcgjow7ZU9nPXf4h63r+ztfL4to39lRSCt3ti/IKJmEQOfP+T5BqHQ3yWit7lr7EJe4km3EySIqf7e867hi3gl+un2Cby/xbezP3bWT9X41sdusRfxVuJ5N/1APOmaUseRAi/kBf+NhPocWxPEm9F/LT+e4+E4MO1VApYANOrWyCFdRBlty/QNSQHp6AyELAdkXUBlzQJCsumxdUJ/Veu+YQCSskBTWDCtFKQw2hUIzchxfWgpPRPWQgZwxZJmxkhqoTGdNz0PAHkF23vWBR3OYYED2bSBD9jDKlfP/MQ0RVP07XtyeVpA7r/w39k0JpceBg/1Gzo60KrozuY9x16yXdWMceiCQgvK/uenBY0wV9WkaQtwD12jqi0g4iQf7vInF5SkLrpeCRzIYJaa92Bg2vc4/bSA4lKNGgRsAfnDQjbOlipgi3qwH08LAoH94E6aCZqWlHAxj6NzMPSh5l2R8mpdK+tZMMEZnqiyaSb5etSUa5GPYqshiiisDmOS7mjEm+htmEJQnuUHit4GKoRYswxEsMdQRZW02/es9xoHBAccGgJhwxVBFhQkywxYCFlsn1DatecVWWAZA2LrOErRJ7BEade2KIFsMB9nSlS4N9Fa7VyDw4d0DmY5AvjMWAZ8g9lmEMRa0R+mO7jOtI75Vzirtaf9ZF4vsOedM1APO8x8vaDqN1iVQVX2dOSXlTGT1NoU5za2Vouk2RViAYzPFszzOVilR3naskE9m4aVkhH8YWW0s5YsAVAttjLaOS7VijluAQVZkHeDv1og5V5NCBKny6Kr5wEeN10L6NH0uFqgPZeOmM9MQxJKYVS5MOR508W0RJs2rZ8PzuAKRY2VM4WFCXukuvI4CWT5xpaK4yE75rjpW18N0cyKGvJK5S4uCTjJCUvj6biwxaWSaQQl21Y5Sw4UNC4lBusr3At9zB2zR+X5RMoP+oam57AoLEq7VV300cy4ytNSllmxSf4wklbsVv9WODhLsoIqrSRvBH8c5ouRWZOhWGM1AmAPvbv6AWFrrxrtByLvxTpJWkfa1jCo8IwNQ71l5KGd3U7v73yHYXp3ZWvZS7orlB51MoBoUisD+hB56vRbute+zl7qv5Z3ED0xTZedxWFjygqlLAaH+q8HvnnIUz/R5Is0UbGNVV1ijojmq0MvAVOayYu9WYLiSQ4nTyHi1fuQ//r9hjv9FH0fmjzw5xW4lp/aZzJ52u9UmjQg2jR5wYKBJ2mm4q6jMXopr/qv/D4S0gOWaibv9Enxobp6NiLHa/JJ5QmX2vnOrPLsjy4+3Dw/Of+l9x/al73RT9/d9U/qv+vk0M352vPV3tB+ho6V3Njn0D7fjf0P7QPd+lfQ97/x3x+Sb66vHLDL0YoyogcmuuLVpuYXzF9d40nEeG71tvhvwjEAwwPiX1wdL7yhk3M0KbXwzNl+CuOfolUft/kMjyWpdJFl6c31cZHRMDwp9VVnhDuUcxzYd1i0k06eET4xyC35IkakAoYbXTSMTrOCVjaIRd+MeS26UCBK59GZpnuOE0GiFVddQGLkSmYql3YzEGoFYpIFFcc3ZlS7S8zxW1WsM1UT2w62QDr2VhXTBMfMroxOWOTOojMuVtln0lLRNlyuWOTO6qgAnlqxBTrIOxHvrr6HxBcO2LZAAGxJTCt1rQjKTWfdte5LxRy7+k8ym9SZohxaZBVuks2pUakGTAtzaq9ljUATLzv3suGJcRz8SsLA14rEVQxBS+9Fm5Je566UJ2IW6bqpbEO7IaLGbmtP5DLFSk+brjEfXiD4q/FQxPQJbiKjYS4nk1yGCZCuKwqBLclTjbzmDWRBwVnJ6YpwS/M0UGDRWDLKyttMCEq878dcxVVGEVzYJyb21WE6b3p15qjp1bSSenTmrghBP/Jzk6i1D1cwBY2sxbh9ZyGwEbX6sl1hog7KqJveaIywzxcNVBrhMUMQwGpHORlRSt4160JKzXXJJsdKcxfxB/MQslZzSOlhrc4csWrDDdgU3HRzNKiFBcooFueEd5l80i1o3p3czlmVc9cFWAoXzYr3gx3CPa7hFDg4y7JRzmHiUPC6d5N1AU5Zu0H6lcRoDGkq6JsTC1ADYFKgPyXW1yuqRuPJHpTzXoI9b4JuxyQ32TGRlc7BmetEl0sOz6zUTSNqY6chnhZQI84PhJq50sxC8ubakfp43LF7cjniUleRJAdXsUaxMmy6GR5KctH1mSePgkTX1F3tRZoirZoV19gDz3jqHBIz7FYOCyO5wAENhSY3CcuwclXokkYHdlCjK/ItKzbCoVqBLzCB8gIqR0PWfGixaziARiK6XvwaBas417kfie9jarN1HNcFLuST7Dfg+xxXN57QIcWjonXDmvXB4X0hxTpXAVmBW8/IornBt0eb8HWkcNcxWT9JpzoNcNDlpKT209g+3ahsq3ytTxO5wZNGcUuDu9V5lDSDTmUYmiFoHvS8Fo0OoT1oZH9cgL6QF3qrFpwM9pVzQhji5QMm8KAjIuuyEepT3r9wJR8UMK/LUrhfoTBLwTnOoICl5JvLWIIDS8RRDJcASsD79Un1kweW5EmrqDUERJeF3dAQTyW4SZJcsUtWtBzPBeNbdZcXM3dx9bxy5PJGr+Nn7op3xwZPJLMcWLRPaIph7NnhiTxGplavm6+uBdlbUGog8Sichyh2hpRRY1KVJr7ftmDW2YYST28bkKue9CenrK5LEJD0j45bWxNVDHdl0/YJdQmSmzuz7ySqbEUKaY00nMdY0ECaL5ULm+omqgpqKXktZTSNdZVGXikh6W/OKAO0ke9A5ajlXwxo3tlpaeK5rd930N+boPHZ3DQBDr686QBy55+PcCptTFQErWkaEkzFEa4cLiydCmApGE9L0ykybjQVNzWUkf8tB7/wkKeKrLqrJImnpLIbB8UmU/WxC7v8Bvc0gSDeXY0PCaZITlTXp0hoD/73ffgnKfzvByVsYJl8Uf0Q3jL5rvqh929J2ywJebrmbl/f/DiDA1Ac4Zq7MsOXeV/JE8n96n0Ir7za781UpOgz82Uwd14ZuV5vD9zJ+NHfq7qXt388fhzrt0+fP7//ttbz3/XHtOyj9x/iyj//Dw==);lineShape=1;fontSize=6;" vertex="1" parent="1">
                    <mxGeometry x="1472.73754438941" y="89.89876078380831" width="8.686287040047139" height="14.95812714451344" as="geometry"/>
                </mxCell>
                <mxCell id="43" value="" style="shape=stencil(lVhdU9wwDPw196qRLVu2n2n7P5jhKDelHAP0699X16tzsUwWeAtBe1Gk1WqdnVw9310/7neRn1+ejt/2vw43L3c7+bSL8fBwt386vNjVTj7v5Or2+LT/+nT88XBz/vvx+hR5uvp+/Hn6hd9nXKuU9YSK/Of/nUYp/7vz5Qy4PzysAZFYBkDJlHkbUJWkDgBlagUAIkkcAFlIwjagFA9ImVgBIFDLA0AqRZCSKun4DiJUBAACSRoBgUrdBuRMpY0AqxJ4QmYS9oAMGmc1CRNAQEqJKaUJADot2ou4AkTQB4mU1AMSAMTaa7IqK0cAmMtqvQdcikLsAHYHvHRkKiP5JPVCvwoIlZLjUsYA7exfAdAABUvA0Vt7kq8DIgX3BCs06ENgCm7iBA5Q9dxLhQLgXvSvrAknRGVknirMJ1Ac89dMCUzb1GSNlBOKl5GnuVBtKJ5HTmSjKagPd06uFC+BDvM0+9ZgwDnL302yQI5yF7cebx1XUB+rv4vPb/S3io8X0N/o84+Kx57qJHUJ5G/VcCphSxDkI34HpoWxG/HJ9beSAP7Y9I3550QF5B+9jtpODkh4vWbZPDKcL7dgbR5xvHtfm8cGlhlTdfkIVDjunmapTyMFfLBqTPVkmA+PemX6plBPeMwn4T227NHVkkF85v70hf+NGpxHtwBsXlD+H40vXQ0W0withzXHrRdSUP2w7PQeH7pJfeeCZLjj5w1seofymVZ8gNWZ10vsBXivSYHsn11QooriJ5tlPwDYNvs47fr+TqOo8AgxO1GLB/nMVlf7KWfTSzu70f3+llmvzg5QA+qsk7wVKiAfE0v3+w1u0xK7eC98w/JsJyYdE7pQcOtM5gbYOIIoYae+6iylUgAp2blSnUQzHAI7p8bxCUVgVS8H29XJFYm6AXSkqdUNqbQBnI0oDdpEA7g9WZdNu2G8J+dXM9TG0yPG2a+1L89NwFjXhr2oAZz5bumtRuRRHluBdDWAjGVqFZ6mDeAE4JLk64DqDeaq0luID344eRtgF5fvNLeH+/vzZ571//13Hbt1/iYkn/8C);lineShape=1;fontSize=6;" vertex="1" parent="1">
                    <mxGeometry x="1463.8731493538046" y="51.735514940405935" width="8.161503838773276" height="0.6806727039098303" as="geometry"/>
                </mxCell>
                <mxCell id="44" value="" style="shape=stencil(lVjLUhtBDPwaX1UzmveZkP+gChNcIZgy5PX3accZx9J6m+JmdruRRlJLmt2km9fHu5ftRsPr22H/dftzd//2uEmfNqq758ftYfeGX5t0u0k3D/vD9sth//35/vT3y90Refz1bf/j+B9+nXhNJYUjS8Pv05Mscfx98PmEf9o9X+ArXneDb9LqOr5kKWrwUSUQQu6ixRLKNHmVkIb0ZgldBrGQouRkCJqkxHUCXkdrQbu0sk6IVUI0hISwKSEEGdYlnCoTQpdqDWTEOTN8GRaPqBH8+e3ElyK1kQOkGZBJqIgyqaOI89m6q00CIWgVdYWHQiJHSEm6rbxWpZOs5SjFWuhIC3EJMQzWQs+SmBiqNBvW3miaobZs89yHNOJSizKsSyNKIuoZdQbxTMjUwmiz0M4E6DMQArTSPaGy2htSrRjgJAtrDEGCLSZ4yboYTHRbrvAyJErQ4Amd9Ay8ji4RqHh2atRG9ARWrsew2zBdxOE6Iy1SBxOsOFTiwiem6nEWzGWYmIUguiCwTglCcIQmSjoTCE5CiDRNRBR1hCKNhVWnhi8VwSwkGa6YMi+mImVBYAMIMfk3Yy8Ig0Wp+3YMm5kLwhMqbwPDjzgQxjsEd4bGDw2X7JjGqQo/tNtNjjLnYfWlMWZHX0tcrZ4wmB7yInEgMJc+SqhodM3ngQ3eMqS4xGXaZkr0GxwkFUkecvKjHWOxsZUPYbUWMHgDOTSWVLf/tDGfrK0nbp9pmdYStlq1eahj9ufrUZJhe3FVWhkY4zYLWCaUZGExEjMv1eDFg6ywNpnmPnjeWLHKkCE95hpyxkep7LyLeYgNkJUdIuoKW8/DZW1BdLsSbhrKribq7z4RKyPbKLtfM7C3M+V0fzPJdMWt1esgTK1ex0MG1eGV4bvfiAOVGUp+4Q9LWQs+x4G2Imy3LTh8InMTN4TSHL6SBLe0uHvSmQa88z/Oe9ka3s1ApY0R+N4dnmkYeNfmElUA8KE4POu7H/1Y8D4eP/5/mXjYPT2dPmxcvvdfMvDo9BUk3f4B);lineShape=1;fontSize=6;" vertex="1" parent="1">
                    <mxGeometry x="1463.30939153279" y="49.74055989353559" width="2.398633348896422" height="4.528929665497556" as="geometry"/>
                </mxCell>
                <mxCell id="45" value="" style="shape=stencil(rVnZbhsxDPwavxK6j+e0/Y8AcRqjaRw46fX3pWpIsUibXAF98zGzEilSHHJ3/u7t6f51v3Pm7f10/Lb/dXh4f9r5TzvnDi9P+9PhHT/t/Oedv3s8nvZfT8cfLw/n76/3Ddk+fT/+bE/4feYZcKGRnPlz/iFb8OXfL1/O+OfDywXeUXzyEMJtfATjJ3wsEIXnZ2h/XeITWHcbXyHP+4m4H3Mbbx2EPBMMxCgQIvg4EUKGJOzIFrDzCiFASoJLDZQ0EXyFKqzgPPjZST5A8AIh0lNzBZIVCAmqmQkOkuAlfF60E8EmSMKWvAE7B4bFc8gCwUKet5S6UdfxIw6GCaIFPoKt84bEwPMZ7HxqpkfWdXwFVwneCYEabM+rD7wREid4egKmp951fIRQKF4ICYx6kgcKvoJheMFeTMPkVvCuL78R72niK/gAdQk/4n0jvkBY2X8yND4V/KJ/8B4vLB4kfIS8Ym/KNB8VfF3bfx7Xx0a8A7v0fE/vHwUf6SWt4NNavOUCeQVfML9W4qe4RXxY809JkFf8X8rafirauxLP1a3lbw3gl/YToa7chzWv3Ve1rsUD4gvdj6RSEF/n83IQq4yf62OEqDx/9ucomNdllhn2jYKNukhZYY4IizVNKNmNMLuoSTWhBjefzjagVIuCSGmE+ZJoglm2IUdKcPKWSBq4AFYhkC1ZzWhy8VpZXDbCbIMNvZZsJRhRgvMtpd4mbLTZi1qOO9V2zb/x1DB2ZTwJCwNeyWWqXYvsHxLYQbOXZE7uybo5N63I4NmP/YPiInK9WHSysgK5v1y/MTdekOilJK9AbmA3esf/RGA1QSOwoqMRWFXTCKxsagRWlxUCL/wagSkLjcCki0Zg2kgjMPGlELi60whMPmoEpk81AhPAGoEpbI3AJLxC4D2CRmBNiEZgXY5GYG2URmB9mkZgjaBC4J2mRmCtrEZgvbJGYM24Rlj1Eh8nKAQ+r2gEQYrxgYhGYBOXRhAqEB/pNIJQgfjMCAnSdJYPpRSV3qZe7OCKtAIbq6EWC4INbW5HjC7ioKkNBol4s5AEtdRGj2TeGuV5a+kifsglWc208emcQKH06Lo5oCXNUhD7gDYCJnPvoeluDpnn4MOrLQpGtzE20XxGDG87on8Q8CglgqP5gEVMbBGpis6ow4X8yeDmU8C6LbUB2HrNPi1RfL4DN+dCxTZAeL7pndpHGyP36EiYU6FpUnEBOzuolv5q4RZ+roYoMK2QaqbH5MAP5XQL76iDJMnNugbUfkFoPTk+ijNvQ4tIsWIfaejLK5Rl0nU6urqBj2LHYPobhouMkXLSsJR04rWy+nJPx+OHjzeJj4fn5/OLyMv/6ZtH/On81tJ//gs=);lineShape=1;fontSize=6;" vertex="1" parent="1">
                    <mxGeometry x="1490.278237216655" y="51.77984694114785" width="35.61193095576645" height="0.6361986025447754" as="geometry"/>
                </mxCell>
                <mxCell id="46" value="" style="shape=stencil(lVjJbhsxDP0aXwmJpLZzmv5HgDiNUTcOnHT7+3JqyBlR9jNyG48fxe1x0Wzk7u354XW74fD2fjx83/7ePb4/b+TLhnn38rw97t7taSP3G7l7Ohy3346Hny+Pp9+vDwtyefpx+LWc8OckFzPltEhx+Ht6E4jb/xdfT/j97mWFZyWpA15JAV6EQhnwlUoB+EYqAz5GykBAC6U4CiQSvi6QMqXRg9iI9bpATt3iLsBMFQiU5H3mDE2qQnl0mhsloKFFr0GYFAlYmsMoYF4Bk2IIFEYJtTcCVDSqbRRIxEBFS505XSDFrvNymKo3KRUKKBEmwINAtkhXkOpMcYxrCZQjIBNTG30ohXIGdA1TPShFECW2POkg0AI1ECXj5silJTHAIiYeg7pK/WVqUMpeQQMVauZOeNQCAumEV0C8QNE5XHtSruAdiwyvgBRTxlrpHl3BS/J41CID1eDxiBHRd2Ar7grsZ18ECx4SKOcJj1o8sUz2g3xJ7+crfAI1JtR0ij+wRy/kNwF/pZfHim8B2pPY4zUhvI+/8R/mSyc8qq/ox9PtAo7JK6jAgXMLXOETLACeHIigTYcpQLUvJdfwU8EjwoU+3lcEytCePBGawfnRDw0rmAbO/yyez0PrPDMq7BBS+oQ4C1jTABpS8DVZFA6ZZY6OMc2FKiCp7URuzOQAq9jGopt7SWGbtp3IbY5qcwDUse0ffsNRyDsTqGPhaISdvYlfiaTCPNRGMvpgaxpaxy2vrjkuiyDgahE/PWzVROTOUztdNhIQpaT+RmEdDZWnrYnqFvIKF0ejt4wNI5pOJBB8HpZLBfDBStSvdSSg45l+V9I2FBFepisFNcBtw6uLae9R1/CcHR52MKHoUgBXhOV8dXi5Yf+YsYBHmvTLyQcereFL/KPDowuX4VNzeLhypfl8tCIY3rXHGxN5uneYPRj/qVv7bbw9fHwieNrt96cvDOv//ScFe3X6HCH3/wA=);lineShape=1;fontSize=6;" vertex="1" parent="1">
                    <mxGeometry x="1523.0243762247353" y="49.756198987781545" width="4.123079047533998" height="5.147710167798268" as="geometry"/>
                </mxCell>
                <mxCell id="47" value="so left walo ka inorder =[9]&amp;nbsp; &amp;nbsp; &amp;nbsp; &amp;nbsp; &amp;nbsp; &amp;nbsp; &amp;nbsp; &amp;nbsp; &amp;nbsp;(ek hi element)&lt;br&gt;and right walo ka inorder =[15,20,7]&amp;nbsp; &amp;nbsp;(tin element)" style="text;html=1;align=left;verticalAlign=middle;resizable=0;points=[];autosize=1;strokeColor=none;fillColor=none;fontSize=6;" vertex="1" parent="1">
                    <mxGeometry x="1550" y="45.190000000000005" width="160" height="30" as="geometry"/>
                </mxCell>
                <mxCell id="48" value="so left walo ka preorder =ek hi element after 3 = [9]&lt;br&gt;and right walo ka preorder= tin element after that =[20,15,7]" style="text;html=1;align=left;verticalAlign=middle;resizable=0;points=[];autosize=1;strokeColor=none;fillColor=none;fontSize=6;" vertex="1" parent="1">
                    <mxGeometry x="1550" y="83.01" width="180" height="30" as="geometry"/>
                </mxCell>
                <mxCell id="49" value="" style="shape=stencil(rVjbThwxDP2afbVyvzxT+h9ILGVVyqKF3v6+jkYTxs7sCUh9WwafOL4f5+BvXh/vXo4HZ17fLufvx9+n+7fHg/9ycO70/Hi8nN7418HfHvzNw/ly/HY5/3y+X/5+uWuS7deP8692wp8FZ40hYxrMmb/LJ0N5+fB1ATydnjeAGqgUIR/JuuvypVDOQr5SSUA+UA1C3nryHgAMVanAZor5OiAnqkkAnKMQAMBR9RLAGoCPUqUkfeQdZQsAhVyVgEw5AkCmJAHBUQJuZUCQNoRMDniJAd7JOFuKwEupn9cBEXuJAVECKhkQ6QaQqZEcOeRWBkijE2cvNloD+pcPeolj7ysERJka2ZIvEFBktmauB+TWQlZp4ArFyRdk4LhCCrpSWZO5Awol5KVCVV6Ji9YhL1Wy0uji1jZ1DeCUBk8ZtKUWJml0iRRQxTFAXYlTA1VcT4QOmKR3WSu4d0pDBad3kq27Otj5UtJX4m7ukYbe2zsgkUFeshSUht6pdgHcI5LMpcpeAm4NkeoAqADg17Bu5AvoY9zlvJZPQN6QD1oedYBh3rI8GqCGosqKQgWEwOr5yfIJxDiQcVo+oDRdU2wjj+Zz1R2yyYP7WDagDgDQjmzQw5MBEdzIxh0NaNratJNzBtmQhiD0BnUNYIesQNOWjQ5JAzKofcujctBQQd6xflk3G6p4JTHKqAAUAofNafkC5N2OixCpMmvZbuQDiIFZQ7qNGTzfDYVQYWMJRsuj1uh3zkf3j5oStroBWV127oOIBRem9Z9RwMRdcZ3aqcb/AfioKWQrfXAlnh5ZacjQ6FAHL8V1G9iPgtHkiGesAxqYVityxFMcGR39Suc2PCGDxGOAal8TJtIA0q0TrtMAMjUmbCoOU2fC1xhgZTVPGCED1NyZcE4GRFk/E1bLgCKNnvDmOLCpCTNnQJBGT7g/A7LSgLcLBqjkm+wvkfmfAuANaQeAd7AdAN7yRsBkj4zDsJ1sqg0g4zDZhRmgNtXJts0AtYO1fR5pyGSkhvZigApoaPcea2Aqr5i5yxTwshCHdxWPNPR5vHm5CaDNvGf/5m0IpUZ76lHzATqJe0qW8mGtj335rMPW2fo1+eKUPHJp4WlmlTyikdzXo37Ms+A+bXBEJW/A+TyZ1F5u1j6+L+8paf+gps2zVb1dTM5POkdZHpQZD/ui72PBmGqrVtX+R+fX8T4B2Vt1+zWQvnz6tfYDAP7x/jj8cHp6Wt6Wt//Xj8n8aXmI9rf/AA==);lineShape=1;fontSize=6;" vertex="1" parent="1">
                    <mxGeometry x="1592.2646717214216" y="70.7180044135371" width="1.6321837512477941" height="16.34485836843053" as="geometry"/>
                </mxCell>
                <mxCell id="50" value="" style="shape=stencil(lVdJchsxDHzNXFEgwfXsOP9wleVIFUVyycr2+2Ay4UgEpXZ8myHRxNIAAU7y8LZ9et1Mnt/Op+PXzc/d83k7yafJ+91huzntzvo1yeMkDy/H0+bL6fj98Lz8vz7NkvPXt+OP+YRfC06ohhnk+feywBT478LnRXy/O1yJO0/Fd/KRUgbylRx38o7Jy32Anld6g5yuAIAIce4A3lMK9wGBqfQmCVN2AFDa9gqoFEGQYqLQ+zAfUe8DUrA+xEIBhDU7kh6QMlUQpbxuN0BOJP4+oAiV1AF0hQsAVAq9hsrEwKRaGq8rIBODKFXV4C0gAOIUMGooIDUcq8l9bqiVgpyoNq6zW0CFAlKfTLoiIJl0+19QrgCo5NQAGyY1EoUpt/MuNbrG4TYitQOvVYBsUoCXwQnEdWzb12FCRESSNBAB8lUBPluAYMCYfu9oKM4CAsoNLclqAQ4zZ27XmRnEQ7ZVrYCCeCiU2JrEuOZ8sACPqzoPUYKpoak2EOdQQSigWACsIDXJ+KBtLGKnh2yNCYc1WUBBGnLj9briUJQ0NQYNFTk9NK05DEjDRwElDkw73IN0VOgBJeC2GMj1TGvfS+AiS9mmd1KmUadmkt6kqE4DpqO3Tkcmh8aTSGyGB24z2u0BaGBaPB6xNDf7XPIBlqgOVOZechmOWDqyZQNQk9C91GK48ganGZ3Xepo1yFA8sBEPoNZWfi7iDtg+jAyOMjx9EBeQ0oMxDl6/3AaiyziPbjq2PHFj+jav5JMRd6ABuvF0BlnjbQfHQ4i3k5eKg7hLuzn+z/YPvoveFdePyxPsZbffLy+46337ZNOl5bknj38A);lineShape=1;fontSize=6;" vertex="1" parent="1">
                    <mxGeometry x="1588.979654079159" y="83.45981780572069" width="4.332751703616602" height="6.577187820200896" as="geometry"/>
                </mxCell>
                <mxCell id="51" value="" style="shape=stencil(lVfZctswDPwavWJIgOdzmv5HZuLUnrp2xnF6/H2hqlRM0NpO32R5IS6AxcFJHt72T6+7id3b9XL+uvtxeL7uJ/k0MR9O+93lcNWnSR4neXg5X3ZfLuf30/Py+/VpRs5P387f5y/8XOxqpZBmK3a/ljdCLv958XnBHw+nG3ypVGOH90wStw1yoeo6A/YUHDDwjcBqkBvHuwbJU5HehUARnBCZOHQGwTev7hoEpsy9QSUPKIlQ7inFSMVvG3Ai10dJvcqAEjsbpZRaoO8a+EhSOgMNdASUNK++dzqrD0AaqoweXxyWEkmvvBLIISWRmO+rLipIs41QLcQCskw5WPxfjzbwvvZ4raUCRGErTfEFiIgp9Xy8c00l9zNGhe0BUBJDgCpFQMg1927wDgTUkfc2oKhVOFsDNVMC/F2rwRWfYEAdxWzxDONjExwpAcF52xoVLwCvXaUMeBBPoTjwiVCgPOCxoIu38UEdIpIf8sXg+9E2FMVXUDDKx8SnUAb5Ci3aN/oUwEdsV1d8hgVZBzziz+QGPhV835P4gQ/UfxoaCoq/Ix7qMQJ9aj0afKaC67dYvIf8bf/B+GEKl0QejW1bv4Uphm18svHR3QXVo46Hnn+WtolsTVTjQNKEAQH5TLGPaNLNBpygkjaSiHoCCJHoLtYPmSjEQKPB2TUiJEpoqtammXU70zGJukS1lJRkBSek0gisC2OAi0pOLa3rZC0wcbpoWKVCRto3Q6881xK5hS/J4BkUptaJOINHhaN4M2nwIjEvSpaPA4Ng7sti+YAU12ont6oKFOa8l7DBJ4zPffw95j9eaqBEbxaxDwO0edRVL6tEWwY3HYgGn7ED/3WL+zdeHz6ujC+H43G5cd7+b6+Y+mq5nsrjbw==);lineShape=1;fontSize=6;" vertex="1" parent="1">
                    <mxGeometry x="1591.42622967371" y="84.50761011602711" width="5.089414309627583" height="5.603841242699176" as="geometry"/>
                </mxCell>
                <mxCell id="52" value="" style="shape=stencil(lVnbclM5EPwav06NNLo+s/AfVBE2LkJChcAuf0+fdenEGvl0ljfHVmduPTfpZO++33/8dneK+v3l+enL3T/nTy/3J/vrFOP58f7u+fyCTyd7f7J3n5+e7/5+fvrx+Ony97eP28nt09enn9t/+PeCCxLDBor66/KFSmj/ffHhcvzh/Hh1PEnM0/EoLR0fr5Lm41mqHR/v0mdlqrR4fDyYqE3ng4pVAihS6wywYdBNALzRHaCIFQLIUnQGdMkEYCp5thkurcRoK6IuBPgmkJAFabMN8HMgQUtVSpoAFiUQlTKc2GdAktYJoA0a7AAwhUgoJm12q3UpDNAktQkANxTipRqHxjvAJDFqF8lOAje6gt2zDalIJNRoUKnMgEpVatlzKcENJB8a8mvmUuqU3h3VYQ5c5vWiR7HkAZ0BklicAQgcUwlOdADIJJHuMNo8oDEJSBdXxYySD4A+cyknqYQaQVV05kYuw3G3RTTPDeSUcjfp7KaiHBB9nSlREinerUh3gDwcdxsQhgI7oIkRCTWNdrD3hyBVeRWYQ12hEkkImBhmlWqTzCpZkTAHDlY1YjTYrHOOtkT5jSLhIo2sZYFD3TIH6CNrbwPU10qkOevq1jw1Ok85y9KcBJ5BZkOBHZCoWy1InyO9EZ5QA33XRRoAVphi86PPVkgIl9CWba4CvdHp57Xx74A+xo8jQJptuCokR4ioiwg2z4ThlCsACwQAbZFQmF/3FL4CsKYFQFlUokMcJCQPUBaIsNC10YSAW3UBsMIEgOtyALCEACAvEtg8sw3mtgBYHDBMp8VoJsEWLrXR9w4B1cchviFhAbAWBEBYqFFY4Mx3xY3ePA4rvTunRp7Lxv/J0b6IYJFbOvVmBAtE8GMfAJUZEW5UpswBZYmcMb9CQvCAwLwU/CywsY+71TXeLUd55OKSEJRMfwzIS+mrdFnEPuyrQOE2dD8A9Uzpij4augewaQOdOji32pgDj2YB33jfWHjrUiuDJDZtdL/lYwDqbACKfuFtjRYmzGRuI8Dwy0YsLD3OhmbU6JyHiTtAaU6X4K9aauUbcvU5jfGazcb4WWdqVKUdBRrbTG/IjGwdXdxa0ihtt3eU4NdRuCESL2GK7LPRWJs6XxZdC8qVegkp76ZvhNKYStW3USyLgamUpSzraGIrtY3l82rhrcyGcGNDVsIl5JdXKQyrji4e1msBdvGAJcmt1IlPiW25eNjuQth9TveBS5WOlbX49TXta87RFZO525bEb72qZ+tWqdi+a74DYbdjALDfJRB2O8ZWEME19m23I15CqXSBQ8eg62vw+YBVTUmkoYCLNDavzmYN9Ad3g2rUSzH5oS8qDVxcrslCpQ0lZB/psFfb24A4rnB3wBsZ58PAR5MiaT5e6LwH3s1zCRxKtFf/6BBomVd/x6J0hlH/KqAjfEfH/X8vVBn1DyaZRFZ9keB1Tn0H1JHRR46s7jgbQ3bWvh7nfnfTptKHBvVpxfcc9ZRXupQHv2IrT5A/e9d68zg+vD6hfT4/PFxe4K5/909u+OryXGfvfwM=);lineShape=1;fontSize=6;" vertex="1" parent="1">
                    <mxGeometry x="1716.239810922359" y="61.62541465500729" width="25.235366161734767" height="29.085332732849192" as="geometry"/>
                </mxCell>
                <mxCell id="53" value="left call&amp;nbsp; &amp;nbsp;&lt;br&gt;inorder=[9]&lt;br&gt;preorder=[9]" style="text;html=1;align=center;verticalAlign=middle;resizable=0;points=[];autosize=1;strokeColor=none;fillColor=none;fontSize=6;" vertex="1" parent="1">
                    <mxGeometry x="1736.48" y="46" width="60" height="40" as="geometry"/>
                </mxCell>
                <mxCell id="54" value="right call&amp;nbsp; &amp;nbsp;&lt;br&gt;inorder=[15,20,7]&lt;br&gt;preorder=[20,15,7]" style="text;html=1;align=center;verticalAlign=middle;resizable=0;points=[];autosize=1;strokeColor=none;fillColor=none;fontSize=6;" vertex="1" parent="1">
                    <mxGeometry x="1731.48" y="76.25" width="70" height="40" as="geometry"/>
                </mxCell>
                <mxCell id="55" value="" style="shape=stencil(lVnJctswDP0aXzHcwOXcpv+RmbqNp2nSSdLt7wvVw9gApUf55ih4IrE/QIf44fXh/sfxENzr28vzt+Pv0+e3h0P8eAjh9PRwfDm9ya9DvDvED1+eX45fX55/Pn0+//3jfpFcfn1//rW84c8Z1xqVtKCC+3t+4ojD/wefzvKPp6cree8cOacAgXzaBrRIpSr5RAUcUDOVqOQz1bYtXyoVr+QbcQHyjqK+vw/9xFVA9tZCPlOo2wCO5LUG4d1mq4CUiLUKIVLlbUAsxKwBhTIwUgzUtA7RUwRei45a0QDsNgEYpeWSNW8DxE0l67hwVIDjBJC141KkBMy6BIK+UmJqGJCaBlTy+EpJxzY7ChOANisHCiD4VgAJptsC0GblTA6fYKzE4jh8QtZWYnmCQ8PpaJWUihOA9nSWlLrthAQ9LYBoikzu0bUFSAZQ+ys2AdoPUngcqBorAE/1thMiMSoCjrIBMCxkUiOCNmuRWoz8EMgFDagUUJkJlHXlK61fch0QKegTqu9nbgGK1qEGiuiE1AvjOyDi8E62P1QJPg8ATM4ActdqC+C1lWrB0SpX0glUWy/Pm0rrQtYkWEAhE4DXfmhSyJDSI0DMioJPALrMNJ7pYIiDcBvY42LPrysAo7brbfBd2NN6qSyDDg2SmYVLsQU0YCWhIllf6YqgrSNECTccAbTOlNKgA1K6//dKHjnaWX7Y3rvqhnwa5FHP9ZbJiLwDBUCy0/isQp81S95EvoD3+zQoXCF5C0OzmgHYMqXJlZb+GW7RWVLHD05GRpXkzEOuIa8tFWnINRQW0krC4GcUd6H2Crc3sGMv6zszx1cbqtPkFJ6ehyOAEmXlStBxVIfkQRXMd4Kws0S6oY/gGny7fDNRgZuCyJtkxl3HdWvvbGtu6Dm4b0rxMp0cN+aBCU86v8jrmJ5QC9e50E7u8j6i7SRHfng/Zl++R+9OehfsxDbjj52D7yWofYbdyYATJcOYMcWWsmjkMYcXeV13J0PC+H48haSeHTvHnKGXTeYovnFQk+y+aRLk3oV2jppMSdeTySzLxGbgx8MyW39NpvFRHo/7ozzeJ7CNh8nCYpCfbETY9tTJyoVt/UyRIoh/pmre7yCzyZbsLlsp0L8KOV2fL6PU+rZyba+GGrykt9mels6MNsmf1lhqElyTVcu/fetNc2uZaKZ8GSo8qkFsN0ZCW5AOLEobVtNXF1sbV2dXwEjlXHqPvqyY0X2K5Ii+D15hizzrKoF35CJvWJmDQV2S7UoONg3pKc3u7FFSSo9Lzsg7cJ/q7YrcwaIlnMF0YcxyhcMYFoHlhVMZVozv04aujfVt2c4a2J4yHPlb/HXhtPvi4dZvMnN5+XH5APTl9Ph4/n50/X/7wUgenT82xbt/);lineShape=1;fontSize=6;" vertex="1" parent="1">
                    <mxGeometry x="1466.8881321433303" y="23.97477796112034" width="0.7999631046934935" height="20.80785628941595" as="geometry"/>
                </mxCell>
                <mxCell id="56" value="" style="shape=stencil(lVfbchoxDP2afdXIli/yc5r+R2ZCyk4pZAhpm7+PtrCAtXA6eds4OpZ0dGSJQR7e1k+vqyHy22G/+7n6Mz4f1oN8G2Ict+vVfjzY1yCPgzy87ParH/vd+/b5+Pfr02Q5ff3a/Z5u+HvEBaGYJlTkj9MJpfLv4PvRfjNur+yjUGmdfSNN9+1FqIb+foWAFEhyB4gZAjJTix1AMhW+DyhM2oeUCmWQc2Xi3kNWYrkPUKbce7ArBITUziSeWa0UMaBVD2iAJQOcynoGKJUMAEriAI1iBYBCtXpAjQCQSNUDGvIQSRcemgKASWORQwVJayNJHiABAHQu0xWtFRROKxXxAMaA2otvkgZQq4WUnAeTN6DVknYtagAUUrMnwoVkHQdYakKiHpCQWvMNQEYejJPgAYoAunjHCqy0CaFkD2igDoF5ZvGqcien91zUhZgS6iDT2qKDGDVEvaHvjEIy2sUDGi51dvPkwsM9NeVFVytuUv9Y2uMGsraOyNHz2gCvU89lD4hAr18GFJ0nznlCBKiNXH3S2V4m0NXJPPQh2QkDD2Ja6+sgFQ6tqL7U0fQNkrbVovQeIsOkQ/As2QmacnZdby8wIKYgzpyB8Bb9HOEjxvO4vGxWCpYGnjO7mKNn3ojoy8vz+L1dXYreXEDLJD/LjSrQMIVScOZwps1CvDIHzDT/VDPcjUwjITl7NDtC9BsnQ5F9dWX+v719XPbzl3GzOa731//3+7wdHX8LyOMn);lineShape=1;fontSize=6;" vertex="1" parent="1">
                    <mxGeometry x="1464.9076404545478" y="39.882168229406105" width="1.5759579323989565" height="4.284589567604555" as="geometry"/>
                </mxCell>
                <mxCell id="57" value="" style="shape=stencil(lVfLctswDPwaXTEkQRLEOU3/IzNxak1dO+O4r78vVZWKCFnbyU2WFyIeiwU48MPb8en1MAT3drtevh5+js+348CfhhDG8/FwHW/1aeDHgR9eLtfDl+vl+/l5/v36NCGnp2+XH9MXfs12WqiUySq43/MbJkl/X3ye8afxvMIXJc8dXondPl6UNHd4nymAA4Qp9QcETyL7BjmRC71BoQxOSIlK7xJn4rxvEOvf2hnESBG4xEJFOoMUKHpg4Ci43kCphH2DWqXYB50zZd038IVC75IEKgwMIoU+aKlpBZX23jKpMGVwglL2PZOEEoi5Es3gC3EEVLVEUiWHmEcsFo8CTqTR4hXEGy2LJjwoWbD5rHhBJaa0waP8uE3+C6SQI2e+L6SA1BUfLf7fF3bwyfiTGwV34jUtoIky6pkW3QrvQX4ieRNvJIV8EN7gAR+E/MafAPwvFJ3FC/BfKbDNZ4T4ZPwRqNRKsZfRyh8HVLFOmmjxSIGksX3FZ+T/Et0KX4D/sbF3mUyuUhYUmO8IRAGE9qSbhkywYYraBCkgxGZoVLyHDeYMXuDc+yieG32XARAoAH8ypf77kkkBgeqE8ak38FDR66pR+hLn2Gb/3lg1mpikFeV+yJ5C3wTJNVm6b6CN88suEYiBQVRbZY4tDfdlqLSuXfahDE+om4MRXq+N6XsrmlFez7CT6yJgRkeGk0k3Uu1IQOMot3XsHY+IWoWZi8F7tHkk2/lYKKrQbr7vkP9LX638Qcq7KbGD6+W0+DibT9CYk06Zpb3Nkj28OoNHk2kltAtHoVJMQpsNvuCAo73VoBb46C3o//j68H7lehlPp/nGtv7fXtHqq/l6x49/AA==);lineShape=1;fontSize=6;" vertex="1" parent="1">
                    <mxGeometry x="1466.7264836916643" y="40.61362530536471" width="2.6061253094476777" height="4.893739067676788" as="geometry"/>
                </mxCell>
                <mxCell id="58" value="" style="shape=stencil(lVnbUhsxDP2avGps+f5M2/9ghlAypcAAvf195Wa8jeX1cXhbFp9Ydx1pD+7m7eH25Xhg8/b++vzt+Ot09/5wcJ8OzKenh+Pr6V2eDu7zwd3cP78ev74+/3i6O//9cltP1qfvzz/rL/w+4yKlVEFs/pxfGHLu34sv5+OPp6eL45li6I4zcZoft46s6c4Hch6cF3Fidz6TifPzcr3h7ry1FAoAZPK9QDZQ5jnARTK519hQACp4T64XSXRGIgWm3IvkDCUzB0QRoHeCkxuAlWKi0OvgChUASI5yD/DyJgDAEBc+kQM6ZG5htgWGIQZWyp6S7wFiNxSpsVl9AwQyCJAoKUCEVsqFrNIhUwJWKuK4HiCu9BYALJXerFHegHwrjlzvuOigH4qn0kdr9OSBH4qY1faAQBEkUEk6vGOkiETKlPuSVOMX+KEU8n3RiJLlGQKSslLBfpB06R2XpEwCK1ljyPRaJwsR9Yo++hKTB3WmbCm8AVxzzQyg7Jo8RXyD6g0pNF/OAFHpgDOoAtQNuZXbqauVI+QNSrlC3GdQNlSw0iqppVQtzGoUwJNFSueWwhsgwOJaAX2O5kVCZF2+pVS5BaCPJak8qBpXQF+NCzchp4DeSlJ5YMoNjbqE1gFmdUZ1RSlVBUXr0NnlJwoQqQZzH94Xab6PCLrQ1KwF8S0ZmcwAQDI5ndQ1zTHADSJF4GoB8HADir5ahqIGeNB4RWlmDXAgmMSsdhCJ0Q1Rs42a5sgPaUcHCMianlSRkA6lUYVLpRFjEqowKO0xQOdoafxjChj8EBEBMkOOlsahZkrHwQ8ZAXKjCpf5AAiQOE7z+1WOxp1gKkgmoZGDXVFLkfi2dtAasWnJoNGuKL4lR4dwRRxLAH5wtUd2dZpt1HBFOvih4Jcm5MysZQQgHRLZIYMWSf0xgHRN7gu+dIiE6LcdYinCIUW6plOxJC0DtUUe6syij3KLnGs7NTcBruUCTPFjbIP1sLjiM6yrwIoxsR60Vpxs49rXsj5xXG+lFa9ksv0NK+ZqW2W8lhtbzfpW7NvqgXfF7+3A7xcThNWOW80oVpO41RQkgL6QreYs27Y3V45yFaCmy9KK5xSg5te8UloFnwy80KymUbzLkRrpYHTLkqE9AR3yQGeibzuk2fJE9d24Ec19QNANJTJez/i95QkoxtntrGcQNc5DPoQEqYOk/M6KCdOZcYmFZpRKXHsrBQPNmoZi7BNkiRJqqu16B6tGtG3dswEkuoAfgh+2j6GN/fsb1Kh5qDPQcS7rYswBblDdkA9sWk+a7ZnVDXajK/sLoKDnMmuhSNbovVqGHSvq8SHAbsJ6D89wDz9sr/CeUo5bdRzNb4ZYH0fTm9FNxEDLWM3yDMxJq3nqFhsTQw7CGBSammfjYcQ3Q1z362F0E5I96G2baVExCbHBTTgiVZqLV4EwH/zwtDwuD/+/cd2fHh/Pn8gu/6+/icmr8/c09/kv);lineShape=1;fontSize=6;" vertex="1" parent="1">
                    <mxGeometry x="1529.4586537674286" y="17.757906353357967" width="3.166408654607256" height="29.305570357519052" as="geometry"/>
                </mxCell>
                <mxCell id="59" value="" style="shape=stencil(rZfJbttADIafRleCw9nPafoeAeLURt04cJwub1+q6tgaSvqNAr3JY37icKcG//C+f3rbDcLvl/Pp6+7H4fmyH/ynQeTwut+dDxd9Gvzj4B9eTufdl/Pp4/V5+v32NEqOT99O38c3/Jy4SBxGSPjXdMAk+c/B50n8eHidibtALnXynqLflhdHrnbymSQC+WLlnZAP24CPFKQHCuWyDQShyB0giaQCoFIwJoemcxWIibjXoDoLsCE5ir3RUd0GvJQS5dgDlRIIQ3bkfQekTBXYkCOlPi/0JIIr5Uq1N7o4yiCTSqDYB66kFplVoCbyrgNqhIGrmUK2QEAair2SAhkErtaWm1cA55ICJVqgonpjtsmkZmUQalWRjdWFAigIBVzpAT1BVpdFIGrLlq1AiFigIkArKC4A5NfQsnkGFBRq3y4wAzzS4EmcdWtGgNb8AmAQagVy3wXUb38dvXUlt0imiCLtWxua5TfKPnVrYQugdj++b1FB0IZMXBcATj63ABKKtCYzWy8xrtEsFrhTcXURuIDcqrlpgEKCNZghp0BFQGnjYJbeAffKxBYoCZZo6JNv1qr+E5ELlb6VFbULODYH8mameJhNmcn1QE5N5/rk1YHQLwOpwtClxQKkJ6gNjNtDX6RR2rRfB7hF9rpuBOilsOh9/hqa9R1LZ1QfOV3T0DIg1WrQPTCAbBKxC42LcGi5tFj7uPXbjUFKpa+IDJc4Zy90XXw3xLmfob4N+lVxbu67iQeQpmwntFAFl1msDHLn7WxcSRV4klu+38TR4GTbiRguns6aynDgONshGFaj2K2W26Kxnvh288f9KpDYu8NK/7dPr7vi+nD7yns5HI/TR+L8f/tVqEfTF6V//A0=);lineShape=1;fontSize=6;" vertex="1" parent="1">
                    <mxGeometry x="1529.27079896475" y="42.987286862142355" width="3.301874478670167" height="5.080527818831472" as="geometry"/>
                </mxCell>
                <mxCell id="60" value="" style="shape=stencil(lZfdbtswDIWfxreEKFJ/1133HgWaLsaypEjT/bz96BleIzo+Qe8c56MlkeeQ9iAPb/un190Qw9vlfPq++zU+X/aDfBliHI/73Xm82NUgj4M8vJzOu2/n0/vxef79+jSR09WP08/pCb/nuNao5ikqhj/znUi1/LvxdeYP4/GaV1LpeFYKcTugKqXQL1Ao8XZAiX4FDcRpOyALtX4FrZTqdkASqqkLSI1C2w7QSK12Abkud24GSPRbKoUaOLRlXWMXUPOSt9tZIu7LZoVkAUmiyJ7PoGyJgnq+AV6o9CnlECiAA9iBm1+g6jbPJCte8zYfKLkE1aUmG3xono8gocb3Km0FFiyQ9BJqmSpQBBOz5yNS0OKR/3yiAowsJMXzCeRfKa954MpEta32AzyWF39cnxfkv1CWVT4h39z+rV6Q9/s3PQC9FdLg+QYN6fVpekZNizR5voL8K3Gvt/uGdC3rjuOZing+A4EGqqvnM+TjKqHY8MHxhQoQtD0/ej5Aw9eV4AQI+rM8Z9LeATY6GQSYhFwFilkMZFQsoD9yNs+AEmsh6VdIBU4Z+9t1aTWdgxVy8nNDKjGoms1R17emTgP6nM1Rpzu2NxxgtMZ+2DNlUIYWSdTxjJ4fF1stfFjqeJsX33nDkoKtN7SUHM+gBFMfZ8ejPmEydpPbeKA6s5Wq3w9oXGZzCY5XtP/mJ3GAg8b41OeTKaL9NN8YGQ7Wqz778Uot+ACfewW/y9vFx/v+y3g4zJ8L1//77wO7NX9byONf);lineShape=1;fontSize=6;" vertex="1" parent="1">
                    <mxGeometry x="1532.3338983122283" y="42.62703040137187" width="2.6425709701035798" height="4.705820154516416" as="geometry"/>
                </mxCell>
                <mxCell id="61" value="" style="shape=stencil(lVlJchsxDHyNriiQ4Hp2nH+4ynKsimO5ZGf7fcCoOBmCMx37poU9JLZGg3OQm9fHu5fjwfPr2+X89fjzdP/2eJBPB+9Pz4/Hy+lNPx3k9iA3D+fL8cvl/P35/vr95a6tbJ++nX+0J/y64nIilxvK8+/rL5FK/PvD5+v6p9Pzan3KFNisz7y/PmbiYp+f99eHTEmG9Ym87K+XSjkM6zM8j3iScb3j7oFNgJ5X4ggI5N0+wBV7Ile7z7YBkaIfAN73PbcBnsroo3ZIDwBMfgyaOOgl58iNRksmlwAgUBqNDp48OJJn66WAE8+rW90IKCQgDiJUR7eGShHYoKlUR7dGdQPYISRKo5eipwySNUrP/QUQKABActMOqbthG1DJGRsKdKvWfxx30D09ABRv3ZoEGl0KxTFwadlzE1CFeEwNtSoGAEjdiQsHeOilqj5JIyDBHRwz8VhBRWkDnamSjGcqgRjwjBqRR6IsudfUrptGQGWKYIcWiNGGqrFEoRZyZodAuYJkypZn1CoHeCazJVcFJLCD5lrxFlAAQPtPzhZQgZfiwlsLIEMmUxaIxQIQzwTuJ14BKoi0RHIGUHoX205XPfFo9CqB93qQabt1YcM9wnfeAiICaNMq1gjETArg+BE3adMyHaKFGrVFR9UAYj/k3pGSAQTsJaXGaAEO7RC7tlgAgjt1slpAAZDKCoU47YC8VKd0Dbi1O+LZS6BGFZCKjQMiJgWUsUO0SOMdgmGB0g+5J09spAtVFIdqdWWrB8AzWqPFWQAy2k1KvQGA0U2TsQXAXJLe+VcARN9aD35yq0cyUUt0bLx1oapdgEmNBJNPj2T6ruYSGiDUaAsIWK6H7sRVARW0g564WgBqEB8GSOhhWgALte1JXVtArqu07Z419wfXleZ2G9WKMzZwD+Veo47BAiKIg0oBYQsIwIYsvVwWhVVhB1Kpa+JQFjWxDchdWqxEXwJGNxPHiitKniDSquHMQJDx2NTk+lhAqrkQkeViJVnSjgEaSl5mnpW+9yhwmkujl1KARmtqmMAl1QZI9LEVfYmxhhPL3jo2oaYoyfbpiFWisM2lGHsD2O5AwcrKNisi6TANNSplkTR204CsfkN6qfb9VxN4AOujzVVlEUQy3oqloGFGxGpZT3CmTjOc8iYiDLbdTYMIO4PlSJ+gTBfLFuoBNCJOV2kacjQhOraXMiovBYt6c7nXOjzSJGXiYBJ0mabd2VQyHMba3+PzA7RYy9KEYLlA2ZvdzFDC8MZnvs3EY9V8W8rwGm2+jdXngwrL06DHeN6e4sXwpjFXO9Bzr9G99dVkHHnAWYXtMOJgc9L1ZsTznSXfuV46Db/zPALzM09Xhsra6IJk8mfsY/Q747XcFb8zHyIULB+9/f//ev3w71XDw+np6fqmYv2/fTWhP11fa8jtHw==);lineShape=1;fontSize=6;" vertex="1" parent="1">
                    <mxGeometry x="1458.8036211270328" y="12.214702361932652" width="3.596068920562781" height="5.6350443571505995" as="geometry"/>
                </mxCell>
                <mxCell id="62" value="" style="shape=stencil(rVfZbhsxDPyafSUkUedzmv5HgDj1oq4dOO7196W7UGpSzqwN9G295qx4zJDUxA9v26fXzRTc2+l4+Lr5OT+fthN/mkKY99vNcT7J08SPEz+8HI6bL8fD9/3z8vv16Wx5fvp2+HH+wq8Flyq1dkYF93t5w8Th74vPi/1u3l/aF3JB2ftMPgNAoqQPCJWYASBTStqjTDlCgCsKEMUlj13SJ8ibggHeKUBOxBWf4BWgRAzIVFgBaiBuHwOyp6TrUBt5kFYu1HSWmuQNFC46KjpLLVJDgEyxWYBDXIqUqgYwpEaO5A0gUANplayHMgBAWitT9YNLIOjmqbohaAQova7vgEQOkM87R84cIfwGeW2tu/wOKBSQT0LXqAEVdoEqXcMAWi/NdYCjMAAKcKk4G8NFHq6TQxDDEbUA+nkK3gKQSCMPUdfO4Ouak+85W4gEXBKRWs2JqEDvkxOiUYR0JsCmKIoYRIoAkqU8iDQhkTqqAwApQkrddO87ixQELWQqxZ4QADWkNfIAqAAgSaxss5RBpdu1OhQQgwAsl3LP2/8BMGUzUcRHUIbQW8SNE4htxCsjTjKuibcyQ7kT/8YhLZzRA3FlCwj2+ytrhvijtbyyx3g7b1cWpaHL40VMVKbLFfpC8IH3rKvlcfulaLa8vgFdjzV0snd7B/ucb+SsvQdcC8mSH88Clo6T7rEXcVl75I9QK1h7FK800VTuyKdQPfvp9nLJFu+12DEb7t76V+3l4d8V42Xe7ZYbyuX/9koir5brDD/+AQ==);lineShape=1;fontSize=6;" vertex="1" parent="1">
                    <mxGeometry x="1463.7942544043774" y="13.169444052515885" width="0.42640041790028116" height="3.7646593658940524" as="geometry"/>
                </mxCell>
                <mxCell id="63" value="" style="shape=stencil(lZbdUttADIWfxrdnpNX+XlN4D2YIjYc0YUKg5e3R1mOIlkSd3vnv88pHR8c7yc3L9v55MwV6OR0PT5vf88NpO8mPKYR5v90c55MeTXI7yc3j4bj5eTy87h+W8+f7/mQ/+nV462/4s3CNUEKnAr0vV2JCan+v3C3Abt6fAxmlGCAJWnWAhsoGyIKaXSCJAUoEeyUltGyAqis4QG2IFmiMFh1AVbIltYLE14FCyFYlJgLRdSITJNolGtiRKRGq7ZzqQE4jooBtI2oFO4BUkAVK84EMsrrmBhIHKGMjUkV1VIphXCGqW5zO6W1pFggITklaQK4G0CKzs0KuaMkCGSE53lARrZlU6OB8dG+TXUFbGfyBoGFG6V8zykPjCLFcB87c/OkNWoPh8hI6MBbQofJa3UdysGtbX3FZJh36YUg1GJySeqzYkr6i53KrBeXbjFYnBjQa6wBofHozmhCHoVZZHTN1QP4HkDima09Dx0whrm7+BBKyE0yc1rQ+i43ofHRBtW4tDHHaEMYwzrym7cXn1ar2AxKvKXLteWuLSODg1ZNsYgRfUc0TWz831xQcR4GYkZweBxmBBHEmRz0x/Bm0AY6garpBofHfpgdfO47HebdbNizn98cdil5adjdy+wE=);lineShape=1;fontSize=6;" vertex="1" parent="1">
                    <mxGeometry x="1464.2520482337077" y="10.333427687333398" width="0.4789757600453976" height="0.4804450974485722" as="geometry"/>
                </mxCell>
                <mxCell id="64" value="" style="shape=stencil(7VnJchQxDP2auapsy/JyhvAfqUogU4SESsL298gMdtry5HWo4sCB2yxP3bLWJ/nAbx5vLj9fH4J7fHq4/3j97Xj1dHPgt4cQjnc31w/HJ/104IsDv3l//3D94eH+y93V6fvny4Zsnz7df21P+H6Sy5RdEwrux+mHQCX8+uHdCX57vJvgUie4D5Q8xPv58YEiI3ziGV/39CkTngvlBPHzcWOhlBE+yoQXxReIn5+fCrkK8WnC59Qt/JL+s31KpAztn2f7V08O2icafCbnED4Ui8/Qni7M+EIR2DNRMvgK7ZnIs8UL0EdIxOILwEeqcY5/56CBIvFygN+POItnyssBEjgwU3AWH8ABQnfPxgEZ6B9sgCregYQMFOYCoQERQMCF/u/AJ4pAf9fTeyRAIQ+e74hn+xRPDOw5vDkSksmBBFvwialAfWS2v8Qe4mfx3uJjggkcqM54LYhJUHyWOaA5dIu9LuH1Fw/s6RcHaMg6oJBnqvMbvGYMEshU55DwGhIopP2SxHoq8IZWVfIiAN7AzrYNFSgo67WKiz20RwKa5aaxepg3kSnNh261DARSzL3ubFpxACrJSKwRSji0NfLzrFL0MNck914xBNSswHFSe7PeZBuiB8kv/dtTBmdISpfmQ2vD96ihLQ1BCwwq8Cn1YB4CpZOA8wKlu2mUvFHEz6c02xpWMqwZuVqB6iBrKdJjcyOAaGONlpYWZQIg46qcEUB9SttMnh2nSqLOr32sZPsGjwQKFW8FCrBSoyrB+gGlaKMSRqDCQtYEyuIHkNN1SSDljxWEd6Nnpp9zp2QvWclXK1CxH/wc3hosEcWSBsIqgGPJhjdjP8SFdeqhkUpsx6JmVvQGpXmGRjpYW5uACW8NDeQHXhIoQ6L6bPVteKPQEGKxAoi6NSZohp3dFLUJtFMEyhkBWJcqsbdWQvNFGyfMGbQsgODbzBMbV6OOUseEvAkmwVXAULKqUwF6Q7FTcx1jyt8RUMca2qpKIlrZWHyyAhENzomqUangzUWwk0ZrGSAhkpY+c4YIS1+STl42ns6ICoyqsglXyE5Gl91MP6izy9iGDLIhsAooJbN0xmGWKH082gxMiN4rYzN0Rt+JqICEXlWGwAiW80y3Wmocla8As+oIZoYypeMVeFrJt1nbsMAUjc42OcZ9l5P1dNgZINi+IeCZRp8ns1mDQJXaqkGsgAMCPvVAGAIJ7jK8tyOKDl4V1fteIrYTCty2JbMtVL8Aty1zYhxV54XtU1jGE2RS/dcMGwyXN2KLpBY1AZkg1gHFwWaViA0lznC5knrx2TSegLep/7eR/7eRW/y/tY1cz4vX67wkDF7fs90j7VwPsOVdO9cPbO25c73Bdj2yc33CNt52rmd42S7i659Fn53rpUWfnesrXrZsO+qEbOCwB9utiO/ueykZZ7iDuRv71PAMR7VNO2EycDScyfp0VHik89TXwVNfY7xOmWTLFD5qtmUZG1K7kKmy0E3rFSYMgj++gN2B64fnu973x9vb01Xx9n97N6w/ne6V+eIn);lineShape=1;fontSize=6;" vertex="1" parent="1">
                    <mxGeometry x="1466.3811378860225" y="13.362023383799198" width="5.1667221198554865" height="4.082928250247451" as="geometry"/>
                </mxCell>
                <mxCell id="65" value="" style="shape=stencil(lVnZbhw3EPyafW2QbJ7PsvMfAixHi8iSIctJ/PcuZsHJsDlTgt5WI9awj+pzLnr34/H++8MluB9vry9/Pfxz/fL2eNFPlxCuz48Pr9c3/Lro54vefX15ffjz9eXn85fb39/v+8n+69vL3/0N/95wPopzHRXcr9uTECW1/578cQM8XZ/3gCqxzYAmNZwDQpIQJoBGKeSGUKXON2iW6s4BGqSUGVBFEwEUcToDoAMBRC9hBkQnLRMAdMgzAK/w54AUJFUrUiBWSlHCfIMmiZUC2uwHGDoTswIQk6VGZDqoxFmk4ESJlZITP4vk8YpCzJokxQnQpDBHVymzVas4ooF6Kc6cD+T94LYhkncSiAKIHp257bnX8G8TDB68iASgko2blVLVeysSjKokoJukhXiOSFTFz9HZY4fYqIzbt/OZmihLm+VP8KKy83WmdSpU/iJ+Pp9hMaqvsWdu4giJ4AATZyVR1vk85N0ATRqRCGFoXFCDeBIH4HUzgEhJhBRcTeCUEUrHkexsrmhu2Pk0o86h3IJEQlN41cR+08GUY15kG/wtUgDc5GbHtTRcecwML7UsN5BQwPvaYiWWUVu2pRAAxwBFclwALPrryNA7AGNra+KbBbD4BMD6wdO6A4BhK6jBiu0BQGmIApAXLlUScV1pQw20VUwkmFUtgFKjjDZtRz5P2NqpoQuA6ZBswwCRWKcHQFjozaphf59asyYmUpRszIrej4kUR3+w41JlVkq2JQHAM7amIcCO3omJlG0D3TMfu6GMZnYfoiS3gkvBLTcwetclHqADjwfTA3QrsTSDiPMW0IjS3jk7mLStzT+7oporlE4yAFi7RlFu19wsgGaBjwJ6WTZ2beMVxyVoiaCd4c6qXPD2ClapE/orY6Y6EsNxpS4LOVBkWNddbfPQg4p1G2CnASjlRgi2iwb92ITot5Zz62fqSD0nfLUEr2nUjJOu0kwO3ffkfByz2tbzVZpmgk18oAqTx1vmFXQaJECdbVozygV5vzvoojPx8RL+4GGl502LiylACelAITOVYLZkCUni3CdhPmfTM+xvzuuoLCf+NZTGnMK2JHlYbzdrs4SKqXEmNCZLx/gQ7JjU6BLGL4ROtHmGQU3dDNKYPbPNpVxfjPKmCLqxwzk+n+zczPNoXHKQGxeerS7UOID2RmkhtI4HZ9sal6392TqoLKVmTALH59voCHa7GuawPiWb0lRpU5GDXe5AZRaSWW1OwexdiA64wawKEJTMSNDBrPFQqxLzQhv1fUsrSAR8Z2bWePGdwbmN8WwD1MHcY8CyKOwAVo6XgQ0i0VCLNjfGTD3dU4lJvrwv6jtktWZl2QjB5eZoQ7yypRbSl5/DWYtElu+WZSfM4Amg2qkWVmAJuFqV8YQJtPloO4+ui3it2M6xL8aIhcpYMe3OswS5bU6384km4GrH014S2UghWux5trjwy7IZ6YVlvN7SJQtg6x3vbR/7HiAc7Gppl6lHSjMdPvx5530Afvz/Nenr9enp9jFq/3/79QmPbl+u9PNv);lineShape=1;fontSize=6;" vertex="1" parent="1">
                    <mxGeometry x="1525.5751435130308" y="10.573018292995997" width="4.5478290473596035" height="4.689013566897323" as="geometry"/>
                </mxCell>
                <mxCell id="66" value="" style="shape=stencil(lVdJchsxDHyNriiS4AKcHecfrrIcqaJILlnO8vtgMjWyCErt6DYLmwQajYUrfnjbPL2uVym8nY6H7+tf2+fTZsVfVilt95v1cXuypxU/rvjh5XBcfzse3vfP8/vr07Ryevpx+Dnt8HvGMVOoEyqFP/OXRFL+ffg6r99t95frI2m/PkZiAYBM2voDApUAAELFWdQoxtuAHClLB7AzKzApZ4q5A+RENQNApVY6QAnU6m1AMZN6p4tQArSWRtwDqvEGTKqJOHSAFkgAS7VS1R5QSIFJLVHqaZVAFZygQi11AC0w0jEECr0TWqkAr1Up9U5oowqOsP1qz6tZWRoAJMqxBygxMEmqTwgDCAOAxann9YKH65HIJGk4IoFYK+UwOIHEUSjFgSbghMmvVh+IAjLCAKHPuSnUwOnKgw+FMtDrJHDnQ4Ziala4uAcwCfChNQrFAzIQkzClMABA4ESXSncBaCjnrJSJd5rBCRYmaZ7WiBJCqbmUqxQVAxxLjRKg1X43Jw0rlsgkJnUmKewQIoPTZiQQnyRS9gAFLaVVkiHjFMTBxBcHQEE5XSkPLMEiwL5DGNGKM47jPQAeMk4ibLxsxdX1INsClBm2wtgHrp2b/VWAjQqhN8lKWwXis3En9pG2Tt2AvKPVuf4Ea/YBmBSzr602bSAtxeAnJi5L8byuVl9a09nG68OGb0A2kQnIt0Gqn4x8Q1fHI2Xw45uFBEQskvQaijBv8rLZsjzgqcePhmGR7K1YufkiwGoazy3pYz1q/VEW5/5vvXHHeoc9pgX1+yN/TWsa7qDTrguOfhwtqxDlHjHcfX35dL09fNyVXra73XzVuvzv71b2ab6X8eNf);lineShape=1;fontSize=6;" vertex="1" parent="1">
                    <mxGeometry x="1531.8154159716364" y="10.24207329762747" width="0.7709514792766727" height="4.438507351661017" as="geometry"/>
                </mxCell>
                <mxCell id="67" value="" style="shape=stencil(lZbdUttADIWfxrdnpNX+XlN4D2YIjYc0YUKg5e3R1mOIlkSd3vnv88pHR8c7yc3L9v55MwV6OR0PT5vf88NpO8mPKYR5v90c55MeTXI7yc3j4bj5eTy87h+W8+f7/mQ/+nV462/4s3CNUEKnAr0vV2JCan+v3C3Abt6fAxmlGCAJWnWAhsoGyIKaXSCJAUoEeyUltGyAqis4QG2IFmiMFh1AVbIltYLE14FCyFYlJgLRdSITJNolGtiRKRGq7ZzqQE4jooBtI2oFO4BUkAVK84EMsrrmBhIHKGMjUkV1VIphXCGqW5zO6W1pFggITklaQK4G0CKzs0KuaMkCGSE53lARrZlU6OB8dG+TXUFbGfyBoGFG6V8zykPjCLFcB87c/OkNWoPh8hI6MBbQofJa3UdysGtbX3FZJh36YUg1GJySeqzYkr6i53KrBeXbjFYnBjQa6wBofHozmhCHoVZZHTN1QP4HkDima09Dx0whrm7+BBKyE0yc1rQ+i43ofHRBtW4tDHHaEMYwzrym7cXn1ar2AxKvKXLteWuLSODg1ZNsYgRfUc0TWz831xQcR4GYkZweBxmBBHEmRz0x/Bm0AY6garpBofHfpgdfO47HebdbNizn98cdil5adjdy+wE=);lineShape=1;fontSize=6;" vertex="1" parent="1">
                    <mxGeometry x="1532.8234477407761" y="7.773424315867615" width="0.4789757600453976" height="0.4804450974485722" as="geometry"/>
                </mxCell>
                <mxCell id="68" value="" style="shape=stencil(7VpJchw3EHzNXBEoVGE7y/I/FCHKZJgWFRS9/d7VHmPYSHQngzcfdBs2KxtALVkL+qIfvt9/+nZ3SfH7y/PTr3d/Pnx+ub/oT5eUHr7e3z0/vPivi3686IcvT893vzw//f718/Xvb582ye3Xb09/bG/464qzEOsGSvHv64McpP374Oer+OPD1514Dr1P4pKClXP5GlKe5XswO5dvIZZJftugMvkWJ3mNVL4HlVm+BBMmX+bzmgbJTL7N6jR/Q2TyfT5vzqGR98vteANQJNRKATKvUErIxAIOsFmlVUImLuEAnbdUU0h8BVkAjTiRK3U2WtU3jKYd5ZlS3YlA3obSTuTxwBY0sSCo9X3ySd6znxLqoh+mzxJSW/RJ9pPRSTd7EZ/LoS7yieg/Y5BtHtfZ/v+jkJ1LK/HQGuLs0R4zRt5f0d88KBPRTwsFgr7REOuhzvs3CY0FjAQBlsuUhZyU80y7vsdKTizOsmkG+CsYrbiNZ4CUYfVjQB0qvwGEOpEsVFpDIWf2DVeg6qCEeVevk9DZ+xtGsRMlcTpNIWaQj2Q/btISQb4Qp9Ae4rz/NGjgUN7S8OHXTM9I0Qz130MiLmQ1yOzV7oWNKMgzo0JtUOiJs0cteHUczHQMUKw+XqnpGGChzMzo5UQlRnNi6EtksrjJBXONRc6NFUPZnIzYlryEAva6JegzgIFj+ApMSy30WUvFz8BW6IPebgALnQCcn4GOSqdbKikokIWOJHcM0NABUEc8HQMyhkOLlLTLUso2o5auEdNaq0FZbZ2RYbpQO1RPPADQUWocJzYNZT5D97TAMmFFO7RGQ7RHzJ2+prLcuTQsXlywvOAAg+qIVxc9o/O5ZRizOgDc2wHCiv6Cqap06ku9ouEc0BmgDSbdbcnYlhYydi2xmtMBLaEdaE0SI5ZhW4wSrtyWgDrSRmV/BgAm8xChp/acDpV8oeTqhsAtFZog3NSQIBxATZ1HFbIDFBJyDhBBQHwjICpqiR7asNLY+hG+AkaQjidngARq9WKMAyCC3L8786WMadQB1PnKmGvsY5Q5nxe4ugDYCm2w+35LjGc6VlgOYBWWA+rSyjfOApDZt06PR1yHLRm39LsBGctuzzEUoEhMrznmGCCjebwBjM7APKXlWa1ue8b3zTPKfOjOy5kmocwxvWPP49TeMIL6bXR1DPAKbF7C/ZH1Mxu9z/69pTFWxPXBKju9GjFEWfr6zvv0spjafYP1cF5XKgCU0oZXrgkSROcdhJfrwMaZHtobAlliNDKA4ciz8JyVFXPWVl6/0TYt8w82T8reec4RlIXGqAMSdEGFZhR/H4y4TMYQ5RgQl8HwrTQ960YztH5pFF3HgDbyx27GogxQsJhOnGe8Awfq836XrpBGpbAfyhAtWUS1ig7mOR46OPXN8SCR0ozakkbpIEqX6TMvZtLalo0J/7G8IscIH7MkGVOknYpYSpSO2UH4lqQii/km6bCuoI62awRWemdsRdXDja2gWLUab7IcEJd7D+bb24Ry4ZhOWEwEG/aS6DxKlrRe6qiUTxqUHxcfPy4+5izyP7v4yKMp2qX+TM+LYzRe/y/yOdM2bOlVrdOcudTypoMsT+TBXs5bTP+G+leenZZZkj9ppKTVMdvdJ2Ty/vTO3BGxFizjluVEHO+1aBEVF+tS51kujm3c/Z+Iw5jNaDsR0VRG87yMfHWzLC1sBKeKOtr/EzvJIs6ujta3szt+RdbXt5xMQTMsV98Y/lWc1TPv/N7jTXH/8fppyZeHx8frlyn7/+OnKP7o+hmLfvwH);lineShape=1;fontSize=6;" vertex="1" parent="1">
                    <mxGeometry x="1534.3749798868296" y="10.056795276432496" width="6.133371885625474" height="5.239748938525617" as="geometry"/>
                </mxCell>
                <mxCell id="69" value="" style="shape=stencil(zVjLctswDPwaXzF8Ezyn6X9kJk7jaRpnHKePvy9UDx0RVJdSp4fcZBkrguACWGLnb14f7172O2dez6fj1/2Pw/35cec/7Zw7PD/uT4ezPO387c7fPBxP+y+n49vz/eX3y91kOT19O36fvvDzgiuZTJ5Qzvy6vDEUw58Xny/2T4fnuX2kmBr7QOyAfaDQ2hcqHth7Sq0/1hNjgCktgCkhgNMryBYMQ4BXgEJsIcDGBuAjlQIAtv59DaqsmSCAuQUwZXRsAjANIEYyBgKybwDJUkCbtpTaPaRcA/1XQMuMLOeAqCSA0ADYkMVhTa4FCHsjBtiWrLICooYA2rAK3w2OUmyjVBIVBJDvtZsuXJ1cBFhj6sFeEYUCiivXoMwAEbEvkMsakMBBcK4OzAAogzJT6PZQAF2Fa4quEwCwL6bKtWvZeA/cIiL4+sG1CO8W4oSccj078Lato9itgAIbF8KETk5yfhM1tnLP1do+SwdUZSJ5o+0dqHsSIL2BBIu98xSVR1K7wY59Js8awGCF6HQHnQBgBeG2bqERsoKvLXwOQIXSdPmZyKIemrRqmM4BrZCIu7oXUHdwlcczQAInzaESYQbIwKXstHCYSjEIa8y6nUwAcHDvTXwlwOXqwEqXrORzR2+46dowV0bVk+1OAR2br+JuLS8W2iEini11+ZXUlhqsmxtOnrCUbTA9XZWbKwtAlhB2FQPRQtqnrhi4iEmDzt2xoTIptwDb5TNUe1sBH1WWdN1wJEusBvx3WdIC1sgS3oT4F1miVe5YlvCWwH40WXLNx5Wiu+cFVvW9vMXXBiavyiS+l7DWJIOLD+tGNbhZiX3bawdXN7Fv4zO4G7Jm6ODyKfabbrdMtu3kg+sz19NZeT/PxJsGAFm3kMGEQTSnsscjjCsbV85Ikv7+YAgTO8EJhzyBQmuOZ0hOiwo8ogr6jmAG3PH660ixWOmtemCGUlEkkUvK3iDB4nWumNoSlncbev8R9SUzEm+wT0nPdbA/om5y2LBfqUxO+z8auWj/ocKU3rKFDpsHokN7eXifvj4cnp4uw9v5/3paK68uk15/+xs=);lineShape=1;fontSize=6;" vertex="1" parent="1">
                    <mxGeometry x="1476.4226270138624" y="110.28440527129413" width="0.22907516684374837" height="19.65229516636847" as="geometry"/>
                </mxCell>
                <mxCell id="70" value="" style="shape=stencil(7VjLctswDPwaXzEgwOc5bf8jM3EaT9M446Svvy9UDxURsrb1rYfcZBkrgsvFizu9eXm4fd7vhF9eT8cv+x+Hu9eHnX7YiRyeHvanw6s97fTjTm/uj6f959Px29Pd+ffz7WQ5PX09fp++8POMC4lEJ5Twr/ObKMT8582nM+Dx8LQEMMURkApx2AZkamGwz5WybNsnKjzYl0gakT23wb4GKrptH6nW0V4oJWSfZLRXkoLsOXv7Cr6vlEZ+aiTJ2/ZCjb19BP4ISb3GPlAu1/gTKKz4qcCeKacVnxXZq9uvnRfwn4ndfk0PgH/ucp/tmWqD9sXbM9Czen5K6Qq5aF+7WuZ4ySQgvoLRPQooZWKw4dBIxxWiRRhYYQqZUdIaqIEjUPZ7tjUb4FRTD/EOMB+BJiJTGg9NKCN7o3BMEgyTXBJPkfQdXbavPotWmIOyJYlxv6FSBBso7LOccVwAoyX3JLU45ArS6BRVI6WpUQIu1drDapGoE5BRa5RHobZEDbBkAJfqWqYM9hB4FcytUASIaYlRqc2OEgTPtInkASgWDCBO2sYrcsl4DR7QgFgNEJyYGMvbSEnFL4HE0YovagaI6Ohyj8cFTRVEkAFi9gBGvBrA0VRgnTJAcitkWAjtb9cpmF5RzJkDqh4gGLBeAfVSxolnKeGTbr02LV3C+o5ttWkcpFU8rYo2PZeCxcEFHEEtewCqJgYoKy2hFsAA6lzC9WeKefaAig/OSeMfYtSl17dctQUQ8YCEaMpdzQsAoyxwLaCm3ukvex9UtZqnKUvf1WWA+m4vll5lLlfe3EvOXEitfwLqy+zlar0AA22k1MvmfNTaS8BlgK0w5u8CB4Y4z1tzpcYDjKwmMBgNWv2EF6wdApnVGHQAowglSuuO3EyiEfbc9r06HoKRgPqlUDoli24moinGPB5LorVcKCtZRnHSrrBdeh9T38fU/3lMNf9XqVrRFNkL5GwvnYEtPYz6t0wcgX32ekizwrfupYpL7A06FAKxA+AINkAc87TiPsQAbQVAMRxWM5gBUANplcWPhQXWSwO4sDEAyu0h9suHBQCN2gZwnb/RGhAg+UykeFQwgDqXGgw1A8RR25FhezcBxnOIAd/BXH2L+neAPbxd2t4fHh/Pd77L//0lr706XxDrx98=);lineShape=1;fontSize=6;" vertex="1" parent="1">
                    <mxGeometry x="1475.8295779768541" y="110.81934197822349" width="5.450674204917699" height="3.895540031990874" as="geometry"/>
                </mxCell>
                <mxCell id="71" value="" style="shape=stencil(lVjZUhwxDPyafVXZls9nkvwHVSxhK4SlgFx/n55seTKWd5ribRkkW0dLavmgN68Pt8/HQ3Cvby/nb8dfp7u3h4N+OoRweno4vpze8Ougnw96c39+OX59Of94urv8/Xy7SC6/vp9/Lif8vui1LJoWreD+XL5EqfXfhy8X+cfT00a+RlFv5Ivbly9hlk/k/BzFVSPfdF8+RQllkE+SiD0xih/PzxLJ+Qr32iBfpBJ5HJfCIN8kt31536SO9vsgKROFJGG8AF+YRV7F6ajQJLIbYMDoclAJJGe4wcQIQQokCT5LHkGnThq5IeDfY5SQl5ZoGgystUolJmmQnEfceSmeAMlJMMBeoXJdoUgZfcCXQBRSkjiGNQJLxIes/by1FjyFRpnCinJSpgDwj+BLhZZzVfFxLDcviSSupl7uq0J+T8GZAkXiCLyrFz86XXL36rrTaqOEI3KkPSyO4IOR7IaktunVRn0A+Op4Qwu0TQagf0RrA7pYTSOvYx5aESXgq7bgWpXGeoCoaWPOiWMKznbupv2M6wq+d62NAis4ND7rg/Ig4bxsFSq7QS26W+Q3xMmH1OG7q1CsQiN9bDHJDKxMu8zitIlS6ZnZDWu0ColFyU8+FNpaF2jMCqRCm/jJhUiiWi2JgTzD6nr7JqZKzi+ds2ySlknTK5InGDVSCtX2SMgH1iOn9oIRT9pL62NmW5o8YRZ02nO+hyHnP3RD6IRi6wKBhNcpZ5GbFDvH2SaBEbGJOi9ZZkQMXNjAGjDi/cjiiOPUT6xnKQR2wzr5tpVGkPphhXUIbILE+HCeBhsWGBbULM4YpDSoV27wnZhdp5K1c6h1mldKwxZaN5oEvpAZX2jSxnpeGAljhsXWG5gcgx44j6EwRSm4waHiiCSQS0aSoFDGsGZO6WGAaQGgkpXRsLWnr2S10WrIzlZ04qMwBTudF/5MTMKKMDP0RvKg2fJngIXRMIwGA42IIwiWUHBqFp/QV9jdvjfmAYD3fNiO2FOlLqTeH9ZtEuezlb6PplU+0OGJeJh9uPQQ7A0rNxqEtkmbZLYrepXMOgw44CjPufkSP7MN03YRMVtNhCiHxDpipoLv/GFv7zSbrZPISn96E3J8tZgGp6P2z29afLPARDLxcX3wXpcHncpGnr2PQN68j6A1EkreWh9Im/gTQEPenI8dmzEXNw3ZQCv4qgLlg5NFvORnj5UuzHNEOZ+dMxZpY58REenr0UdfUd+Xx4//T7b3p8fHy4vv9v/2iRefLs/D+vkv);lineShape=1;fontSize=6;" vertex="1" parent="1">
                    <mxGeometry x="1471.3442814686164" y="133.4860284610537" width="3.4916402889884055" height="5.26136884126308" as="geometry"/>
                </mxCell>
                <mxCell id="72" value="" style="shape=stencil(lVfLctswDPwaXTEgAb7OafofmYlTe+raGcd9/X3hauSGULqSbrSMJQlgFwAHeXjbP73uhshv18v56+7n4fm6H+TTEOPhtN9dDldbDfI4yMPL+bL7cjl/Pz2Pv1+fbpa31bfzj9sOv0ZcS5TrDRX59/glUI5/P3we7Y+H03t7pRg7+0KqwF4opH7/BUAk6S8UG0UBgEBVOoAUkgYB2rughWKAgNCfkAoV5ANTCx0gVwoVAkruo2onYEDuw1ozjhJTKh3AAq0MAIlK70PLxIAZTMy9faUIghQnnt3tC+Xyf/vAFNkDQgYHBGrqPSgAIJmyeEACLqf4QYwUnGA0SDNAAnmupobiARURI1JVHyVBgq5ePgaowIfWZk5XUkS95BVtgAYEalQWl+lGCqhRhDR4QEWJq8Su6vGdvx8i1MjEmxAxzxSHLxWEctvits4UhONqAmreHiXOyp5zADPjLseV1LNOkGcCReSWQIk9AMnHCrtsE6hMrWNlCSjGpJlAUZGpRoLgo4TKWCuzKy0Vyq2leDtCZ1TCzaFNRFvbfUi2tbfptmv7J3F//4UGbUWyz/LCBFAnWq4cMaqX2sIMU7z0F4Yk09WmKSxN0Vs35emk83VDZPLDS1hIburNGZahkLzCbPZBg4gS+/0jqkJClZ09g1yp+qqFG0dKfkjA9jn7wQjfpyRqW/ytOt8fxdNGTd2SL3tSSN83Fuiw9cmyaG+Lf++jl8PxOD6v3v/v31P2aXyLyeMf);lineShape=1;fontSize=6;" vertex="1" parent="1">
                    <mxGeometry x="1476.2362969380629" y="135.15297914127183" width="0.23601266219269573" height="6.616370867910389" as="geometry"/>
                </mxCell>
                <mxCell id="73" value="" style="shape=stencil(lVjLkhoxDPwarirb8vO82fzHVi0bqBDYYsnr79MTYhh5mK7KbQD1WJa7WzIbffrYvbxvN8F9XM6nr9uf+9fLbqOfNiHsj7vteX/B00afN/r0djpvv5xP34+v18/vL1Pk9PTt9GN6w68rLknOEyi439cvvKj7+8Xna/hhf5yF+yrRm3gnjsSHKpqHeF/W4xXxfsgnkffHKq2a+CjBr8en1pfv8UUaeX9uEp3NRyXGdUCpki1gqlBYB9QkTS2gSK7rgOYlJgPQRGvUcMYWEFWUrVBHUiQvJRNWuBsLOiI7iY0s0aQ1C6hSCDGQUwj24LJEUtcWxxWqSiCbaE40WgDIwk4udql0ANZ0pK7IONkVGtiXCPuy1IF9justAWH1M1Wa1BUCjZZ+LUghuw5Z8gCARInkYDGxjXVt5CAA8MNB4PBJmSYTs9yoqDQDoErWBaBCxwA3cs7IVAm/1XfqzNlHqqQ6ag4AR6qkeVElOBNh32StlkwgcGQptW6NsyoVUqXopFgzrkWUkA+AOmwakmN2j+4x0NvRlLDpgRqgt2eAG3NuABXPziEuUsJRshbnH6zwT1KPydd6xjOAY4DSM55JlPkMBDQcHMrKWsok0eHgqlSWUupEmFGDnTQkOgLQ5Zgv1e69M3oHkpK6hR54W9QweuskUcaltOgoMAG2Qhm9FXugK/wvIJVxPIHiWFdEWw46ApS4RilS4pgSUxx+TnaFEjsdHwNADQtAkpmYMQDRsjX7PtatzWRquZS0T2mPAeiZlhoxUwGVJs5WCW7LBibUJNguqrxPoybRCgiSYgKaJrYB4KQRQAoS7B48H8kwdhZrZBimA6kSBOTtpj06BjMBN47rsCXCvdLH2tn7A/HuRc/1jl6XQO3F+9mEqN0Tbz4smWjN983dd9tIOGo3OCRtI64PXferErvILK4AuNiQi5IbSxnpSblxPNJuxiuVGTwl0HENUhoubT27lWP1i0sqeXvq88A9PPBwfiXHw/06/7Y/HK7/Bsx/H6//+Or614E+/wE=);lineShape=1;fontSize=6;" vertex="1" parent="1">
                    <mxGeometry x="1476.9347781443878" y="135.06772925386437" width="2.2488819336978763" height="3.3265663379376442" as="geometry"/>
                </mxCell>
                <mxCell id="76" value="" style="shape=stencil(7Vnbbhw3DP2afSUkUaTE5zT9jwBx6kVdO3Dc29+Xg4VmV9TOCQwUzUvf1rukNSQPzyE1J/7w7fHT14dTSd/eXl9+ffjz/Pnt8cQ/nUo5Pz8+vJ7f/NOJP574w5eX14dfXl9+f/58+fvrp81y+/Tbyx/bf/jr4ldJ8+ZU0t/ji3754ueL+dP5+ca8U++TuVHhY/PMVOpkn4XUgINS5cmhJOoVOBjZ/ERFYQSFqenkwP5NAw6NeD6h+iOVYwdOZGV2aCPL9x2YbM6SVKroBM/S/Eia8AmdZA5alRIonIeY2+TQ/AQBDpmKzQ6CT8gRSs0odeBQqKTJoRfqCh1kjsHS907oM/hMqALwuUOotCmE93bC3G7WRimPHEKlrY+WOkqraXSwhAsXsmSjB4+gUSU6oI5ji+DLyQsBnsnhqvV9Ho1afddD6VI6g7V2h8LvSSwLtRQdUOncIRDNBg6AJncoodY6zjx8pKUjCs5S4O+ulEHPeR3yDPCeB1yOSl3nGJoOJjmCH88ntEwZMVOJzOTcx6jnXBMDu2ZYh6pDD3b+VigptUfwSRl8e9dBXFLmwm2SAmIQphR0naFSi7P1XGmvTAdYEo3w5kqCTlia2oUyAZXTXXF2aZchlPcdyuJQIDR0CTp3YnRCj+DLFZKlYzNISt6ng/sOQhJ0FMbcvYEDlODosCna/P+9CKChN0bhaA8CdsqyFOwZlGAj0RzsDQDbWVrneDMcAmydD8fccWgfUDoE9che4gBtoJM93iBUAtvM86mBvSB5eb1qtFdUr0VDlATgzSplDvYZKIjxEJhrvAy41Mq6kFSU/xJFk6mifPpQGDiCGOWHo6BlYlRfjnhLA7BH+U+xHzPKv0YGwoOR40di/yLFd3xq7N+GnscG3VzzA/FjkR8KVI2bwe9aYEUBW9SlChcXt09zgmQg5ChBKTZMQQXWGLAOhv9X7HuNm1r2eQgpjA+VwcE5AETc6tDEW5VEJ+S4eG2gAEVWiydsLApQqm007e7gGy5Ahe6ss6OowHlImWTGtc/CAojIZ8QWiAvXQSyOmVVg60iLA1Q1qJU+0wUuFUymPjWGwolBtZccp3fPm6Hlcam0j1So3XzODctjY3yvoJRmgm8N7+QOtRkaveCdvMaFwpeijmLg5V4h4xh+0L0Cvq75D+4VNDr8f69wd4nP0eGH3ytwuBISvPU704VHSmOuPAw6XEQwvMvjdY/Cy6Nvr2Hwb3iz4OUieVMlQPiuOGmGhmuGgSwVi7O/Mzp6pLIsaxvfgsL5LBWGmVogHWeL46cnWsE8nBdouFIjhfDpJciiT4hI5frg3r2n2yD0+zwT2ycXysA+rQs5CjiNWepqjubtFNUKd9oyDCu84PCmms0FviZIUZwF7na+Gcx4rvBOKsdNsMLNK8e7yjqCuQ/ldQ9EKFjvx8YXB+bLVoquQfdfb5ZYJH3vewn3XXP/cH3f9+X89HR5XXj7e3w/6F9d3i3yx38A);lineShape=1;fontSize=6;" vertex="1" parent="1">
                    <mxGeometry x="1480.8086211676955" y="134.3881518790924" width="4.509276447926823" height="5.1797561578397495" as="geometry"/>
                </mxCell>
                <mxCell id="77" value="" style="shape=stencil(lVnZUhsxEPwav07pGh3PhPwHVUBwhQAF5Pr79MalZTXytpM3A9vsHN2tGfkQr94ebl7uDsG9vb8+f737ebx9fzjET4cQjk8Pd6/Hd3w6xOtDvLp/fr378vr8/en29PPLzfLk8unb84/lP/w64XyT3BZUcL9Pv0lRsvv7m88nwOPxaQMIVVKwgOj3ATGJ5hEQJBDA8v/GkGKTEvcB6qTWEZDFNQJIE8D3rM4DspQxpKBSSQ6q0twAQKEDe0MQ1RGAMpCkU+kpdkCjOS81HNtQJJI+RydF7fOJ8CJI8yaeRuLxqFAcE0ZJlQCipGxLWgoBeNHxDSFJICX1TnwaAU2U5FBtkyNSIDWtXVkbJXiSQe35rc/XrqWzz0PLYwtA9ExYioTLqOXsOCBIGjPIaCOJyKdO4pVFXjwDQGnjG4p2Yp0HNMujijYyA4vWjyocr1LH82NINUsgUojRJl1hmqTP0GYaAc1JIICUu+WugCCOhKSxt2kFoAykStlPckYrSeMy/M1ZQCIhlWyrhJCYYyDFahzPd0s4D4DcqwUwajS1ggPAEcdopRvKBhBYSCDClEMh5GvNHrcog5KDpE16QFkTS7pN1ECniREDoKbTKoEB4HsmB5zPRNMoq5kAAFD2BniEWkBlVQI3J0Bh5IviJgAln5/YisOBA+yBruIYAO49HlfIyrMqYU4y9I50Elv0ZQCBDgH4c5oUlxkg9gNzK1HWB+3GuJUo63S2c8/yBs5WP4WkXKJebZWoHlqfHTd9YL7knRM3mSs1JoxGk32zgxpZWxdQbkxFqvGZzH3mfwGliDeARhuRkcPIjU3hziPcRPBGfUO9HYBQuEpiwoRXTV0vzN06haTUjpfxZFI14wYmdWtl7tJMFkdVYwBi8wzGRHNC1MCPRRsRek+HDcvuEuhkP+17OVMvXm1xfZ67krfEw/7nSIGcHa4w2BfSY2fHvQuLw2QXYBUjneu6WhefSsUPUx/7BU5lWs9sVrfSKbXTX2OQnl8ZYNXz44RRpJFjB4xWU1A60S/LrXEW6kRhulVxXPTZDjzct1Ls9Pp4ni2GqUm08bOlCvT11dSHxa+tW9RH/dkJmIOdCD1fPLFmGodYNksGyLYDvnJAETXLf+gk2QUYEay2tBeSmf2joyzN0/K83KWxsoKVY5tjoautFnuvlRwnRrDbBaiY2PlX7ESYlK6FkEIzIZX+zj2tGe2D7Z6J01mxAcCq9HF1twUwe5lGyLRu+OcB02UeAGz2h4EFc6laO3/3rttymspKJh0AzPIMQLgAMEmvhN8D2D5on9X3AGaWAoDdeS42by7QEr31QB+MRAFw7FKyWhOAHgrrQ7P3Wxfu2//hgh4fPq7374+Pj6dvB7Z/t18H4FenrxLi9R8=);lineShape=1;fontSize=6;" vertex="1" parent="1">
                    <mxGeometry x="1487.5640172243166" y="134.03718432120448" width="3.373066365078211" height="5.366656342228279" as="geometry"/>
                </mxCell>
                <mxCell id="78" value="" style="shape=stencil(lVhJchsxDHyNrijuy9lJ/uEqy7EqjuWSne33aUZFmwQ1rfg2GqEHWwMEuPM3Lw+3z/udMy+vp+O3/a/D3evDzn/aOXd4etifDq942vnPO39zfzztv56OP57uzr+fb5tke/p+/Nm+8PuMS+JNAznz5/zCiPf/Xnw5iz8engZxa6XESd6LDUQ+S7STfBIXt+Wdleon+SqG2OOyeDfJWyeJGORh76zAJilEg68aABtD3QaEKLXMAGgw24Doxc058E480RCrlDmovoi124AUJc9ZC75/4iIgG0mz0wF5SAQQJOUJAK8qcToX8WEGFEkEUMC8WUNCKgmVSpA4a0hZbCYApClNAIShEKcLYjLnAWFwhEvV9jS9AcBf4kP13eIOKEYcMalGcXM9FC/GEQCcntlaovhCAFlqnQFXfCgS5rC2uHFAnp2uRiJzGt+bM41AV9IEAFBdo3IuARCVScg0i1LtJf8GiLyxGiNGIVIvkcsqnM4clFZmk5WoeuW70ssIoztTU8FqDpnIGlCIE6X0ghkAifQ+kE2TA7lhfSPr3teyT3ofTLKLBktKCICqAHjD+IqoVw0ojH62nwcDIJMogRva6ULPINDZuAVAmiXovGaacil2i8ewsiglsQv5aKNZDt5GDQ4IC/ky69+hU22kN4uS71QbC4gBrObSf9RoWpxgKlCjwS1OkL4Bfocl1ZkVdb7QmSIzCTW6hMlzwJpqy31IK11ZF3hrQ2NBsO5qemccAURDA4QPAcANlbirJ4RVAH4IAaCGsnbM8T4TldNXDlI0pnkYaF5xgBrK2jDA8gANaqBBpjlADQNgV2Ajk9VnFkamwCtOTQ8Yyti8DgPUSY2xj7W+ZsCcBwyWgWQaBngFCH0T3Bq/7VwPGI4r0ZCLbgIYv9nql7EZqlURixGhd3a6RLFCZOJDWub1tqQQeqeg2wzWILZCJKPPLCxaLEox9DNwWOWY0yH3UXhYFiMDGE1vrKOs4rAhh2XhZSs1dvAwhxUrNQsrvqd8wNJeSMXhe7qR9TVn65YiqdWPFmjUq6Wn+7fR1qAjUXGjr1gC6UemL9rDjQyx3egJgy+IRrK2nRHa9i3nXdwQV60+A03fzC4ToZfrIE7q1+s5hIsH3aYN3YSDvnkyfcLd4EzU4uwiLK0kYDcFH7yWuyqOh/cbwPvD4+P5AnH8X98Y4tX5ttF//gs=);lineShape=1;fontSize=6;" vertex="1" parent="1">
                    <mxGeometry x="1539.1494557640913" y="107.54110573052711" width="3.3515811184936735" height="23.27726778445863" as="geometry"/>
                </mxCell>
                <mxCell id="79" value="" style="shape=stencil(7VlJbhwxDHzNXAmRkijpnOUfAeLEgzh24Djb70NloHaLmqmBgdyS2yyslsSlimIf4quvt+++3BwkfH16fPh08+P4/un2EF8fRI73tzePxyf7dIhvDvHVh4fHm4+PD9/u35++f3nXLfunzw/f+xN+nnAxkWpHSfh1+iVRiX9+eHuyvzve7+2ZtE32HCjyZYA0CnkGKAYUCjwBhClnAEiUwgyoxAIATGXeUswkAMCNxDlJqCKAksYJkJkYHJojtXmF3Cg2ALDnpQmglXK6DLB/57iVQiVctlfKs1NrpgJOkKjOJ24CTxx9HjWF+48U6mxfKYFEtQDNMW6WiNA+L/YZpSlJ8PYV7J+pzlnNIVAAAWBK4hdoKCPG8fYbAs8PpNXbJ3CAMPJxF4AG7bl4+wgCYN6YE7oVUvj84AKg1EDAguchs+eK7H2AMyXg/zBW3wrGEgg8XzwJVR4letY+j3LaCjhQKZftiy+AbBSgIH+C31DSa5wV54iZmAhaIQ/S3Ig6QpeyZcwMsEcIyOleNDONNkha5tQ0F02hCKQmBq9NRkKI5IwV5yJjoQBclMLY7wYwLQM7SmURvzyY5nwaJS9NtkkUZuVBIzvxK6AwTYjEiV+AVFqSL+VcSFBqN88tGmFPUSOVOZFsk0heq+XBvEJhaiAOLSyAhAEmUHOqFos02FLXo9mttskKCPVZkDZAJQVu3SnSjsMUHcIkyZF8gEsYoDiANZSgk+qi5GRQYMl1VVIPQDrV+wi3QoTCYLpUiwcEDHC5YVtSwAJdyRYvNQxwtGGAgOJgDaoDBEhMfYUlNQJKDR3pv8s+xGTdSy5dC2xIehwWAOqoegMys3HVwc8Xc0mWFRCgeTY2gKItWT2o91LEBeTS2+IQQQGdKerOVVd4w1UQwyU6My0lx/gQvBQ16lUtEOrOYDWKzlCXbi9ey7683F8gu1omNA8Q5KUXA8KSfZtmnBctS9fZSyaUiFwt/d2lqigJyG/bQJpLrghM17LUqBbYIxbx8wjrPwQETtWvYB0Oaio1+Bq1Phc10jn623+s0Ev2PFdxvW8EgGglPK9gtwNFgOg7acbEJNtldgOkcd86D1hSg7cLy3nAJpobIMJJkl2Y3I2bMVdaJywzwFpdOCPJPjWiwsEQb13klhp4kmR3puzSO8BLX/HCXvAgKfupgXWyFRw5jRZyR90oav+nKn9/qtK8/YunKiBg/9pUhZf9GKvAqUpc2iPEQsmzlhWYotswRSexmTKSWN9LmV6hxoXZ619WKPrG4zJHOF2Z8+hw4AawpEIl0zzvRsFiw/7Q5mYFQe4T/BlgUoDuO7LcRro64bcQjoh03DbO8+JCXAFOVczeSc3WZVwScFZnj4TG7LM4e0RzvUGo3h6dN41W9NlesL1rlwMcXpq9SzqG102zd0LJY2x13j57IRM4QTJ7dmMzOCToz3dTM9ir9MHfzOvmYDwofNlruKv29uH5nd+H493d6ZXh/n//jtB+Or1fjG9+Aw==);lineShape=1;fontSize=6;" vertex="1" parent="1">
                    <mxGeometry x="1537.2044019545078" y="106.98466957674077" width="7.740155438963224" height="4.163559979953377" as="geometry"/>
                </mxCell>
                <mxCell id="80" value="" style="shape=stencil(lVnbclMxDPyavGp8t/Vc4D+YoaUZSsuUcvt71mR8eiznLPAWGm8sS6vVhVO8+Xr//svtKbivL89Pn25/nD+83J/im1MI58f72+fzCz6d4ttTvLl7er79+Pz07fHD5d9f3veT/dPnp+/9F35ecKmKjx0V3K/LX0KR4v/85d0F8HB+3AGyF18nQAwSGwEkaW0GFPF6DChe0nxDcuLIDUWllBngpeRjQG3SvL2hhmNAyxaAN7RCACphNim68RNHgDjfECJ1K0wqaQL4IpWYhEfXPAOCeOalKNnc4EZkrsehSpofreIdOb85fZxv4hmT4mDmOF+lxuPzqVhuw0BCvNisPXX4+Pp5v9ofiP1h4/2rfxKx3+Pr+fd9FEci5pFq84PxE0p4DQYYEoU8iHsd4JZk9hIIJ1Sqm8/XwarrtJZqMjNJZIlm1Qj6lIk9iNCcBLlJIZxoovPvl0yzzHtxs0erFyWJ77f3bYBK09K38cCNdZ5qEYSkGkARR/ISUuXmoHV1IkSFGKohNqJAbkh58HgDRFp1UBPqzDtN4hggiC4AT95Q8HvVAjKJAwA6J5sid9gNWZIxCXFghTDbuqaV5n+/wbi1cS+lwZwdgHGpRJsPqpJ5HOwNSvMBkbaP1sGuoypi3aqD8NfLiC5lSqnovUrEzkvs0QCEJXCF5EMHzLIHahTCJQCyuSEPpT16tBE+0JvGwQ0y7wBMBBC4uKYokXpQI+sCYPSOo9zvTWKNYZKymKQMkCWmxa1/SVEDKLQnAcAGrtLAAeBW8jGT4JNZvUHvSJoAuNVSQ2mvisC5+Q3eOVpROqL+FyIF2wh0oSHkiMkaBccycqDTWenHHIvC680NvB/u/fVMDjTtDID21PS3CARrWMeUs52PVJe8nTFKGXy/et5JXJqlRmKw9A1oxhjznG3eUqTNmLO1BI0Hjdjw3tbd6mDVgT/zLBchjHJ3ndajuO5GMMZRHa3ydt7TSRjtvpGjOkh+xFATsEQHMHxtAhZoM4/G0NRmTwUbA5UpCW5o09HAtpxnIpGThGDPM2kMtqa5MWFdz8dt7/D6XlYC0bkn68/GhhEIzmw/OkiSj11v5vg22jVD0MzaApLEElirrbCej8wQ5WJeHOgmZaf7G6LReQdXuNmmyDcjvXUyM2ej6yANtiaj+igbOqtt18DcxABOdDYp8SJeF2YklD/WV7SR6TtAYs0U+uxgTWLbiJxFs310JOxL1a5HkqOzOdQ/zXodM23Xoto4QKFYwekbnlmBAx9fYrNNQk85Ngo323L2JRXTSNB79hLKirLpXO0WrO+VyA3wulWlTHcwyduVRMhUV5EuZlGFytLYDdHSuwNYZUjLoxMtzSkvgDyK41HtMVtnANiA9N+b838A4MProv7u/PBw2fPvv7eLffzp8p8C8e1v);lineShape=1;fontSize=6;" vertex="1" parent="1">
                    <mxGeometry x="1530.9619346348784" y="133.4543173314099" width="3.5429197867581803" height="4.4161117859718315" as="geometry"/>
                </mxCell>
                <mxCell id="81" value="" style="shape=stencil(lVfZctswDPwavWJI8H5O0//ITJzaU9fOOE6Pvy9YhbIIqav4TZawJo4FFhzcw9v+6XU3sHm7Xs7fd78Oz9f94L4MzIfTfnc5XOVpcI+De3g5X3bfLuf30/P4+/WpWtanH+ef9R9+jzhOlGxFsfkzvjGU+d+Lr6P98XCa2btMxXT2gRjYe0/c22dKDtgnyq6zt0wlAEAhLj0gk0UeFX0Ce7LghGDI9ClylsIGwPeA0rL2SYA4eZ9LIVOMMOjSZylmMqgOAkgdIMX25r+A0BdamAFOCJZiH3RhMuCE4HWWSmzkXQUkS0lxr5DPAOA0lwRggUuSE6sAGVY6S+GyBiTA1uwpJA34yNs6YPJ4DgAxFEeeNSCDGCTrOeosIS4VcclpgANBWyNpWlQugoaQI1zWgA/GrwNS82Aik2nFXwcI+4IGBBB1dcBqQATsk35xTgMgN+RzWZwApoDQNSUN8CBoaYi4OIEB+6TlltwoIEsC8IuWC8glpmg1gFGPBrKKS9KjaArkxdjILW/rdXB6MGU8jXNqn+cARO9pMs5dQoCgRa4GDQpXMgVepBWQTzouLzouoBNK83gGyKAOdwOkgYISCHmD+oF10HWOgNHnRbPUdnIbVasIFsXpyVRFCwTBIrM9N6T4FqhcXcDuEl6ePn9S2iugj2FjeRCA7V3aWE8EoGRxYwGSlU2tJxsrlgAUmeoSh1zyehrXNRFlSXS0L1xdRNEJtg26CeBaGtZlMS2UGva0bM6u74dAEeRoGu2TP8SAeAuNNpBFRi8yWNxsk42beQC+uzbSb+aokSNFVuaIbqUJ983cAPN6ZSnaHnhjI7mo7UHmbdHMMZA4zFpkDaxs7S5dWodnVtS1RRp+76Vz214ebjfcl8PxOF6Q59/1jVhejbdp9/gX);lineShape=1;fontSize=6;" vertex="1" parent="1">
                    <mxGeometry x="1536.9548244830348" y="133.6891517243749" width="0.7739072863620268" height="10.60343823113072" as="geometry"/>
                </mxCell>
                <mxCell id="82" value="" style="shape=stencil(lVjLbhsxDPwaXwlJlCjqnKb/ESBOY9S1Ayd9/X25NbRZcb0T5OY4ozXJmSGp3fHd6/PDy36Xwuvb5fx9//vw+Pa84y+7lA6n5/3l8Gafdny/47un82X/7XL+eXq8/v3yMCGnTz/Ov6Yn/LmeK5TidCiFv9cvhDj8/+LrFX48nBbwqFTygM/UdBtvjythwDOVso3nQkEGfKKYtvGZqbYBH6gCfEkkxeEDyFci1erwGcRfA4m4fFMGeKU6xqOUQTxaiMf6x0IKEm6BeEzAGEMRNaY2KoKNMgEHhNJIsZGSgSaaUkjDgcIUIjjQuiZnkZoqwC/EMLPaTxgxASXRqIxZVyGp4ED1WWsiRlknquMvaIVJqHgijEsBB+qqTMZlZihWp41Wunxvu6dR5fGAlaEBe5q8R7ka+QL0zZV09M/EDND35JdRTAvyb58gjquQgPoihexzRn4I3V4z3gwCWFhJteXeEzbwrgMYy7BlUxoLZErE9SmOgQjdmf0EMZki1ckq39AZua3SlYQCdial4uPPAB9D9+2iQAISiPEGYwFoNK4lVPpY3AqpOM6sGaAu3zNcaDqCFLQzusA34GPpLl+4EnGc/dSfWjh4fiJdxaOIM8oOX6mBoTYP7UU9BcQT/IQywhL0ZHSe4b43bODV8ZV6Rhv1CQ4foeeZZOWZAuIpfelY4FFfnyfX8vlobfFbmsUfQQ/9LN4C8gKa297tAonfAy0DBQxnM+BIgTbYpkv1G4WaJwHHIn2Tng8IFIVaHxxVaisI6oy2cLjRYesnbCuhT67FGoWmsdVExwPCMGld3SdKJgZlnWoySiMXisD6ar15ZJrnhXWrrE58JseEBpT4AWL9CV1aavSXhIjngQR/S7B2ivY09v3XDAXwufiAGkUgJJ6n0fvShfuX+k3TZiJauqYO7O45CXZUIR05iHYxRfbsP7/Eo022F3yBr2AZZ78VGZ7RHuu3tMi9Q21NQPH1UVDQQE08AQq30urwsy22JppXUAWutO7suukH8Dbqv8JmnbwYKvQj+8Yr8I7yyVcmH8Ltw/vbmafD8Xh9ubP8v3+bY19d3wTx/T8=);lineShape=1;fontSize=6;" vertex="1" parent="1">
                    <mxGeometry x="1537.44001850331" y="134.1640699253178" width="2.835795543848473" height="3.429904667176873" as="geometry"/>
                </mxCell>
                <mxCell id="83" value="" style="shape=stencil(lVjbbtswDP2avBIiJVHSc9f9R4GmS7CsKdLs9vdjFsi2mPgUfUts0rzzHGkTH953T2/bjYT38+n4fft7/3zebeKXjcj+dbc97c/2axMfN/Hh5Xjafjsdf74+X/+/PV0kL79+HH9dvvDnqleopIuShL/XByyUw/8nX6/yh/3rQp4zpTwoiFCTdQV7ncugEIUUKRRSHRUqtbiuECPx6FJSisCCfc/FkBMJCDpFktElZaoZKBTiMWhtlBtQaFTHOpRCKa0rZCaWQaFmCgwVYh0Umj0BChZDC2NrhEABpCk24jFNrZKgytUbBe5GVyunPuqsIAjzWHxekYVk7Rp95RpKU6bqFIQCcslKPfaGdZ8Cl+w1jxasNBmkNVuWRguWhlrXFTT2eZlGzmwCl7T29p+2QCEBWSoWIo8KoY/5XYUaKI4WOFIDMTQhHi0wXAIt9tbs8gEmtaU+wLN8QP4ohezl0feneZ/lYwHyldRtbgpgwzRbQK4CH8k3t4ZJkD8mP/pjCUP5b36UMynyp3ocUVKU/+IbyB6AhmvZ+1/w9xOl5uXByFi/sf8+o36w8iQXL1rX8zaf8ykAQEw+jPKpr8o1eR7xQ6ig/BhC+nlUAJkWbx13UKCC6pU8AAZi1D8TUCzmEdVLqfl5F5Sf2sdjlq+oXs1zCqaC+sFgQ13+K8jPAqznAqOdbgbU4RJeoNXzA+0MY1WePyFfp3maEjTxtvsK3InolKEMR6YopbGlI0NqWtjvFCMkAlxS7T081SB1unBfQTxOGm9DwGpYr47LVjjHOfu5UXMJ0Q+hOAJlEWwh3Cg0CGXGiMI4alWhhVT9brFpzYiPiwebj8ivdDBaEM2KCDz3M8oiaAHtbWTZxWBpRQsmqifwVjjEiKyZXfPl0jHr/slLffOlBneMrSxxmC+wDqye5FhUAaBU9STk4iNIUvBlM4uIhQRPAu18W4A/NzuVE2yLm+MHY5QNvWcWrJfB6BhGjjvbju8JHd/9HDBDlBVPKkwedrUHQQ6wR9NNvAHm0zhN8/6gU6/6BjX5CPZvoVC8fAX98Nnrk4/l7cd8V/OyPxyuVz3L9/5uxx5d74Xi4z8=);lineShape=1;fontSize=6;" vertex="1" parent="1">
                    <mxGeometry x="1540.5870529755477" y="133.62726757888134" width="3.157220424762705" height="3.6908219651806924" as="geometry"/>
                </mxCell>
                <mxCell id="84" value="" style="shape=stencil(lVldcxs3DPw1esWQBEmQz2n6PzITp9bEtTOOm49/32VVXkTcaTV5k61bkQAWiyXvpO++Pn748nBK4evb68vnh+/nj2+PJ/3jlNL5+fHh9fyGTyd9f9J3n15eH/56ffnn+ePl7y8fxpPj098v38Yv/LjgUpSmA5XCz8t/tEjq//3nzwvg6fx8DWgSwgLIQYrdBmiVuq6Qs1i7DchVLK0Ak5xvA0qaO94ATWK5DahRYvcrFLKlWkSjj0EZoEmua1qbKImhdulrWlOflTkEWJCYV0CRUH9rhUDTWk3qmqWoUgg1qoqVBYAQIqlbk9SW59uM6ZgYXYK559nv5yR9fT4GmiJQta3Mi6AWAwSpDoDuIcxLoL7LKWIggNglrzlKiIoUARuIa9DJREl/IsTgqBppf3YxpxiVKkaTvhIVgpHZhoKoUxhEkAgAvFsjKHnu8RhQRVeigorGq+C2BK7/L4PHdU7S1iqgmxj1UpW+xmBRlFEvSlpXsEKDhq7XNQbrNGjtvnBNaR2giXHthlYoVyHcdZXV1uewOFaYIG1tnx4lM0CXsq7QE9UYg3AXv4KSFfB76rLUaL919ZVuNnXqGIDC7QGsQc1TA1vKhK29eRlDHSIpXEda1y31MNe80dPB2wbktRDxxhK+1OgpFkSfyrsBlLIPUcdVyHrmhai+EKM0pCHwtQ+6SGOVU68znTc1kmjmAZGtALOWfdBUvbsXV2ySdRAAZVfpRtI6VnCVDlOqbsXglAw/wSbK2MBKDTQEczIIMQcPYPI9su4A6FFWuOrTihUS4xK+jh7QeT/oLkuNN3V3Whkl3AHsWpS54iEbq84g0ZWJAMrkejpLZZW2yf6rfmAm97cBLcyjxQbotHCWJUcPYP1Qm7fRV+p5y3g7I935HC3qzzPIQ2OjfSPnBqjU6MJ7e9nIEgg31I5GOwla4cB2gzcSMsGI6rpCg/SRUiedPngDoA7MV3ZfB3gyxu+YvU2E64tshTDpv/nKSg2Q+UGNs28nQob2WpNajNrQNFffnk/0PBOkrzwCswqpcvC6OkwmiXdnM+BilTl7L/SglRHNA2PWeMEqdnOwuy0Bqe6cxtwpHQdEZRRqnqQ4DmWyo1R2YkG9nibfNoX+Pk537pSepuofP29eiwKVR5zt3In4jjhGfxUT+E2MTb+/JZTaSMv+lsGotzDz8yDGSapjQJfgAIX2pB3d9ESSIsiaU/fELwGHDq4jSsNkya0tOR3CcbTxc1haAeBVY0HXnVLwQW5pJ0WdnkjGnd5ah6F17D4seXMO7jL7X+r0jBug0BlYdk4YgMSuxNSf6Uum5BtjeSfwRlbQ6F3k2CSbstWPNIwEZjvRj85aoNKBSWTZXfcGDsj+kDSmCIkh7m4+tNFL8bi7BECi6Q1U3t3S1cnfW4CcPIBaCyTRAXgDAeBuSzVT5Y7VjyoAMunpaFMjrgDMsWEYugYaAJKlFLy2AsCEbBiY7gHGDFLcxXDnBcv9NzL48Ot9zqfz09PlddD19/79D/51eXek7/8F);lineShape=1;fontSize=6;" vertex="1" parent="1">
                    <mxGeometry x="1545.0018952749201" y="132.5841985309077" width="3.5400088630690116" height="4.678777433447175" as="geometry"/>
                </mxCell>
                <mxCell id="87" value="matlab bas indexing ese shift karo" style="text;html=1;align=center;verticalAlign=middle;resizable=0;points=[];autosize=1;strokeColor=none;fillColor=none;fontSize=6;" vertex="1" parent="1">
                    <mxGeometry x="1801.48" y="32.78" width="110" height="20" as="geometry"/>
                </mxCell>
                <mxCell id="90" value="inorder=[9,3,15,20,7]&lt;br&gt;&lt;br&gt;&lt;br&gt;preorder=[3,9,20,15,7]" style="text;html=1;align=center;verticalAlign=middle;resizable=0;points=[];autosize=1;strokeColor=none;fillColor=none;fontSize=6;" vertex="1" parent="1">
                    <mxGeometry x="1816.48" y="54.900000000000006" width="80" height="40" as="geometry"/>
                </mxCell>
                <mxCell id="91" value="inorder=[9,3,15,20,7]&lt;br&gt;&lt;br&gt;&lt;br&gt;preorder=[3,9,20,15,7]" style="text;html=1;align=center;verticalAlign=middle;resizable=0;points=[];autosize=1;strokeColor=none;fillColor=none;fontSize=6;" vertex="1" parent="1">
                    <mxGeometry x="1826.48" y="94.9" width="80" height="40" as="geometry"/>
                </mxCell>
                <mxCell id="92" value="" style="shape=stencil(lVlLblsxDDyNt4RE/ddpeo8AcRqjaRw46e/2pWro5Yn0G8O71NZUEjkcDuVduHt/fnjb79i9f5yO3/e/D48fz7vwZcd8eH3enw4f8tcu3O/C3dPxtP92Ov58fTz/++2hr+x//Tj+6v/DnzPOU0wdxO7v+QNHIf7/4Ot5+cvhdbU8UmvTcs8U8vb6Qj7O6yu5tr2+UajTek7k3fZ67ynzBAhMqQJAoFomQHTEBQASNQXIxCBE/YZzSJMcMgFAo5pnQCIHLi1Jy24GFLgDB4ozIDvyAQDkAEUDKggrZypzorMnxwBQKbLeoQFAcIMIK0ABeQieStOAhACBsgWAS4c80rS6NHsAkEurHRhGKUoQswYUUD8xUFGJk1uhgs6UwgyIFMEdopSoSlwahL8ISEwcNKAAzUhRV1xeavAyoFA0O2QQpdQoZw3w4EiS1+Z0lNAd5GslfD2sIA85U2ga4AH5cqWsLh2oAUBxl6iBAKx1SQABASJVcyQkZMWqBo9bXQZUSqwBDHaozuRBZAHQu4ZRwWvlQztk8vORUoV3qM30h0AJ9UQ/DrDqQAXUQyuDCEsXFV0CiWuiSwrgRtFuAVSJdiMB6qG1ISoLQMgC6kEAZY6SNAAklQJoCpCHt7ncdp3T8i3qeeUSdQ5TErcEyCQA5U6SlDkgkwBY0VWqFmfOFjXcoQ63swJA9hXTRhfPtQVQHk70+coOTgFEbhH78vh6SVwiRkcSwBxW6cRIXOVIymyIm0DeQQCa32lY5S2A0krmISRbiQtqByEfrtFqAEjJOvlUUQs1MCDPJSeuDtnKXqMqrBEapks16uFA0LeYUx2vTBwiNKpGcacWQJjDJHYioh2qpms3cbhGbwSwNtO1wqFGepByGy1CXyldTrm+fkgQJdtHe6DRDqZTdwIDgPUCvY3d5DZ6owRRsn5GABntYByTAJAwWU/WpQoArOsTAFJj6ysFEBHAOFcB3OaNW4Kt3bpvAaCKs/5e2NqAbNgJQgDIk9kZpWF7YqcguUMCbsPOWT2soAXZSa5TA+1gZsXeY26aRqWAbpt3W4MDgZ2ouzyDmu4z+2wFVh1g61nAmS0K4DdX/RbSL4EeT/KYktbCBOLaH8mszqAjBT1CSKqRbHQ7r7jBkBu+6VRLB4CNd7FsCyCOqt16JlMjhOgzEiYftJ8pHha199omilShh4eqX/q6+UYj+Oixi3No+HFmFPyynuHA4ajN9dnLA7Qfp3kX8FurGyK6mpiQcDs9a/TXWlCcptKEt0hUZf2cYGEhepUxVk84heYGp/VOGJJgPL1i6CDIxnJl8yL0YE6/yTJ8JXaanA6/EY9Mfi5Hqnjjq/7V5fLH5w8IT4eXl/PvD+vv9Q8O8tH5x4pw/w8=);lineShape=1;fontSize=6;" vertex="1" parent="1">
                    <mxGeometry x="1786.8789274754542" y="69.78769002530919" width="20.34675953173728" height="1.4445004802818735" as="geometry"/>
                </mxCell>
                <mxCell id="93" value="" style="shape=stencil(lVhJcttADHwNryhgMOvZcf7hKsuRKorlkpXt9wHDIqUBxU58o0m0MVga6NGgD+/7p7fdEPj9cj593f08PF/2g34aQji87nfnw8WeBn0c9OHldN59OZ++vz5Pf789jZbj07fTj/E//JpwjWIZQYF/Ty+Yqv598XkyPx5eb8ylUQmdfSYt2/b2ufX2jVLettdIOXb2EqgBBzFQ0R6QicM2IAnF2gMsB+BImUmlAwQ7UgUACzH1gEyJtwGlkuYOoEwCqlATlf5IqlTbNqDJXNUFUIlB0M3K2gMs0QLS2hoFBygwBmEm5g6RAuyl0UUfdSowry3NdVqaVUmQB6HWVy5XiqgQhXJfuaJUQCFqoNT3d1miut8bhWofQ43EwEOOcxIXxlkMCQCsm/s6jIlGHoQ4egAaGqnOFF4ody3+fcR6bNjgAZxLiWQdBPJgdWKfJgWFsOasfalboYAGTaDcV85IxShN1pwOEKmCdk1xrtMC0PmQW1lq4gGCslRWQS9R3Qc0z6AREGEztegBDXWf+g1hMaAj5SWJN2nNiBCJoktrgqQeAS7ojDdEpOJiqCSg+SzouKIc47Tm5gEZxGCFy8UDUB3G2bvy0FAvpTse0HC19hbxWUK9ZARi58HmMzpSWB0p4yOFVbcmCvhInkARrqAPA3L2iqwyDLqI1zPF2ht4sM9uBRXGAGuEXguMDEFrVCn1RzLRVUAMNc/aYpECGXLaFjX3HmKDesYWteN0xOrEFrXjtEmsija7+EGmaWb51hAIfbfqolc2d5wTorbjwFyK0S/qgDeQmkx0HgSKjbASTFKhXA8rlSgRerD7gpt8wnAuie/uNBPqrjn7FCUoc3mloyETVtHqnK//Mw+wXKvDBLh12Mtnqy0wl/kKcnOVBInUWQxdzRG/op9aDGVw8uILC04bD8mZI11kNIr+7IBXH7xk/9PcHq73+ZfD8Tj9HHD73d//7dX024E+/gE=);lineShape=1;fontSize=6;" vertex="1" parent="1">
                    <mxGeometry x="1805.7764272964516" y="67.35080731500958" width="4.278713334525304" height="7.46628749663246" as="geometry"/>
                </mxCell>
                <mxCell id="94" value="" style="shape=stencil(lVrbch0nEPwavVIDDJd5dpz/cJXlWBXHcsnK7e8zRMVmafb0id+OVvQCc2l6hn3I775//vDt8SHJ99eX518f/3z6+Pr5If/0kNLT18+PL0+v/ushv3/I7z49vzz+8vL8+9ePb39/+zBGjl+/Pf8x3vDXG6710MpAJfn77UkMXf998PPb+C9PX8/jJRRbxqdQ2u3xVUNf35+DRTJegskyvoROxhcLaX1/DdbJ+B5iXMb3kCsZ30LRZbyFTvbr48f/zvaMoQgFSFsBOQjbgQNWC0UNtVBAXrcca8iJAjrM0IMYNWpegyIa9bJ7LeY1itxKxA0eFnldksdRImatMbR100lDI2at/j5YkluJmLUe7zsAbcbuNaAGgSVZyJkA3NOQOxIqS7aOoZFjMA7QugJyULaHHtKaDllnsNzaA5g11xBJLNUSbE2g7ClIotUdZ7CkHjrzdAxxdZzKfHIrvNPqOI0z4K8BGhRmSDS89SCVA5BDJaGhOmPzACjlYbdJgSUVGnw5TY44AHVG1yXAiToWBLBNO20BL2mb4XgNcJpZPa0ev8QPviSFPdhc5PWmM6aocrr3yKmrWctxQF4DOpq1xKDED6WEtHJrSZMLr8M7BVmtVJzaGAk0TKByeOZaAyRkPl9kYYCKRFYqZQ1XJXllDc9BYTNsCTSEAdExXaZMOHSDzGC5BkQUJs4jjIx7QsdVfrA7QNfg8yOGhbcD4Ngd5MkBIE7c95UvSQBgQUkCuZX66rgWQyI53Q8jHoA7VoooQJvOOW8CVk97OCpzXJznzQHo027/M5b8ibAZBNnb52zErB7eYKWeqWz1Fdt6sHedWX4LAOd0r1S3tjZj8wB4irIl1dBWmum+K2JWB5R1SSZzV7cAQGSWqEh0swKRmc4j5hJg2x6s0SVZR93qTyIJDTMkAQewjHOANQQwoWuHND8Ahxq/BQDNNxbJNy0ZAY3NUKfoPAGMhIa7CUIjilB14pFQ0zYFc4Rg4eoAyjOGYsMBlSzJ8wVU4rA0o++OVZNb2hgb982unS/JJlmfAGxJbqW6LUlYuCakPs+gzmbQbUlteuZWMMVtBlaMjvelbQ9sSZ4vm1lZqTgip2x+IMF3iuZTbAjLCNvI0ugJYVfRx9oIVvGUM66NrUymO6ccY6aMvZwBYI6IG1kaD6YfBbh6UVhSnQ2kWwUynhB6rysA9a6bobIZCh7tlmiOOqABQHiBXOepeTqplRyLo1EBTTWe1HVLOVcbtBXSkWdczzRW1Nisqk6KKbEKQrArMKQpkyeySV0e3h5LEZQr15UDAEKUK9cLANfGDoCT+o76HpsGuc71fRNUrncqCAfomkB3ahQHpHXTlTcqHCBrPnidVVh4O0cA4E7z0WY5fKoVmUz0LTYo8m32L281H4EESqMnir+vrkvymp0do0XRcf6ECSbts9tzAkRiJU0hbo0K2pLyAwVmSJQqUwsZGhWRVkHRrZ4QwJotMc4D6tT/qazTN8/YU4OJiZNNB7iZ2Q5ktnpOTTgWSB1LptEWJNk2JoA+Im9S5IgtZs20sFTZmnZp6oJrQNt6ocKvXBIeJrnzCxGdtHvqSbOSaeTWugePXaYCRj8MGvFK/Vb2vnqmfiibfMu8OHZA2m4f6KVOQU8nXgAVxRZC6rRp546DPaTKWS8iEafCL9dkKv8DkKn08XTs200Wc5x2PH1GjrMZ9htFLhs840Gzxjpl7zWgYGtz3CiyJRVsIYw7S8Z6BWkmRqoCdOsYG22QjasGvNZlZahuV5yVduHV8Jq80IsEj1SgyUyv1T132sowiYqeKlhbuVi9UwOsYSqTcK41UkZ9IfQsb1utJ7RcHUIW3081W8OySqZyvdn/xPGRrcfwHBfethYkeKE04bUEdGKEFtv9cOfJX7xnXVd7Rlqm+ni4YIlUevl+G1AElczNkBY5K/7wZyh3x/uP/755+fT05cvbJzPn/+M3Mv7o7fua/P4f);lineShape=1;fontSize=6;" vertex="1" parent="1">
                    <mxGeometry x="1818.1337182017833" y="62.15222738497053" width="4.88921380834192" height="26.965952484636595" as="geometry"/>
                </mxCell>
                <mxCell id="95" value="" style="shape=stencil(lVjLctswDPwaXzEEXyDOafsfmYnTeJrGmSR9/X2heiiLkLRpbraEFQByAS54SDevD7fPx0MMr28v52/HX6e7t4dD+nSI8fT0cHw5vdmvQ/p8SDf355fj15fzj6e7y//n28ly+vX9/HP6wu8LjqnwBIrhz+VBoKT/Hny5mD+enhbmiaQN5omU982FOAzmjbTtmzNTHKPhTBWEY6/TGA83EhCQvc5pAEwphX1AjKQOYDkggJDkcYkyTX93lzRSdWuqFBMACOU6AHKiBpLOkYIDCLUKAJXyGFIxnuR9QAmeRiX3ZdgG2JqMIRWhAkKaXo8h1UBB9gH2usYRECkXAEiUxxyqkQ/sdK19X2dApQY2rhpzRmpUpQDqQVbVaU8SWFbJxGNIMlfsNqCSjPS2JxFUnCilMgIaNRBS4061uQcwMfDQjBqjh2Y7gwDV10MrkEtt1QSasQtwSa0pOoBSATWtkeLY+JQ74bcB1kfHHOwTgkJS3yq1wkZmgJI8QMHGGUB0BEhfhj2AFg9AfYmDlbBbptbptesieUAD3JiScOtqBMbrmtUDBGfNKw+KcrCIx6QX67CHyMW7aCiJRrwCQIILafQARkmIT8J8VsQmWbGpUUA7J31jF2yCOTQvNgzAaOdalzqLikB8NYA72g0Ak9ae4hKA2oD6zjSF9E6R8ipp0PAncq4AKIftImVcQioeIKhbaj82F+xDkmli86pIKy7S2DwAqTiL2BXEfxRpkZULTL8PAiI1V9WFKuIrd4U0A1JPa/tg1M6dxbGl6OiVjYMRerCT2U0EAjWTnf3eQ4F8NXXh6Dp9Amyc6RfX8VuAZ4qU3nwXEiiBqjYNFh2gwP4toR/lCxkHtWvzG2dCEdVoXe3DJE6Rdo0+JBO7aNIqc4Et5DRU+NbpnMKPUCiW1L83zxDaR6ntsUb99Fpwd83Fq2PzifpMZr/TGddDqn5KMZ+oHhL7g3fyCTzE+Uybx8vaFcs2gH37TlYPwAPbPDrmEEsf1rYByc8QMcBJiwOxuxeoXc1uU2PdvaGajr4VFzi9Bj+8RjgzhS5DruYBBG/nzKgy+J1gXL/jvh175m4pu2zaMx9LJnQdt5eqOvMCmkTo0+zVPALihD50Xc0ZpirePEBz9cGgA9/WbWUOyorXqaLm9sF7uXfN7cf1CvD+9Ph4uUFcvvdXhvboct2YPv8F);lineShape=1;fontSize=6;" vertex="1" parent="1">
                    <mxGeometry x="1795.1731489010924" y="102.15873597997705" width="20.34099778496793" height="13.409670771027574" as="geometry"/>
                </mxCell>
                <mxCell id="96" value="" style="shape=stencil(rVfZbhsxDPwavxISSV3PafofAeLURt04cJwef1+6hrYrrneMAn1br2dWPIaHNvLwvnt62244vJ9Px6/bH/vn824jnzbM+9fd9rQ/29NGHjfy8HI8bb+cjh+vz9ffb08X5OXp2/H75Qs/rzzJpPXC4vDr+iZSSX9efL7iD/vXGV6FmsNHim2dkJiyIzQSBoRGygOBEwVgUs6U00CQSC2sE4pSiCOhUinrhGrfGwmaiDMgmIsjIUVSQGiJtI2EAk9ojXh0OjM1QIghUAgjoxIDr5tZMBKKYEKkNHpdCmUBYTKTy0CwSCcFmbO/HUGpglSnujihUKpA35niqL4WSIFJwsRj5pqQApMqhTziG2UQ1UyiHt+QBz2CczwQBlNNC3tAfZqQZcRbjEEDsPAlj4+gnBcyNR1GEJ9A0dljKQT+BqouwVbLQKTsm0VTUmCPeImaHlD80yK/QgXgy0KgQhXE31qbevsF+BstAeIDFEAFGKGqJzREsInhUpwxIVAZZ4hpogEfmu/XprkKNF17T5jVQAI1nPvp8xqLKMdxjNCsG6+ISJo/AE2oSHXRVJCoLaDsA6S4KJtPAAqQ4d33cx9wK/i00FyCTcgXmVKB8fT2aNfgf8FfuvoYIJszGUhao2/TNskEEJL2fWA2K1EfzakrZprGlQQ1lqnMJ0KCu2BNvfFMhEAZjb7q6zjb+AZ1U7Nfi/LU7tc2NZc4i1sChCLeB7Uo4bDmUaqWSjQvbQVxxS/aW/JtwsKHi7rQTq496hOB+5m31a2+Y0eBPljDcw3SxAp2EJ5G8ORzvwWs4d1SxHAgGJ6LwzPQkeHLmOUIVcHF+xvgvLEEuQwEuCPYgKoej2rZLjSuvdwZH0waPR7YL+IvaYH4joDY4TOIvyRf+LFvMbfx/3grvY+3h79X4Jf94XC9Qc//91dme3W9bsvjbw==);lineShape=1;fontSize=6;" vertex="1" parent="1">
                    <mxGeometry x="1812.6809979798816" y="110.95761586228647" width="4.002682851596402" height="7.129558082755726" as="geometry"/>
                </mxCell>
                <mxCell id="97" value="" style="shape=stencil(lVrJct02EPyad0Vhx8zZcf7DVZYjVRTJJSvb32eQF9BEg2zGt7dME8AsPQt4Sx++PX76+nCL/tv72+uvD38+fX5/vKWfbjE+vTw+vD2926db+nhLH768vj388vb6+8vn+/evn7pk//Tb6x/9CX/dca26Fjsq+r/vvwRX5d8ffr7LPz+97ORrczVP8tElIl8U5ZMLnshnFxXkWziXz82Vef/ZpUbk/fh7yBcXyPNTdr6AvBL5KK6lSd4UnIl8dmHevx2I7D/a/md9iitkP6E5kUleXSH7CdV58Ac/LHgMKM7PCg3BCTlByK76GZCoCxkgzSrtayoFhFlHdiotBJCczk4XZKjtFDBryezS2Aq2pToDIldrdm3eknlKTdQOuKXqKrODORqsIHxL6tps6eTpCnbECLEfOSA7AYAdmqi1B8vsS6lSLZn36xzOSVwmh7Yd+3lLxiD/RewxIA3+3ACBHtqOKGEGJOreqQwG3QDZ5UpXiLCl4oSfwcMKzXm2QkAWy+IiM5wgCWQdUX4MKIPmNh72HBAG726A4CILoIY0U+JQwxkJZI8A5nzN5VlJJbnCiS/PdrPsyJzVWAu8u/DsFhdqNYDy+KmwQqX1gvmegpIaDemki5bMV4jvWbQk2JJtksRPrq7MXFz9YLZjgDo/26EGp6zo8U5maq22SWIHc5wIVcPGCseAhFm3VpfJGQyQ5/ipQl3DAAFW0MHOZ2eoM6AZ8fFDg1pbGrY/BoRxxA1QRob5n3awcleJa3ROgS1ZeUW81VwDVhDvPAkgAwBpSKDkbQBIohKd8BXibGnZ6qFTwOx8Uly+WGGOOLEil8RDB8yGExnedQqY7SBKy+KePWa1qnfKAXXWklojw5zPo7dqunJvSNNaaCFgTApJVCvtfeoSotpGlJ81b20B0IwVR7OzAzQGkNFd7AEk4nSrRHYAVpvY31BJa6O1uopLAJBR0x0DFFvQ/ghSCBhAlhUqOUPwHgssQzB3tSUaAJS6q/2NKyjdk2lRKwKEUF93zmUFlhXN1NC6dgDzjTyodA9ghljdddPbGcArAlgK0jBqkR3As0MHzIoqNIJ0pQ0ZKeP00AkBrEPRZaTRbc8AZYmgRlOQLkOlDmC+1Ibn7LfE1GpaD3joSKivO8ICoIOTwxilh9jiZecbkfMGZDn7pTBDyEEEscTbyXINOcZ9BccOOz2cErj/IUSTJVcrJT/LQgcAcgqrhePCA8xhrQEoi+kKqcqsTfIrD/DKsiz+x3J1rjhH6MmdFYrLiMnCkHXIOeLgQQudzea4REQaxj8GhNHf7oos1sAaAArFqzIuHBWKTEsBfamXohcAqI4r7xYNAC1B4ZYOOMTqBTtXKyQhawnY9NEAkNtlU/SZpSEeGm/+rAkPABA61M0J+dhaM7qC6QR6uQtvzVjhW3sZ2Vwgo5baZpljgHWfc5qrnI4NAM5nTThrYPuWoGu/cL6M48pa6OShOx+MKiItypKx0GzpGoZlziZAuCVP7ZA8VkCFF2Wx4J1LHxmxKZZHby2N3uqEjERWGmUNHTS3G5NlFqFo58J7xYVjSqaet9Qy1p0Wlq4w+fThKTFBiNgCWcJjXhEUa8ostOLrF2WzkXOjU4rYcKxh4ccSaBRk+swvpmwFYJieIdkKdVnB89u+jLebSWip3q9c4EKk0TGf2QFvUMpQ9DGgYtWQEgcsxN1vC9hcfZncm2Von4h1t+mZKUmGG2zymc4oGga/aZnNZRpWn/1ykLC8WWh+fr99ZPUwzon69Sa9d0D5QmeUDbNUSDT4G474zYKsylMc4/LaIixz4ovObUkHjW7frAP+UEd6OEs3BV8hYCk2LWSd6ajeQhzOm+iNSV7a80jdpyxlfKQXY/3CBm746f2KVRzQ/W9j+GP3yWMw9V2ezees7oMR+kW/WZET/RgenMlrQ3kWjg3LcU+H201wou+p/5h8xf1kpk/BNwE8tVcTHL5c2Esw13M+X2fCgdZ/Ju/x+Sxvm/4zPp/VNj/6ytO1vH34/n7Vl6fn5/vrWfv/8X0s++n+Llf6+A8=);lineShape=1;fontSize=6;" vertex="1" parent="1">
                    <mxGeometry x="1828.4400585333326" y="102.71523277066271" width="7.020876268546537" height="27.04076268546671" as="geometry"/>
                </mxCell>
                <mxCell id="98" value="" style="shape=stencil(lZjbchoxDIafZm81Ph+u0/Q9MhNSmNKQIfT09pVLlyJ583v3jhB92JKlX7In//C+f3rbTc68X86nr7ufh+fLfvKfJucOr/vd+XDhT5N/nPzDy+m8+3I+fX99vv799tQs26dvpx/tF35duerJl0Y58/v6jaHo/n7x+Wp/PLze21uq0t5RLMDeUM3CPlJCv2/IBWFfKcSP7UulbIW9dRQqBLyXQKIAPGDAROmxJZMBUKgoIJG1EMhGAN5SMBBICkhU8Ar/DnUGgiOLolQoJAlk8niFIFeIbs6sjwBfJZDJ4rB6mUnJUsQ+eOlDijC3GyBzL1Wym4Ds5rh9CMjky7ylsAngQA+iJM+hcAX6TYAnh5NPA5HcwGkFZHIorFxxsqbbN8AHFo2iRMNQAqlRHWUFcLYCp2ugKn1g4SxIxxJV6UONcAVrDBlZ1LXOJbK8RNbSzQAsiEqlWyGDk+NcM0kDFTiRvK7RBgAVYFVxUgXu4rBINGms3RLACZspeQ0U5DXZzukMpM/OsnV/DCA1jHa53lrScozmhnlnb4FmWK/bSS1zE14EuD3FqgEUoWC7auAWBjIvFrLdlhCQPQW/ZUslze1ppdOtHLvqQWGt3aQxOLe24y7x4GzlOhnDmVec7nCD1E48B3QKgIqHm3jaWJ+JUhcmJAFcP7ULExIZa+bRZaWMuYUdIZ3cKsRb7T0ZtX/cGiIZlam49+S5Ha9tbp3g4e7JB1ClA4P+bC0l6cFgAlgA8IyxAOApZgHAc1IDpMwPJrEFAM96DZDnMJgme2AwrzZADbh4Im6ArM3BzN0AWWuDqZ6BKM9hcG9ogPRhcDNhIMgVBncfe7t8rbxdMeA33d8YsJtuiK3iNt1BGVDJN7jl2m4qGdyjb5K77p5+E4h1zwA8eMoBA78yJD0i4UeMTKUq88FxRW3vUCwzRa/sUQ1wLFQbN3OHWO4f3URooPyGQDlre9RvWGv1/pF96kYpvJ8ctAxhf3nMCXr/g5eCYKf158Xt0ep4onzY/GY2tOcP/x/oXg7H4/V97/7/+kGPv7o+BvrHPw==);lineShape=1;fontSize=6;" vertex="1" parent="1">
                    <mxGeometry x="1851.6729996378394" y="56.835074483786315" width="0.05067827855349853" height="4.165633647417239" as="geometry"/>
                </mxCell>
                <mxCell id="99" value="" style="shape=stencil(rZfbbtswDIafxrcEdZauu+49CjRdjGVJkaY7vP3oeT6Qjv9iwO4chZ/EM6UuPLwdn14Pnee32/Xy9fCjf74du/Cp874/Hw/X/iZfXXjswsPL5Xr4cr28n5/H369Pg+Tw9e3yfdjh58hFSmGAPP8aF5hK+bPweRQ/9eeVuEsUspJ3jmreB3yiVhXgPbmwD4RAXDTQKAIgOgpOAaFQiwBoVJICYqbY9oEk+2mVUqTq94GcKEUF5ECO94HiKWqg8LTFfaCSZw0U8m4fqJ6qjkMVRwMbaiFuGihQpVaoaKAlyiCXWqXsLdCASq3ZSLc8peMeYFXK1ADgmIm1X8WsjKxu1HQBiVkhQSDpQMgKg9yQ/doGSMhNdcqEFVBRIAoFnX0rP9wnpGCyPaIhYE6FtRGg5gTguHETAiLlZAMRUSA2rW/IYAyUTW4wSr9EztiQsUqJqjkhTa1nLw7ZWaCgOEgNb06A+V1twx+UBI1GwuTYGu1Q4BrlbIHyQcllG4eIVbIVVMlhoHgLFGyDacdDr0KpIbm5KWo0eIc2FCzw16q91DBTbvHb/wGWATJPCOkzYFLL0GpmpMRp5T4QrZeKOBqolKstIJmsGZyQ3dQZ50mdyIPkk8kftA1yO2AQB7lbmCYQJZeADWEeODPA5EG/l/tR0IELDhaQ3MC8tmG4BgIb5I4XNeDitMVdgO39J5AHyT3bN+tDFbRJtqPBTzHZE9c54eCo4qk1LOIReJ9tf2RYljxFZhFHY9BZzzD0u8S9GnE0M8VvG3HgGW/LV8TRTZ5SMeIOJEG0c4Pxtf/fHi4fisvH8kZ66U+n8Ym1/t++qWRpfI+Fx98=);lineShape=1;fontSize=6;" vertex="1" parent="1">
                    <mxGeometry x="1850.856199975204" y="60.0038879081461" width="0.865937785306794" height="1.0859682029124829" as="geometry"/>
                </mxCell>
                <mxCell id="100" value="" style="shape=stencil(lVfLctswDPwaXTEkwQd4TtP/yEycWlPXzjhOH39fqKpkEZI2kxst75IguFiQHT+8HZ9eD11wb7fr5fvhV/98O3b8pQuhPx8P1/6mo44fO354uVwP366X9/Pz+Pv1aUAOox+Xn8MMv0derZTLwAruz/glUEz/Pnwd8af+vMR7ytzgvaPE+wQJVAyhkgBCyeRqG1EmkX1CLiShIXAirvuEJFRdQ4iRMiI48rkhpEjs9wnRU2yzmnlac5PATKFdoQSSuE8IibI0BHHTSW4SvJBvNy1CDELKFNuIVCoBRJSoOIvPAB+peIuHKaLczu+dIwcIwZ7BsAAQnt/YMFKF5jtZPBKFisjgBR7xvLsFHs8f2jKohQqMv4jFM8xPNvNnqkBxwTqL4ktGByxuhQ9IQHWFF2BdiSTb/XqQ/0ypWHwC82s2zPxCDuPF4hPyuQ29OeRaVKvFJ5DPRG6lf2TUvIq/Tivu6OG/2pd45FgrfdYP9Cyr/aJWpvWymh/5idajMSyhCOMxhqv6qUD/blLXAh9Bfj6L92GS+9wBCtywn/1vbkqaUeS4WlCGMJvGtoS0UZs+GaDnaqN27W0iMS6CYFUUGe4he1tmrGuisqzWt4beDFbQCw6356C9OQGCJPLGeaFx1UDVLDBJdxuvGWmVPbe2bXycfO2OZyBsxYudH8afbOfQ0gMqUt9P2eJBPoc6YYsHJ6x1HqLBB5QfsfnXUkX5r5OP3PHoYjD4cpt/P7X+7Tp2q6uEh1ezwZjbDQTYyT79iPgQr4P7i+WlP53GB8/yf/vC0U/j64gf/wI=);lineShape=1;fontSize=6;" vertex="1" parent="1">
                    <mxGeometry x="1852.2444068936186" y="59.668362430993156" width="0.5943285200328937" height="1.2692673984700606" as="geometry"/>
                </mxCell>
                <mxCell id="101" value="" style="shape=stencil(lVhJchsxDHyNrijuy9lx/uEqy7EqjuWSle33AWsyowEoNTU3LWgSBNBAkzv/8Pn69LHfOfN5Ph2/738fns+vO/9l59zh/XV/Opz5084/7vzDy/G0/3Y6/nx/nr5/PDXL9unH8Vdb4c+EK4lSaChn/k6/GIrTD18n+7fD+9rekvXC3lHNwN6QT8I+jOxLFvaZAvLHUanC3hpKDgAiRbmBDRQtAJQ5IAugkjW3AdVSUiEKGBAoS5dchS7VTEbu4CPZBAG1yCwYqsilQl4BuFAKBMQoANGRrRDwP00LgDONDs0AuUPiHQYAWXopkRu4pACV6qYdMrMhbgJECtsAHKVNZ8iVHOBD5WKWeWAKJuRS1TtwT4CH5iBKihZPHhSfNYaMkYhABZVr1ZTjvhZQuVbdlpjmDgOs5Gg15LBLiqN1WK5VATxVROpCRRKiRsoo1WV2YAFkmAheL8g8XEh4vVdm3ck4DBmENYeuG1+SfxXBXSJ7vYUHEyLEeYCsDpFBXN0SlHWYwA6WjGQQN3QHNjCacRXPBw6I5E8rDI/s+0LKYOY6iknbJ7D+wsWVPdIM3LGctkc9jCe4Dd0GqGE4Sl2EIsgAj/xcuiODEFmeHFYDCmAzA0rPZsAEBugscFUArtm+rgNuqxyTqgEB5NnaeYKvAFAqzf+u7UFhxDmEd67PY2PbAeYyW0cIrM9atScmJLLpiFBBYZsrRCugYfNc7XiARFi44g+iAZdcR0zEM1YSnT+QyJZKR7OIEraU/J2tiElQuiOg5r4ZECw55VKCF4zYaW0eHxlEqV2RFKDANJQ+zxkOHL7zWAXASoEBeqRhLcIuVQXAaqf0HRjrKQao7jVQbAxQbB5oQlalVWZ6oDrLEpM7hW0JWlkMpHNzQOlaLM45cU5GaSD/rwDwBeMKAF9hrgDwJakBZGkMrmENIEXk4KLXAOqiN6jWOAfxzstqY5xslYPrcCOQeifBF+4S9LNEu9Ijl7yW2u3RAO1gdR7aswTSeYWMAoT5teiW+lddoz2tIAAPFBklixUGV46RnLaYQKnTbZxoNEITGRnVAIub7ZPUPG6+xd06cfc+hwqPuaVavYEtKS/Pdxd71IY5ZU6vj5iTl0FzsTfovHlWdCt7tH6nSfD1kYtaFYSZR92t98Xc2eNB2Pljcf/tzusQi5OWIwZK2va+q/MbkD9b34OH9vzh8vj8cnh7m96u1//rx2r+aXro9o//AA==);lineShape=1;fontSize=6;" vertex="1" parent="1">
                    <mxGeometry x="1855.1220253693175" y="56.98404241694226" width="0.2904973699916403" height="4.652729190758815" as="geometry"/>
                </mxCell>
                <mxCell id="102" value="" style="shape=stencil(lZdNbttADIVPoy3B+SfXaXqPAHFqo64dOG6b3L5UBTkeSnpFd7LMb0gOOXyaIT287Z9ed0Pkt+vl/H33+/B83Q/pyxDj4bTfXQ5XexrS45AeXs6X3bfL+efpefr9+jRajk8/zr/GFd4nLhPHEYr8Mb1gEv374utkfjyc7syVWu7MlTRtm4dGrXb2wVYAgMUTUgfERgwCSoFUOiAVkrINZCbtQ8qFEvBQmHKfcynEDQBK0nuomWLcBqpQ7HNokSpvA61Q7gFhGJIEkn5bpVIAHqRRbH2hmRIonAql0gN19rkFqPaAVRoBSiV4IIGkdVEHAwTUIbDtIveE4Kyt/aMHJEOgOkApBQiE7IEqcF9L8oCCrMdN6St3tw9bRGgLFyiJSqUukqgQYPVARFnboQ+LQqCQCrXigYgmXyF1vWHDDYVUKS7aL6HesAOz8MAoh+Yn07gEKrX46frpcwto6gEF03Xs5uJziPhAtOYB2BrqB/6YFQ5Jmwcqnhte5OwQ4pDS4lAX5EFWPAjyIMTiAUXd2mZNuweQh/8FJM8p3oAID1CT+cvipkENJm0imJ1ohXnf1nW0eNFqea7MulJb9/eALaGgcNl2qa+DLdEAkNosB7evDTvTIOko/jzYEhls6/jB1nsYlwBTI+RZNW9AgBJks9jpQ5j3edWeKfajOMLRbVrTxx+gXC0kOsx6t2UuzhwNC/ZfYgznI1Px5qhW7CeRuQPBBN//t2Q2zHVhDmKPXjwYik1crh5AmZJvMoY9lvxAZDhAV24tClL95yXHHj4vSC+H43G6X93/7y9U9mq6jKXHPw==);lineShape=1;fontSize=6;" vertex="1" parent="1">
                    <mxGeometry x="1854.3606408965456" y="59.929365915693694" width="1.0389732377303005" height="1.379111988921103" as="geometry"/>
                </mxCell>
                <mxCell id="103" value="" style="shape=stencil(lVfLctswDPwaXTEkQRLEOU3/IzNxak1dO+O4bfL3parSNiFrG98oaRfCG+DAD2/bp9fNENzb6Xj4vvk9Pp+2A38ZQhj3281xPNXTwI8DP7wcjptvx8PP/fP8/Po0IafTj8OvScL7zPPOkXMTLbiPf6+I498XX2fCbtxfEbRQkB7vKLt1QimUQkcIkRgRHAXuCBzJ+3WCVEL/h5jI8zohafvcCClTzuuEKBRiR8iFfFgnVI1VO4IUymmdUL2eUkeofssgDpFi6fCqlIAJTOosvgCnMnmxeAXyA7FNi3Nm3SRUgxcGKAiao6IWL8BBzipU8VEQ3mWL91C+8z2+kBSEN0la8RHam8XiUVL7VlRnvJCCAAdyYvEFxCtQWeBFUQJlvkefSKEs7AUlFkl44U+I12zxgmqe1MRL/6OPtbfmG5TvvcULiC83667rBegTWvv4fEGWuPgBMMDfMAB1FGfnwNSxYEH6hT4BtNDFIKsBVmCva+G8widY8GkhP8ACvg/vxVZAEYqowpydGSKUUYoG21OytDZ/e1DG1jLPgzKRAEJOdizF2PaF27M7EfcEZrwdcPPJeZ1gSsBLGuzgqAsLI0JsffmyEXmQdxWf+s5SRxXGl2TwCQwOTTYvqv5IfmpleMGjIGu29tZKQvJrzjiLBxGb5oRYPMjSqY8v9Md4tf4JyJ+1Ly/8j/TXNtcveDQ4prZpViFyoK/cvYJ/glAPl43/Zdzt5gvD9Xd7Q6iv5tsFP/4B);lineShape=1;fontSize=6;" vertex="1" parent="1">
                    <mxGeometry x="1855.593754293917" y="59.7428944806572" width="0.7866924017279531" height="1.7619779378324822" as="geometry"/>
                </mxCell>
                <mxCell id="105" value="sin ein" style="text;html=1;align=center;verticalAlign=middle;resizable=0;points=[];autosize=1;strokeColor=none;fillColor=none;fontSize=6;" vertex="1" parent="1">
                    <mxGeometry x="1832.54" y="45.00000000000001" width="40" height="20" as="geometry"/>
                </mxCell>
                <mxCell id="106" value="spre epre" style="text;html=1;align=center;verticalAlign=middle;resizable=0;points=[];autosize=1;strokeColor=none;fillColor=none;fontSize=6;" vertex="1" parent="1">
                    <mxGeometry x="1831.48" y="66.74000000000001" width="50" height="20" as="geometry"/>
                </mxCell>
                <mxCell id="107" value="" style="shape=stencil(rVnbbhw3DP2afSUkUdfnNP2PAHHqRV07cJy2+fuc6UKTJTVzggB9s2d5pCF5eJ2Lvvvy+OHzwyWFL2+vL38+/HP9+PZ40d8uKV2fHx9er2/466LvL/ru08vrwx+vL1+fP97+//xhk9z++uvl7+2Ef2+4KLVsoBS+3R4Eyem/B7/fxJ+uz3fiKkmNeJKRz8Wz1GbEy7zuULzKSEZ8iLZz8S6pGvEIbfRcfkiLVl5lEHkcF4cFVAlE3ZikWQVilxgJIIsGCxgyGAAvYC0KD1JAk26NBB824mG8QOsWUCSPcwBeoLtXalICAejkzA4YUioBFBlWB42S2Q1NhnWcqkRyg4bpph2QqVk1SbJKa6XUxnnFBpp2Slac57iUA7+hS7dK5ySVOC5HCdbTOUtj0axe6YyXZDeAOVbpDKUJ+TLYavNLCZO/hwD8nKzSBS9JqFF2m+wA5CQGKD7lFbCrEwB0sPSugaYx/JytWWui8VBV1LK1ZmqlWiVaP9Qmifihdp8q66AR1+KMrwnAk0ICqKlkB4BWJB5ameGyAwpNxq1JdTeArUyHMcm8A7oUQu8efars8DQxa0fqtX7oyCNEh14WQJZEzNqbNMulXid/jwFDuvV038vqcRFFundFOkhgAJVuddiOIH4YqPrWcYPrAEBNHsAqEAAuzQDA+hgAXAUajRbFGGAUW9kHbwW2K4oHsEI9Fs/hSSJ5ZjNT8ABWIDZHZA/4iZmC1eHODseI7vm6qUWqHABFPaAwM/UDJVjeACBl74jMCN59hRh7CTh9pegBLA1sL2ATDfjaWEQs+RsA5TqM5YbIyeR6gQ1AyuLmpry8Emefp0ad+fY0gpI3qxLyHQUpajtPHN5MnbNv+OZ4Yx/XunYPYM0Afs5LQHRupvjLQepmiB+m/p8AOtuRHVBonUMJic6uOu1wVueic3WcHflZJXWTFo5gHQ1qtUt+OCITR6AbCNZKOIIlmr4ojSNYnUNHk6zSOKKSG9AzOSttTRFxHHqwaB2HI5inW/IRhK6MBUQLfofQMs1MdUnHuDMQP9Tib6icrWjPfYePiZeNBMPPo7gzEaUxQ/gOX2n3ULJPG5gqGqE35iA38RYUGXJDXrYnpU7fn81yycYDRjOWXDF9ulxZ9l7zGJD88irvfdoxICzzaKMNDWZqpwNGWrYy0mU/k/mOSdW3fRjLB6GGRu9paMXiIY3Zqd5tHuhCp81B7G63wQpvKssyhI9mSf1iTZV2+Cn6NAMzKFt7ocpawGYGokNEurf0hhka4VJcMt+2pmLLwWVqT5mW3RhnUtkBiU5aMXgdIu/X+9z17vKNZvtlPwsjKEsyUiwvYINAqJo98aARyxjqt6eDGjR5TtTZkh6KB99Y5VngT8Td2KAzUE/E/caRRkBY+Ew9tTS2iTbnYYbrbnip1DLR+UkiFU+Wx4HuYZZ1WKCjS/ALvUDLUvDLZ977Lp8A9hg7EXecCXTv/ItfX34qjj9+fOj5dH16un0nuv/dfxjCo9tHJX3/HQ==);lineShape=1;fontSize=6;" vertex="1" parent="1">
                    <mxGeometry x="1852.8248915567453" y="80.1911620099461" width="6.552122519998884" height="3.0264598109123195" as="geometry"/>
                </mxCell>
                <mxCell id="108" value="" style="shape=stencil(lVjZUhtBDPwav6p0zPlMyH9QhQmuEKCAXH8fOa5ZPNp1U7yt190zGh0tze7s6vX+5nm/U359e3n6vv99uH2739mXnerh8X7/cnjzp51d7+zq7ull/+3l6efj7en3880ReXz68fTruMKfE0+VtB5Zyn9Pb5i6/X/x9YR/ODye4ztpm/CZKl/GWyHrE14EEpJQKTOhEDdAqFTyRFAhSZcJ2ajPJmklKZcJhYl1IphRBjsUP7TMhD6M3CRUpZQmQsqUBRAa8Ry2zONUm4RmcYecMaGR8URwNxRgUlfKs5dKhnHobsAc6dLJgJd6ozKbVI0UJKuwRy4w6nizvUUfmTAITYiRTYXSnH0twfxunWrYoZGAQNROfY5cZ2oVZJ9Hbt6h28iW7YJIY72F4G9A5BKTzaF2Nxio0Ryd1JdDbW9AbCs88JFGCXB8A7kqG/YkgGfKwaMNOohjdTpeQBY5PoS4UlKETyX6vwK8xFp2vAC8rtb/QOWpWcQnEK9MmiMeyV2h3Ff2AMWuw9qz8yKhaBv+bCBeHv2wfh0ZcgFf5qbp+aBIfEkk4js8r6zyGfnTlVcivoH101ht6cnvynohIbjHDTrACzVdHQBIFo/yPsMjmeYhsWcONRCAVd/wABfgII5TlCcQEjhv1i3iDQRMx+nOCqCBArZVC/ACAwXwaXwb+rEQfG4DhCyxi3kjLCACJa06cR3tf7sGUpw0Wx6n2i4yGZq5EGzowDahxqxrPBrVpRkqh/EjYV1xoZvjXAULl8VporgWgMJxi4NUFKUKCDVHL+VFnbYJHMU668j27Uh7N5i95CN9Bsmde6yG46UBjR8aU8My3CGVqBeKBwRbknkhGBVUoBZbgjTYMr0nhAISrxBQD66pPUymsKQlE4dLC1WET5RqwCvIbVkVtCcemtFSlBiF1wnHW3DQSMRL+FDNAu+Z7p9QzAzvdLKMxO94JPFS13hG9q+GFtySpcchlmHL1FUde5NDM6PE+x/DfPv0l4cP8f7w/pnj7vDwcPpKcv5//Czir06fVOz6Hw==);lineShape=1;fontSize=6;" vertex="1" parent="1">
                    <mxGeometry x="1858.0209083384007" y="81.60415645419211" width="1.2237195556259752" height="2.378725682161421" as="geometry"/>
                </mxCell>
                <mxCell id="109" value="" style="shape=stencil(lVjLctswDPwaXTEgwec5Tf8jM3FqT9044zh9/H2heuiKoLWOb7KMFQlgFwA5ycP79ultM3l+Px0P3ze/ds+n7SRfJu93r9vNcXfSp0keJ3l4ORw3346Hj9fn8++3p9lyfvpx+Dl/4fcZVyulMqM8/zm/cZTl34uvZ/v97nVp7ynEzj6Rc+v2JVDp7R1T9uuAXCmaDQXyAQA8sVmhUAUrpGBd8LoCAER1MXQAYfJ1HRAyRQNILcxXAVIp9E4HIQZOiydvAJU8yJumiXtAjC1u1wFMVfpEMwWQaadOux6gK2QAUGqYFSoJ2JITCtwBNPcVhFUBxul8SeUawGRa6ejwlqQHFA/1oICYekCEmVZAzj0gU00QUGsHqAwlPevLAAp5lDhp+loAChCQ81T6KGnZEQRw5JIFZAZliXiwryCqiXJv75iJwQKBItsFCqCep+itfQQlwxEP9g5kmcllm4IEHOZGsoU9g/0zJRNQlTcSQuPkwh59X6iYeGpKwP7jQOrUhHS975C4e+y1K9kE4w0pp43yb3isqklyV0hVl32fmnOGOBTIiQUgUuiWvGERZp3qMg8ARGtVbbX2SDYakd6DW7qMret9UvgyhAgXFkdhKCyocjHJoEtUGi/efbL23m8vpq7gZsBDe8Ldhpt3y3aGmo0t7Nov4ZBgRaMNGalsUGW+VI4VPphJTUeKBOyjHZd1ZmE0/1r+6PSJvq8Kq73ooxIaETS3eeMC0PkWrKAuG0oErRKAojrsml4WfGP5dUAZxl9NAgDovMx9lrVwoGqts6vvnVavAgAkT7kH6CGBEaDa8Xce9UC1zgMzajv5XCeGNN5c8gYPIUU/15dSlR4gnuo8WPsICmN1VjncWujaQVDs99FoXVVp2dijQlGH0wFuBHU44DCcq7X5+mT3D/KldVbYxgftv9pOw5DScx9yxr6gQspDK3BtxbUFzAilvQ3b33czcNNeH/5fQ7zs9vvzLcbyf3ttoa/OVx7y+Bc=);lineShape=1;fontSize=6;" vertex="1" parent="1">
                    <mxGeometry x="1861.3955850477457" y="79.96225335682543" width="0.9402647012788597" height="3.883498570901484" as="geometry"/>
                </mxCell>
                <mxCell id="110" value="" style="shape=stencil(rVjbbtswDP0avxKSqAv13HX/UaDpEixrijS7/f3oGXIs2j7FgL05jo4lHh4e0h744f349HYYgnu/XS9fDz9Pz7fjwJ+GEE6vx8P1dNOrgR8Hfni5XA9frpfvr8/T77enceV49e3yY3zCrwmXidMICu73dIMpu783Pk/Lz6fXxfJKNXTLfaFc9tf70B43P9+1R2wDIkUDqOTRDtnuEGuLaRsgVGsHyI4SiDl4u0PWHcCRQqQsHaAkkrgP4EClB0igCFjiQtUAIjGIITKJ7wGJAgOAZrrYHZzfB6RMvleSOCoAkAP5vGIJAYRcn4eiicv7gLISX9agBQAylR6QKkWgpTHEPobEkFYlMfTii5kS0FKNTWoNcC/ZbUBqypkBCUqjzgdYAFCma2l5XQASAsgKkBtv2wBl3RxJKKMdVK39DmozAjI9AvoCYiYGiVOAqWlOTSx7ABd7gPKGEifk+8Sp8wUEKOS415Ijh2jV+iorAGIpUin2SAx8qarNsA1a0JG4mfuCVmSVNZCYhsUUUQyBqmkovvG2dyQ2BaT6RUeKjfWFvGHQWl99DGMBIRNQbxULcCgPhThaQEBHEtt2NYaAjjRrcwZoT0IsVZLVJOBBAXnnrN9rn4Q+o1uYCoofncm4scrVI16Vpj7VLG3P/wMQsfpOBapPO0pZNTkHMqc9i/saLR6OM9qWswEUSqCCxrZsho3Q7Ha7s0dKfeKUBjT/KCfGZ7QIPZpOnLVvzQwyVx2YuE/cQo/bM1m2s4DKy4OaU/3nniatc8FzpZggQiuq7RLSptUfSdRJKgAk26l1JKp4vjeTa84wc95Zo0kJsiTNt+aepdM1qIfcqmUuODUyoIxo8zzeAVp1bSC864IKKAY1OaNU8uD4K88rkE7XSn1mEw4lq9KPrRPtLDftX/0XqceOqr7lelvObfZoy9U2ADPBDi942NH32GqXoxckinY5mrLnl6d7qKiXpTYP3IlEmvzHl/IPl+vF/f3/5XQ+T58Plv/b7wV6a/rWwI9/AA==);lineShape=1;fontSize=6;" vertex="1" parent="1">
                    <mxGeometry x="1860.652366663202" y="82.66232631860244" width="2.024022409520469" height="0.9570485967122317" as="geometry"/>
                </mxCell>
                <mxCell id="111" value="sin&amp;nbsp; &amp;nbsp;ein" style="text;html=1;align=center;verticalAlign=middle;resizable=0;points=[];autosize=1;strokeColor=none;fillColor=none;fontSize=6;" vertex="1" parent="1">
                    <mxGeometry x="1862.68" y="87.38000000000001" width="40" height="20" as="geometry"/>
                </mxCell>
                <mxCell id="112" value="" style="shape=stencil(lVbLbhsxDPyavRKSKErUOU3/I0Cc2qhrB47Tx9+XW1eOxV1P0ds+NBJnxCE58cPb9ul1M6Xwdj4dv25+7J7P24k/TSntDtvNaXe2p4kfJ354OZ42X07H98Pz5f31aV45P307fp93+HnB5UyiMyqFX3+/UA5/Pny+rN/vDjfrRSnLsD4qza/3AKURtwHAgbTeB9RCUkZAowAAylR4pGBBMgAotZGzsQrxPqAx8QgoFZ4QQ6AQBsS8B9C1WUwjiSbwIubfo66tUmoAYCGlEaBUAcB0jQ7QqIKrrouQbnRYT45KLfsjBMRUIqXiSUgG+VoouhMKtQIAxnpxEYiDpB7AFZBIAQcxhzldzREgmyw7ZdRVzRECVMpU4gioVMEJNZJmD0COqM2TViyr/Vb1J6CbNr9Ex0GhSpb+Ur2sAkKyVFPn0YRDar4ytUwV1Y0FaftSkakTBZd8SgxuWoXEARplBRdnla54QEOA4Ov3h27ryWeFLnsO0HHV1+/5KpEfuDeQG4sWwMEsmh1p6xnY0/8HyBbxmEvFSCNApjCqJA1aNC/KtwQI4ExxvLgce5CrgNR6I782Xu51ZL3LqW8QKVIBBoq+KdoGIDEWPbRQAXOAJeqYRkIRWCf2pLyyhdbMvlgk2J61C3FthT269WC479bXW+1Cwdv+4tYHoLyFHxfrcS64UhcoAe15MUYG2APZ3JGcPqi450Q8dgPudrhnr+VYC1L532OwPXzM0C+7/f4ygt/+9zO3fbrM6/z4Gw==);lineShape=1;fontSize=6;" vertex="1" parent="1">
                    <mxGeometry x="1877.2173710984625" y="100.18896227457802" width="0.3109720299349194" height="1.1280363778798435" as="geometry"/>
                </mxCell>
                <mxCell id="113" value="" style="shape=stencil(lVfLchpBDPyavapGo3meHec/XGUcqBBwYZzH30cbMgSJpYlv60W9GnWrNfIkD2/rp9fVFMPb8bD/uvqxeT6uJ/k0xbjZrVeHzVGfJnmc5OFlf1h9Oezfd8+nv1+f5sj56dv++/yFnydczsQ8o2L49fcN9fbnxedT/Hazu4xPVKOJ50IxAUCmkAxAM4RwG1CYqhiANJIOAJlyNYBUKAsAdCq2Bq0KZahCNRtAicQVADo1eyTNmfk2oHdKVoYehzC3ANVm6Anq0Av1bgEqHCi6M4nL0IaUi4AmlFyGTgKUrom4eUDPQLh0xZICAEvafPEKwKDoVEfnnAF1SLkMiON7F7QGYCBR4awfVLgQQYZAyQGYGqoh+aKbsgQy5EClWIA6DtGqJFoDtQqbrzSqwQIKNXCkerb8RYYAitafnQ5aA6JVWefiWYIWbZS71yGBDBzCGHRnhMDBpCminTM9U0EAWWjXDCyntItVTnN2oFytJFcebYCmUqnYGi54WO6mRpx9ClRE0hMUX4QgkwoVN8rKuMZuec7PjXQXED8CiExse6PyGAzL3ZSoW0BR8QsAMEWrnE7DCpqp+sGkw7CCaax3prunVTZQgXaBFWFeBEAnBT8C7mwaV27Dm0ygZsMTPL34cSHj8lq2AXVLDo/r95ZYTl2G04tVGiuusgW00uKiuHjkSVF2/PdhfPXNgM+jjnQGw/Wm5lcFzGfmsUj8n1zzAmjPg7vhw2vz3Xh9+Lejv2y229OKf/m73+n11en/AXn8DQ==);lineShape=1;fontSize=6;" vertex="1" parent="1">
                    <mxGeometry x="1889.8749455439593" y="100.1029732615458" width="0.2669132837954391" height="1.2210758673680129" as="geometry"/>
                </mxCell>
                <mxCell id="114" value="spre epre" style="text;html=1;align=center;verticalAlign=middle;resizable=0;points=[];autosize=1;strokeColor=none;fillColor=none;fontSize=6;" vertex="1" parent="1">
                    <mxGeometry x="1862.68" y="124.92" width="50" height="20" as="geometry"/>
                </mxCell>
                <mxCell id="115" value="" style="shape=stencil(rVfbbtswDP2avBKiqOtz1/1HgaZLsCwp0uz296PnKrMo+wwD9ubEPObtHIraycPb4el1v/Pu7Xa9fN5/Pz7fDjv5sPP+eD7sr8ebPu3kcScPL5fr/tP18vX8PP9+fZosp6cvl2/TF37MuEziJ5B3P+c/mFz+/cfH2fx0PC/M2bXXzT5TZWAvVHt7TsQJADJx7ADeUwQADZh7D+JIQEg+kXM9oFAu2wBRD7UDhAxDkmSTjonEbQOCptgDUqAQAKCQK30bmErcBkShGHpAgX2IhWrqAEUogBySdrr3UDJlEFIqVHoPlckDD1na9+4A9Qk8aIqxb1xN5EHSlS27FVCAHBRQxAKCAIC3ZVUAg6RrIOnLWiNUnL4uAwDmkMkXG5JDIWlZh6Q9EFCtjcwLQKoQYLikQTLKoTYiLAAJA4KhBtZDHblU4BDQACRZAJLo1FdvARVVKTSqLQEoaSE3ADLyoPQekg5YQOwswCE9OMpGcbmxawvwzv4FAHrgFbZGVCUdxtECGFVJhkEW4VzS16OmoUR1CvnBAzgfJjIPimMsUR6GQEQe6hBShlODnbPn7tRqNGdqGxJLMv1PQE52bCyiXEeoIoYkMmhd0ulq+Bohm5KnZDx4CIjZ0q/gyRR9E/0dEBpd1rcNzaEvU8ZzIzDlnhzZkwCAbkw8LEBIQrrjGVXrioVC8sFyI2Bu8HBoSW2tXAcEG5IG+V6GrV069NTw9+1gnXx2uDLWqI77/vul9XHVXJnfN43hKjPIWWc/NDdLtGur04Z5tOaI08MlQO8A4OvDuebg4a+CYWPuYN2H2BHT9Bi3saMDLbbbzSJ2YK67XLSVQWs8pWTrDjisM9+miq5S/3jb/Ku5Pvy52L4cT6f5Xrx8by/C+td8iZbHXw==);lineShape=1;fontSize=6;" vertex="1" parent="1">
                    <mxGeometry x="1878.61905079038" y="129.42836172489356" width="1.4089521415511743" height="4.152387789640169" as="geometry"/>
                </mxCell>
                <mxCell id="116" value="" style="shape=stencil(lVjbUlsxDPyavGpsyxf5mdL/YIZQMqWECdDL31enGYdIJ96Ut3DwnmNpV9LaG755fbx72W5SeH077L9vf+3u3x43/GWT0u75cXvYvemvDd9u+OZhf9h+O+zfn++Pf7/cLSuXXz/2P5c3/D7iOmVeQCn8OT4IVPu/B1+Py592z2fLo1CpZn2l1Obr9d85mPUxUgQAjlSzBWTiAgCNJFqAUACAnCkXA0iRpM4BJVLqFlDGKy4DZOTkBOgUQFZrppYMgBOVOAe0QMWmlQs1BCjUbQwsVEHQEqhZorNmKQNApmrTqonuIEvSqFrp5UYdxCCdqs1SCSQ8B3TVsuWhMGUBAGXaaqlUimBLCihuSzKonAGa3VLVegDS6ImCrYfKxIA4BTi11jJqcAZwMdRGjLKUhtROgA5LdNmSGECLxChoTasDMN6SMu0AZbxiBkhWre2q+FwBaYWgtCqg2S8IUwCdT7cUbMVJIcFZipYHEeqYaSe+hRlQ0737JtCFMhBfDBpE8AjUNvQTrm3ok4QqSFZ76mMmXQY0ytEDBBV18cwpoCPmmLqbWR95mDER++oTCLBqZUvigDhUfiV7AKq5RTvJAwLorgoQtyUZs3u2JU+EQPOgQWf3BS1SRHX0RCigIfXxKq1tDJmZNrKsAGgGNYorQENBi+99+iQguSrTxQMYl5xrZUtN4S+IndT6JCK1dt+Z9AlyTAuvwQMgcZV4pdaOeMg+S/9RoxfaAApC+/Gq5BDVWhCybmV4poQVICKP9WlAGAV2NiLQIG2qNasN/WYENdqq17dUyINO8uYmL4+opgArJo0KWaYFYLtAa3BCaAzRBq2vYBRDG/VyZmhQBbXTGebMMiUMcFm6YsoU0C0Pi+0DA6J1P7OuGEsFZGcs1cWBemgrL1CvBK31ZWNY7DcKWivObmkx+HhLzTKtRwjU7xXAlmk9PkYwUdrq/JpPJTVTq2t9uUBTpspx7TsnyqC5qhDcpQB3WEB1debgCv26Zt2ZOGbItJ701kdqAYDM/iiXKux8umM3qJN2PsCDboCd68NjVN/nbWKBnS82L+8YsXP1Yq3jixeXa04tCfhUtrL2p3k3W25lGuBpJvg5EkYzmCyX7pZnQFYcZvljeQJvT94WBngNwH5+BOics9cBNiLVz44wrgQul7tv02EMq8sT35uWAD25eKN28ugTRX7qevHqcv3xcZP5sHt6Ol6Env/f33zqo+OtKd/+BQ==);lineShape=1;fontSize=6;" vertex="1" parent="1">
                    <mxGeometry x="1892.9739658151166" y="128.8107862636205" width="1.0885813905987136" height="5.09769359010469" as="geometry"/>
                </mxCell>
            </root>
        </mxGraphModel>
    </diagram>
</mxfile>